<svg width="245" height="73" viewBox="0 0 245 73" fill="none" xmlns="http://www.w3.org/2000/svg">
<path d="M73.5 36.5C73.5 56.3759 57.1648 72.5 37 72.5C16.8352 72.5 0.5 56.3759 0.5 36.5C0.5 16.6241 16.8352 0.5 37 0.5C57.1648 0.5 73.5 16.6241 73.5 36.5Z" fill="#90C7BE" stroke="#01967F"/>
<g clip-path="url(#clip0_177_2)">
<path d="M40.5792 15.2441L40.9862 16.9408L41.1991 16.857L40.9862 15.1693L40.5792 15.2441Z" fill="#D0D2CE"/>
<path d="M42.6854 14.9866L43.0924 16.9408L43.3053 16.8439L43.0924 14.9003L42.6854 14.9866Z" fill="#D0D2CE"/>
<path d="M36.3097 51.8615H34.929V15.1694H36.491L36.3097 51.8615Z" fill="#DFE0DC"/>
<path d="M36.3097 50.0876L34.929 34.8665V51.8615H36.3097V50.0876Z" fill="#D0D2CE"/>
<path d="M42.5109 51.8615H30.6719V50.3951H42.5109V51.8615Z" fill="#DFE0DC"/>
<path d="M45.379 14.8827L29.4744 16.6808L28.5735 15.5624L45.2962 14.0088L45.379 14.8827Z" fill="#DFE0DC"/>
<path d="M41.8466 37.6298L41.7583 21.9045L42.6011 21.8972L42.6893 37.6224L41.8466 37.6298Z" fill="#B1E5E8"/>
<path d="M42.0411 37.3236L41.9802 22.2077L42.3329 22.2035L42.3938 37.3193L42.0411 37.3236Z" fill="#51AD94"/>
<path d="M44.7162 21.5119L39.79 23.5233L40.1342 17.2099H44.3955L44.7162 21.5119Z" fill="#B1E5E8"/>
<path d="M44.2999 21.0943L40.1699 22.7849L40.31 20.6178L40.3645 19.7736L44.0188 19.1742L44.2999 21.0943Z" fill="#60C8AA"/>
<path d="M44.2999 21.0943L40.1699 22.7849L40.31 20.6178L44.2999 21.0943Z" fill="#51AD94"/>
<path d="M43.7228 21.9175L43.1599 21.561L43.3819 21.4702L43.7228 21.9175ZM40.3635 19.79L40.006 19.5636L40.1343 17.2099L41.8971 19.5223L40.3646 19.7736L40.3635 19.79Z" fill="#C2EAEA"/>
<path d="M42.9747 20.936L41.9869 20.8181L40.3635 19.7899L40.3646 19.7736L41.8971 19.5222L42.9747 20.936Z" fill="#80D3BB"/>
<path d="M43.1599 21.5609L41.9869 20.8185L42.9748 20.9364L43.3819 21.4702L43.1599 21.5609Z" fill="#76C2AB"/>
<path d="M43.5215 20.8153L40.9862 21.0944V18.3273L43.5215 18.4037V20.8153Z" fill="#DFE0DC"/>
<path d="M40.9124 17.4478L40.7106 16.606L41.4025 16.435L41.5322 17.376L40.9124 17.4478Z" fill="#B1E5E8"/>
<path d="M42.9305 17.4478L42.6854 16.435H43.3918L43.6079 17.4478H42.9305Z" fill="#B1E5E8"/>
<path d="M43.1323 19.1742H41.5321L41.3375 18.9603H43.1323V19.1742Z" fill="#A9ABAB"/>
<path d="M43.1323 19.7776H41.5321L41.3375 19.5637H43.1323V19.7776Z" fill="#A9ABAB"/>
<path d="M41.52 22.6394L41.619 23.4337H42.6893L42.7402 22.2035L41.52 22.6394Z" fill="#B1E5E8"/>
<path d="M62.1066 52.8206L61.814 37.5243L62.9165 36.0219L63.798 38.5278V53.1494H62.1066V52.8206Z" fill="#D0D2CE"/>
<path d="M63.52 53.1494L61.8348 38.616L62.1066 53.1494H63.52Z" fill="#BBBBBA"/>
<path d="M63.798 38.5278L62.1076 33.4789L60.8919 35.4392L60.5781 40.5655L60.8919 45.8827L61.3265 38.8772V37.0639L61.9178 39.3316L63.798 38.5278Z" fill="#D0D2CE"/>
<path d="M27.7233 30.1962L36.6002 38.084L37.843 35.7577C38.1891 35.1098 38.1096 34.3413 37.6454 33.8452L31.0495 26.7988C30.9949 26.7405 30.9158 26.7105 30.8329 26.7162C30.7497 26.7219 30.6696 26.7629 30.6131 26.8288L27.7233 30.1962ZM36.139 39.1957C36.1343 39.1916 36.1296 39.1876 36.1248 39.1834L26.7494 30.8526C26.4418 30.5792 26.4292 30.0989 26.7209 29.759L29.813 26.1559C30.0797 25.845 30.4579 25.6513 30.8505 25.6243C31.1917 25.6009 31.5175 25.7039 31.7679 25.9145C31.8048 25.9456 31.8402 25.9792 31.8732 26.0145L38.469 33.0608C39.2335 33.8775 39.3642 35.1429 38.7944 36.2095L37.3574 38.8995C37.2391 39.1211 37.0252 39.2864 36.7854 39.3416C36.5495 39.3959 36.3139 39.3427 36.139 39.1957Z" fill="#DFE0DC"/>
<path d="M29.624 32.5579L29.0239 32.0532L32.6872 27.7845L33.2873 28.2891L29.624 32.5579Z" fill="#DFE0DC"/>
<path d="M32.9209 35.3306L32.3208 34.8259L35.9841 30.5571L36.5842 31.0618L32.9209 35.3306Z" fill="#DFE0DC"/>
<path d="M37.7323 36.8473L30.8792 30.4654L31.4619 29.8423L38.3151 36.2241L37.7323 36.8473Z" fill="#DFE0DC"/>
<path d="M43.6429 39.21L54.4625 39.5215L53.9414 37.0363C53.7962 36.3443 53.2852 35.827 52.6698 35.7492L43.927 34.6439C43.8546 34.6348 43.782 34.6617 43.7281 34.7173C43.674 34.7731 43.6429 34.853 43.6429 34.9365V39.21ZM54.8033 40.6267C54.7976 40.6267 54.7919 40.6266 54.7862 40.6265L43.359 40.2975C42.984 40.2868 42.6903 39.9405 42.6903 39.5092V34.9365C42.6903 34.542 42.8368 34.1648 43.0924 33.9016C43.3144 33.6728 43.6008 33.5468 43.8989 33.5468C43.9428 33.5468 43.9873 33.5497 44.0311 33.5552L52.7739 34.6604C53.7871 34.7885 54.6285 35.6401 54.8675 36.7795L55.4701 39.6532C55.5198 39.8898 55.47 40.1443 55.3369 40.3337C55.206 40.5199 55.0116 40.6267 54.8033 40.6267Z" fill="#DFE0DC"/>
<path d="M46.3589 39.7726H45.6444V34.3553H46.3589V39.7726Z" fill="#DFE0DC"/>
<path d="M50.284 39.7726H49.5696V34.3553H50.284V39.7726Z" fill="#DFE0DC"/>
<path d="M54.5115 37.908L45.985 37.4521L46.0182 36.6316L54.5447 37.0874L54.5115 37.908Z" fill="#DFE0DC"/>
<path d="M21.8602 36.9208L24.7971 29.9828L20.2605 37.4633L30.1397 48.4767L61.8139 49.6105L61.2314 46.9202L33.81 45.1242L21.8602 36.9208Z" fill="#A9ABAB"/>
<path d="M61.2314 43.0823V46.9202L31.8494 46.1034L21.8601 36.9208L21.6545 36.5765L21.5449 36.5194L24.309 33.6728L24.4712 33.5058L33.7552 42.0758L61.2314 43.0823Z" fill="#5975B4"/>
<path d="M61.2314 45.8921V46.9202L31.8494 46.1034L21.8601 36.9208L21.5449 36.5194L24.309 33.6728L33.8098 44.0638L61.2314 45.8921Z" fill="#4C649E"/>
<path d="M31.96 48.5419V50.7184H59.6087L59.0994 49.5133L31.96 48.5419Z" fill="#898C8C"/>
<path d="M28.4904 49.4109L29.1983 53.1494H63.798L63.2061 50.6901L28.4904 49.4109Z" fill="#A9ABAB"/>
<path d="M28.4904 49.4109L59.6088 51.9091L28.8285 51.2801L28.4904 49.4109Z" fill="#D0D2CE"/>
<path d="M30.4066 52.2235L29.4005 55.7687H31.4942L33.0075 52.2235H30.4066Z" fill="#898C8C"/>
<path d="M30.0682 54.9677H30.951V57.09H30.1943L30.0682 54.9677Z" fill="#575B5C"/>
<path d="M32.1011 57.234C32.1011 58.1042 31.3885 58.8094 30.5096 58.8094C29.6307 58.8094 28.9182 58.1042 28.9182 57.234C28.9182 56.3639 29.6307 55.6586 30.5096 55.6586C31.3885 55.6586 32.1011 56.3639 32.1011 57.234Z" fill="#626567"/>
<path d="M31.4299 57.234C31.4299 57.7372 31.0179 58.1449 30.5096 58.1449C30.0013 58.1449 29.5892 57.7372 29.5892 57.234C29.5892 56.7309 30.0013 56.323 30.5096 56.323C31.0179 56.323 31.4299 56.7309 31.4299 57.234Z" fill="#515455"/>
<path d="M30.9452 57.2343C30.9452 57.4722 30.7502 57.6652 30.5096 57.6652C30.2691 57.6652 30.0741 57.4722 30.0741 57.2343C30.0741 56.9963 30.2691 56.8034 30.5096 56.8034C30.7502 56.8034 30.9452 56.9963 30.9452 57.2343Z" fill="#717577"/>
<path d="M61.8826 52.2235L62.8887 55.7687H60.795L59.2817 52.2235H61.8826Z" fill="#898C8C"/>
<path d="M62.2211 54.9677H61.3384V57.09H62.095L62.2211 54.9677Z" fill="#575B5C"/>
<path d="M60.1882 57.234C60.1882 58.1042 60.9008 58.8094 61.7797 58.8094C62.6586 58.8094 63.3711 58.1042 63.3711 57.234C63.3711 56.3639 62.6586 55.6586 61.7797 55.6586C60.9008 55.6586 60.1882 56.3639 60.1882 57.234Z" fill="#626567"/>
<path d="M60.8594 57.234C60.8594 57.7372 61.2714 58.1449 61.7797 58.1449C62.288 58.1449 62.7001 57.7372 62.7001 57.234C62.7001 56.7309 62.288 56.323 61.7797 56.323C61.2714 56.323 60.8594 56.7309 60.8594 57.234Z" fill="#515455"/>
<path d="M61.3441 57.2343C61.3441 57.4722 61.5391 57.6652 61.7797 57.6652C62.0202 57.6652 62.2153 57.4722 62.2153 57.2343C62.2153 56.9963 62.0202 56.8034 61.7797 56.8034C61.5391 56.8034 61.3441 56.9963 61.3441 57.2343Z" fill="#717577"/>
<path d="M24.4713 33.5058L27.5362 26.9477L35.0721 38.1624L60.2902 39.4562L61.2314 43.0823L54.9138 43.3402L33.42 42.3723L24.4713 33.5058Z" fill="#5975B4"/>
<path d="M21.5449 36.5194L25.0863 29.3811L28.2577 27.0987L24.7583 34.1642L21.5449 36.5194Z" fill="#4C649E"/>
<path d="M44.024 39.3369C44.024 39.3369 44.5287 39.7211 44.7403 40.1333C44.9518 40.5455 45.417 41.4061 45.0647 41.8691C45.0647 41.8691 45.0742 42.1642 44.773 42.0577C44.773 42.0577 44.7185 42.2437 44.518 42.2694C44.3217 42.2946 44.4432 41.2782 43.8619 40.8068C43.8523 40.799 43.8395 40.7963 43.8276 40.7994C43.8156 40.8025 43.8059 40.8111 43.8014 40.8226C43.7803 40.8765 43.756 40.978 43.7859 41.1227C43.8323 41.3476 43.8538 41.3846 43.7961 41.4188C43.652 41.5044 43.5435 41.4553 43.4317 41.0473C43.3199 40.6393 43.2938 40.5109 43.3373 40.3216C43.3809 40.1324 43.3886 39.9847 43.3212 39.8016L44.024 39.3369Z" fill="#FBC290"/>
<path d="M44.4054 40.7547C44.4054 40.7547 44.8277 41.6605 44.773 42.0576L44.8709 42.08C44.8709 42.08 44.9618 41.5071 44.4054 40.7547Z" fill="#F9AC7B"/>
<path d="M45.0647 41.8691C45.0647 41.8691 45.0374 41.2634 44.6306 40.6428C44.6306 40.6428 45.0937 41.1824 45.1334 41.7511L45.0647 41.8691Z" fill="#F9AC7B"/>
<path d="M43.7778 38.7932L44.1061 39.2869C44.1358 39.3317 44.1237 39.3919 44.0789 39.4219L43.4079 39.8708C43.3831 39.8874 43.3526 39.8931 43.3235 39.8867C43.2943 39.8803 43.2691 39.8624 43.2537 39.8371L42.9269 39.2983L43.7778 38.7932Z" fill="#50C1C8"/>
<path d="M43.7585 38.8565L44.0108 39.243C44.0338 39.278 44.0299 39.3216 44.0023 39.3407L43.5888 39.6255C43.5736 39.636 43.5538 39.6381 43.534 39.6314C43.5142 39.6247 43.4962 39.6097 43.4842 39.59L43.2297 39.1704L43.7585 38.8565Z" fill="#50C1C8"/>
<path d="M40.4126 33.7309C41.7372 35.8744 43.3565 37.9175 43.7895 38.5653C43.8625 38.6745 43.8365 38.8211 43.7302 38.8989L43.109 39.3535C43 39.4333 42.8466 39.4119 42.7641 39.3053C42.1019 38.4509 39.4055 34.998 38.3675 34.0835C36.7875 33.11 37.2895 32.1154 37.0175 31.363C37.3805 31.4167 38.8092 31.1366 40.4126 33.7309Z" fill="#5FCACE"/>
<path d="M43.569 38.9685C43.569 38.9685 43.1162 37.8404 42.4255 37.3985C42.4255 37.3985 43.1606 38.4279 43.428 39.0522L43.569 38.9685Z" fill="#5FCACE"/>
<path d="M42.6579 38.048C42.7288 38.1649 42.8875 38.1994 43.0126 38.1252C43.1376 38.051 43.1815 37.8961 43.1106 37.7793C43.0397 37.6625 42.881 37.6279 42.7559 37.7021C42.6309 37.7763 42.5871 37.9312 42.6579 38.048Z" fill="#5FCACE"/>
<path d="M41.0712 43.0942L40.6438 40.2388L45.8715 40.0155C46.2982 39.9972 46.7357 40.0038 47.1482 40.0344C48.5184 40.1362 51.4405 40.3748 52.0828 40.6194L52.025 41.471C52.025 41.471 44.1555 40.8456 41.0712 43.0942Z" fill="#F9AC7B"/>
<path d="M51.915 41.4638C51.915 41.4638 52.4242 41.9205 52.7818 41.394C53.1341 40.8753 53.5261 39.8468 53.1066 39.8467C52.6774 39.8465 52.526 40.4423 51.9848 40.5834C51.8408 40.6209 51.915 41.4638 51.915 41.4638Z" fill="#F9AC7B"/>
<path d="M52.2428 41.633C52.2428 41.633 52.8446 41.4847 52.964 40.9257C53.0832 40.3679 53.3993 40.1077 53.1924 39.8665C53.4097 39.8085 53.6358 39.8751 53.6096 40.2319C53.5833 40.5882 53.4019 40.9818 53.3178 41.1333C53.2335 41.2853 52.6625 41.4397 52.8541 41.4893C53.0437 41.5385 53.3614 41.3451 53.3925 41.4499C53.4236 41.5544 52.7255 41.7527 52.5562 41.7461C52.3854 41.7393 52.2436 41.7752 52.2428 41.633Z" fill="#3C1A18"/>
<path d="M53.2201 40.5452C53.2201 40.5452 52.5605 40.2268 52.5736 40.1357C52.6562 40.0398 52.7358 39.9774 52.7358 39.9774C52.7358 39.9774 53.2025 40.2892 53.2768 40.3052C53.2749 40.4932 53.2201 40.5452 53.2201 40.5452Z" fill="#3C1A18"/>
<path d="M52.907 41.1554C52.907 41.1554 52.1213 40.5911 52.1526 40.4596C52.2733 40.3315 52.3845 40.2523 52.3845 40.2523C52.3845 40.2523 52.9255 40.7786 53.0166 40.813C52.9845 41.0874 52.907 41.1554 52.907 41.1554Z" fill="#3C1A18"/>
<path d="M52.7301 41.4179C52.7301 41.4179 51.9176 41.3722 51.901 41.4823C51.9383 41.5002 52.0114 41.5568 52.0114 41.5568C52.0114 41.5568 52.4781 41.4946 52.6585 41.5112C52.7316 41.4369 52.7301 41.4179 52.7301 41.4179Z" fill="#3C1A18"/>
<path d="M51.5508 41.4834C51.5508 41.4834 51.7794 40.5551 51.7367 40.5049C51.9144 40.5483 51.9936 40.555 51.9936 40.555C51.9936 40.555 51.835 41.386 51.7908 41.4939C51.6898 41.4797 51.5508 41.4834 51.5508 41.4834Z" fill="#3C1A18"/>
<path d="M51.1367 41.4626C51.1367 41.4626 51.3621 40.4465 51.318 40.3911C51.5 40.4401 51.581 40.4481 51.581 40.4481C51.581 40.4481 51.4264 41.3581 51.3821 41.476C51.2788 41.4596 51.1367 41.4626 51.1367 41.4626Z" fill="#3C1A18"/>
<path d="M40.7972 41.2114L40.8185 38.3189L45.5976 38.1327C46.0243 38.1144 46.4617 38.121 46.8742 38.1516C48.2445 38.2533 51.1665 38.492 51.8088 38.7366L51.751 39.5882C51.751 39.5882 43.8815 38.9628 40.7972 41.2114Z" fill="#F9AC7B"/>
<path d="M51.6409 39.581C51.6409 39.581 52.1501 40.0377 52.5077 39.5112C52.86 38.9925 53.2521 37.964 52.8325 37.9639C52.4034 37.9637 52.2519 38.5595 51.7107 38.7006C51.5668 38.7381 51.6409 39.581 51.6409 39.581Z" fill="#F9AC7B"/>
<path d="M51.9689 39.7501C51.9689 39.7501 52.5707 39.6019 52.6901 39.0429C52.8092 38.4851 53.1254 38.2249 52.9185 37.9837C53.1358 37.9257 53.3619 37.9923 53.3356 38.3491C53.3094 38.7053 53.1279 39.099 53.0439 39.2505C52.9595 39.4025 52.3886 39.5569 52.5802 39.6065C52.7698 39.6557 53.0875 39.4623 53.1186 39.5671C53.1496 39.6716 52.4516 39.8699 52.2823 39.8632C52.1115 39.8565 51.9697 39.8924 51.9689 39.7501Z" fill="#3C1A18"/>
<path d="M52.9462 38.6624C52.9462 38.6624 52.2865 38.344 52.2996 38.253C52.3823 38.157 52.4619 38.0946 52.4619 38.0946C52.4619 38.0946 52.9286 38.4064 53.0028 38.4224C53.001 38.6104 52.9462 38.6624 52.9462 38.6624Z" fill="#3C1A18"/>
<path d="M52.6331 39.2726C52.6331 39.2726 51.8474 38.7083 51.8787 38.5768C51.9994 38.4487 52.1107 38.3694 52.1107 38.3694C52.1107 38.3694 52.6517 38.8958 52.7427 38.9302C52.7106 39.2046 52.6331 39.2726 52.6331 39.2726Z" fill="#3C1A18"/>
<path d="M52.4562 39.5351C52.4562 39.5351 51.6436 39.4894 51.6271 39.5995C51.6643 39.6174 51.7374 39.674 51.7374 39.674C51.7374 39.674 52.2041 39.6118 52.3845 39.6284C52.4577 39.5541 52.4562 39.5351 52.4562 39.5351Z" fill="#3C1A18"/>
<path d="M51.2769 39.6005C51.2769 39.6005 51.5055 38.6723 51.4628 38.6221C51.6405 38.6655 51.7196 38.6722 51.7196 38.6722C51.7196 38.6722 51.5611 39.5032 51.5169 39.6111C51.4159 39.5968 51.2769 39.6005 51.2769 39.6005Z" fill="#3C1A18"/>
<path d="M50.8628 39.5798C50.8628 39.5798 51.0882 38.5637 51.0441 38.5083C51.2261 38.5573 51.3071 38.5653 51.3071 38.5653C51.3071 38.5653 51.1524 39.4753 51.1082 39.5931C51.0049 39.5768 50.8628 39.5798 50.8628 39.5798Z" fill="#3C1A18"/>
<path d="M39.8655 42.7363C39.8655 42.7363 41.2127 42.0766 41.3209 41.8806C41.1727 42.1761 40.4712 42.5997 39.9517 42.8095L39.6206 42.8829L39.8655 42.7363Z" fill="#343537"/>
<path d="M30.8296 31.2253L32.1364 32.9895L31.7592 34.389L32.4919 34.4219L35.589 34.1207L36.0043 31.3988C36.0043 31.3988 34.7777 31.6832 34.6018 31.4739C34.4259 31.2645 33.1206 29.8948 33.1206 29.8948L30.8296 31.2253Z" fill="#F8A06E"/>
<path d="M40.0193 35.0157L40.0171 35.0194L40.0198 35.0167L40.0193 35.0157Z" fill="#ACC750"/>
<path d="M45.3906 37.869L45.5635 41.4445C45.5635 41.4445 43.2323 42.3953 40.108 43.8408C39.9883 43.896 39.8722 43.9419 39.7591 43.9796C38.4456 43.6679 37.2597 43.2286 36.8194 42.4664C36.7919 42.4187 36.7676 42.3696 36.7461 42.3193C36.711 42.2367 36.684 42.1513 36.6664 42.0619C36.6631 42.0482 36.6606 42.0338 36.6582 42.0194C36.4414 41.4527 36.2587 40.8741 36.1497 40.5065L36.1491 40.5041C36.0739 40.2502 35.924 40.0225 35.7198 39.8509L31.0275 36.5051C30.9519 36.2628 30.9134 36.1045 30.9051 36.0688L30.9049 36.0683L30.9074 36.0583C31.0118 35.5979 31.2619 34.7383 31.7619 34.1796C32.833 34.0587 33.9563 33.6204 34.453 33.2042C34.5535 33.1194 34.7214 32.9693 34.8032 32.8834C35.361 32.2983 35.8345 31.2797 35.8345 31.2797L37.7745 31.4161L38.0333 33.026C38.0333 33.026 40.4218 33.4266 39.7041 35.1059L39.7013 35.1093C39.663 35.2 39.6151 35.2938 39.5566 35.3916L39.7408 35.663L40.1728 36.377C40.3393 36.6527 40.5431 36.9037 40.778 37.1232C40.8673 37.2071 40.9609 37.2862 41.0589 37.3604L41.8428 37.9551C41.8428 37.9551 43.0155 37.8612 44.3525 37.8373C44.6918 37.8314 45.0445 37.8112 45.3906 37.869Z" fill="#50C1C8"/>
<path d="M35.3458 38.1019C36.0333 38.2814 37.108 37.5917 37.8236 36.7324C38.6314 36.4042 39.4 35.8995 39.7405 35.6628L39.5567 35.3919C39.615 35.2936 39.6628 35.2001 39.7016 35.1091C39.665 35.1783 39.1434 36.1308 37.5857 36.4216C37.5857 36.4216 37.5057 37.2962 35.3458 38.1019Z" fill="#43A0A2"/>
<path d="M45.249 38.0003L45.203 38.3868L44.7446 42.2245C44.7446 42.2245 42.2872 42.7818 38.9649 43.6982C38.8379 43.7331 38.7155 43.7597 38.5978 43.7783C37.0542 44.0243 36.3094 42.9189 35.9502 41.8063C35.9333 41.7536 35.9172 41.7017 35.9024 41.649C35.6289 40.7127 35.616 39.816 35.6156 39.7643L35.6155 39.7618C36.9323 40.4756 40.7437 37.1817 40.7437 37.1817L45.249 38.0003Z" fill="#E4B833"/>
<path d="M55.9289 39.2703C55.9289 39.2703 55.5148 37.1756 50.08 37.4706C44.6453 37.7656 43.3207 37.3646 43.3207 37.3646L40.3294 35.4477L34.8851 42.1617L35.9988 42.9241C37.0633 43.6529 38.3481 44.0666 39.6765 44.1123C43.5008 44.244 51.3645 44.5192 51.4829 44.5591C51.6393 44.6118 56.5459 44.4193 56.5459 44.4193L55.9289 39.2703Z" fill="#E7EDEC"/>
<path d="M56.0035 39.8936L35.7822 42.2343L35.7877 42.2397C36.9687 43.3939 38.6004 44.075 40.3271 44.1348C44.3247 44.273 51.3708 44.5213 51.4828 44.5591C51.6393 44.6118 56.5459 44.4193 56.5459 44.4193L56.0035 39.8936Z" fill="#E7EDEC"/>
<path d="M41.4435 42.0175C41.4435 42.0175 42.2967 42.1656 42.9088 41.9969C43.5211 41.8281 44.8207 41.4991 44.9663 40.7237C44.9663 40.7237 45.274 40.4618 44.8893 40.2606C44.8893 40.2606 45.0277 40.0355 44.8695 39.8128C44.7146 39.5946 43.7961 40.6496 42.784 40.5055C42.7674 40.5031 42.7529 40.4929 42.745 40.4782C42.7372 40.4635 42.737 40.4459 42.7445 40.4309C42.7797 40.3604 42.8602 40.2431 43.0344 40.1396C43.3049 39.979 43.3622 39.9664 43.3439 39.8777C43.2982 39.6558 43.1487 39.5932 42.6324 39.8572C42.1161 40.1212 41.962 40.2132 41.8102 40.4305C41.6585 40.6477 41.5159 40.7911 41.2683 40.8925L41.4435 42.0175Z" fill="#FBC290"/>
<path d="M43.2308 41.0931C43.2308 41.0931 44.537 40.6802 44.8893 40.2611L45.0019 40.3378C45.0019 40.3378 44.5049 40.9541 43.2308 41.0931Z" fill="#F9AC7B"/>
<path d="M44.9662 40.7242C44.9662 40.7242 44.3272 41.2536 43.3243 41.4198C43.3243 41.4198 44.2968 41.3837 44.9097 40.9007L44.9662 40.7242Z" fill="#F9AC7B"/>
<path d="M40.6653 42.2736L41.4677 42.1455C41.5405 42.1338 41.5904 42.0664 41.5796 41.9942L41.4182 40.915C41.4122 40.8752 41.39 40.8395 41.3567 40.8164C41.3234 40.7934 41.2821 40.7849 41.2422 40.7929L40.3954 40.9639L40.6653 42.2736Z" fill="#50C1C8"/>
<path d="M40.712 42.196L41.336 42.0913C41.3926 42.0817 41.4332 42.0379 41.4271 41.993L41.336 41.3208C41.3326 41.2961 41.3165 41.2744 41.2915 41.261C41.2665 41.2475 41.2348 41.2434 41.2038 41.2496L40.5443 41.3827L40.712 42.196Z" fill="#50C1C8"/>
<path d="M40.5316 40.6869L40.5742 40.9279L40.6505 41.3606L40.7952 42.1819L40.8076 42.2509L40.8235 42.3413C40.8235 42.3413 39.0682 42.7985 36.6664 42.0619C35.9155 41.8316 35.101 41.4848 34.2577 40.971C32.2299 39.7351 31.3297 37.4624 31.0275 36.5051C30.952 36.2628 30.9135 36.1045 30.9051 36.0688L30.905 36.0683C30.9041 36.0634 30.9034 36.0609 30.9034 36.0609L30.9074 36.0583C30.9644 36.0192 31.6497 35.5571 32.152 35.553L32.153 35.5527C33.0264 35.5453 33.8201 36.055 34.1693 36.8474C34.8198 38.3244 36.5379 40.9164 40.5316 40.6869Z" fill="#5FCACE"/>
<path d="M25.3126 27.9623C25.5563 28.4057 25.7713 28.7698 25.9011 28.984C26.4353 29.8585 26.0667 29.0588 28.4541 31.1068C28.4783 31.1274 28.5013 31.1457 28.5255 31.1664C28.5373 31.1761 28.5484 31.1845 28.5608 31.1955C28.7529 31.3427 29.1304 31.5478 29.5379 31.7545L29.5424 31.7569C29.8622 31.8918 30.203 32.0092 30.5634 32.0968C31.7498 32.3899 33.1338 32.3689 34.5752 31.5992C35.678 30.897 36.064 29.309 36.1396 28.0362C36.1738 27.4586 36.1459 26.9479 36.0924 26.6126C36.0193 26.1438 35.5143 25.204 34.9354 24.2446C34.4266 23.4046 33.863 22.5474 33.4816 21.9823C33.254 21.6426 33.0917 21.4105 33.0495 21.3481C33.0434 21.337 33.0388 21.3314 33.0388 21.3314C32.7665 20.8713 32.8209 20.7781 32.1934 20.0321C31.1578 18.8026 28.1876 20.6595 28.1876 20.6595C28.1876 20.6595 24.2537 22.8654 23.8471 23.796C23.5599 24.453 24.4375 26.336 25.1662 27.6913C25.2163 27.7831 25.2645 27.8743 25.3126 27.9623Z" fill="#FBC290"/>
<path d="M25.3125 27.9623C25.5561 28.4057 25.7712 28.7698 25.9011 28.984C26.4352 29.8584 26.0666 29.0588 28.454 31.1068C28.4783 31.1274 28.5012 31.1457 28.5254 31.1664C28.5372 31.1761 28.5483 31.1845 28.5608 31.1955C28.7528 31.3427 29.1303 31.5478 29.5378 31.7545L29.5423 31.7569C29.8621 31.8918 30.203 32.0092 30.5633 32.0968C28.7686 30.5266 26.4495 27.8299 25.7744 26.1992C25.1283 24.6394 25.6017 22.8973 25.9117 22.0535C24.9653 22.6833 24.0416 23.3843 23.8606 23.8208C23.5915 24.4665 24.4286 26.2991 25.1661 27.6913C25.2162 27.7831 25.2644 27.8743 25.3125 27.9623Z" fill="#F9AC7B"/>
<path d="M33.3816 28.5039C33.3816 28.5039 33.9803 27.7848 33.7114 27.3765C33.4424 26.9683 32.1862 25.9969 31.9756 25.6366C31.765 25.2762 32.0213 24.3406 32.669 23.7954C33.3167 23.2502 34.1397 23.2041 34.4305 23.8342C34.7213 24.4644 33.9358 24.8953 33.4369 25.1845C32.938 25.4738 32.8325 25.5479 33.2665 25.9197C33.7006 26.2915 35.1784 27.3093 33.3816 28.5039Z" fill="#F9AC7B"/>
<path d="M29.3456 25.3462C29.3456 25.3462 30.1937 25.169 30.6359 25.9977C31.0781 26.8265 30.0597 26.9021 29.5472 27.2424C29.0349 27.5827 28.3886 28.0024 28.0915 27.7032C27.7943 27.4039 27.3734 26.7333 28.034 26.1116C28.6947 25.4898 29.0259 25.3556 29.3456 25.3462Z" fill="#F9AC7B"/>
<path d="M31.9042 25.41C31.9042 25.41 32.1149 25.8279 32.4943 26.0709C32.8737 26.3138 34.0608 27.0924 33.965 27.5514C33.8258 28.2181 33.3613 28.4667 33.3613 28.4667C33.3613 28.4667 33.8656 27.7517 33.5048 27.3359C33.144 26.9201 31.9624 25.9654 31.9042 25.41Z" fill="#ED7B61"/>
<path d="M28.6568 25.4292C29.2296 25.1203 29.805 25.0671 30.1303 25.2094C30.4557 25.3516 30.1368 25.5435 29.6568 25.5579C29.1768 25.5723 28.6889 25.7634 28.3248 26.2556C27.9607 26.7479 27.6861 26.9057 27.4755 26.8249C27.4755 26.8249 27.5562 26.0229 28.6568 25.4292Z" fill="#784C30"/>
<path d="M34.107 23.4855C34.107 23.4855 33.5482 23.3428 33.0887 23.6565C32.6291 23.9702 32.2556 24.4709 32.0399 24.445C31.8242 24.419 32.1541 23.5261 33.2022 23.2C34.2349 22.8786 34.2441 23.2894 34.107 23.4855Z" fill="#784C30"/>
<path d="M27.3622 22.0592C27.3622 22.0592 28.706 23.3669 30.7587 22.9004C32.8113 22.4338 33.2902 21.5576 34.373 23.4332L35.4136 25.0287C35.4136 25.0287 35.5186 24.425 35.6014 23.6327C35.6843 22.8405 35.9364 22.2682 34.9445 21.1709C34.9445 21.1709 35.1803 21.2543 35.3509 21.5442C35.2482 20.6257 35.2994 18.0894 33.504 17.5437C31.7086 16.9975 30.5659 17.5602 30.5659 17.5602C30.5659 17.5602 32.205 17.4121 32.5183 16.6371C30.863 16.8424 27.1513 16.1196 24.6024 19.8523C22.3147 20.8942 21.0809 22.7086 21.6188 24.413C22.4575 27.0708 23.8536 27.6518 23.8536 27.6518C23.8536 27.6518 24.8217 27.3345 25.4074 27.9688C25.9931 28.6031 26.1329 28.6991 26.1329 28.6991C26.1329 28.6991 25.2089 27.3515 25.5338 26.7528C25.8586 26.154 26.6986 23.3719 26.1898 22.3076C25.6811 21.2434 27.8939 24.3238 29.3053 23.4472C27.6929 23.1298 27.3622 22.0592 27.3622 22.0592Z" fill="#583A25"/>
<path d="M26.1809 28.5745C26.1809 28.5745 25.6559 27.943 25.1405 27.5688C24.6251 27.1946 24.248 27.2799 23.8785 27.596C23.5091 27.9121 23.932 28.719 24.625 29.2038C25.318 29.6885 25.4957 31.1703 26.4039 30.9973C27.312 30.8242 26.9917 29.8332 26.1809 28.5745Z" fill="#F9AC7B"/>
<path d="M26.1914 29.6179C26.1914 29.6179 25.7326 28.355 25.2991 28.541C24.8657 28.727 25.0239 29.0609 25.4918 29.1608C25.4918 29.1608 25.1266 28.7249 25.3739 28.6778C25.6211 28.6305 26.1914 29.6179 26.1914 29.6179Z" fill="#ED7B61"/>
<path d="M33.9663 24.368C34.0655 24.5317 33.7309 25.0741 33.3826 25.1597C33.0343 25.2453 32.7657 25.2424 32.7657 25.2424L32.8469 25.3272C32.8469 25.3272 33.7517 25.7086 34.2025 24.5443C34.332 24.4495 34.4456 24.4022 34.4456 24.4022C34.4456 24.4022 33.9406 24.3299 33.9663 24.368Z" fill="#554442"/>
<path d="M29.7875 27.0984C29.5136 27.4085 28.7544 27.3918 28.6611 27.2214C28.6408 27.1791 28.4227 27.7146 28.4227 27.7146C28.4227 27.7146 28.5296 27.6219 28.6888 27.5341C30.1967 27.7838 30.2745 26.585 30.2745 26.585L30.206 26.4983C30.206 26.4983 30.0613 26.7883 29.7875 27.0984Z" fill="#554442"/>
<path d="M32.7191 30.0557C32.7191 30.0557 32.8251 29.54 33.4521 29.1603C34.0791 28.7806 34.5479 28.9289 34.6351 29.2106C34.0803 29.1635 33.3558 29.4693 32.7191 30.0557Z" fill="#F9AC7B"/>
<path d="M34.358 29.7749C34.358 29.7749 33.8187 29.5018 33.4675 30.0862C33.4675 30.0862 33.882 29.7719 34.358 29.7749Z" fill="#ED7B61"/>
<path d="M34.5644 28.6457L34.7028 29.3855C34.7037 29.3901 34.7013 29.3944 34.6972 29.3956L34.6866 29.3901L34.5786 29.1457C34.5543 29.0907 34.5045 29.0517 34.4489 29.044C33.4993 28.9119 32.6865 30.1008 32.6865 30.1008C32.7129 29.2552 33.9101 28.7357 34.334 28.7742C34.3697 28.7774 34.4438 28.7414 34.4634 28.7112L34.515 28.6319C34.521 28.6225 34.5321 28.6184 34.5429 28.6214C34.5537 28.6244 34.5622 28.634 34.5644 28.6457Z" fill="#F57770"/>
<path d="M35.7866 30.1953L35.7104 30.114C35.8247 29.8285 35.9127 29.5274 35.979 29.2242L35.9766 29.6584L35.7866 30.1953Z" fill="#E8E8E5"/>
<path d="M35.1715 31.0599C35.3951 30.7838 35.5721 30.4606 35.7105 30.1146L35.7867 30.1959L35.591 30.7491L35.1715 31.0599Z" fill="#E8E8E5"/>
<path d="M34.2285 31.759L33.5832 31.6627L32.1205 30.3052L31.6935 28.7151L33.6347 27.7256C33.6342 27.7474 33.6327 27.7692 33.6306 27.791L33.1294 28.0403C33.1445 28.0561 33.2678 28.2028 33.4161 28.3802C33.3839 28.4346 33.3613 28.4667 33.3613 28.4667C33.3613 28.4667 33.3932 28.4496 33.4429 28.4123C33.4445 28.4142 33.4461 28.4161 33.4477 28.418C33.4083 28.4721 33.3817 28.504 33.3817 28.504C33.4119 28.484 33.4411 28.464 33.4694 28.444C33.5933 28.5923 33.727 28.7529 33.8266 28.8725C33.3216 29.0592 32.7054 29.4969 32.6865 30.1009C32.6865 30.1009 32.6977 30.0845 32.7191 30.0557C33.1793 29.6317 33.6852 29.3543 34.1398 29.2508L34.9891 30.2814L34.8998 30.8674L35.4461 30.6585L35.8016 29.5439L35.5356 28.6633L34.1492 27.7242C34.1755 27.6704 34.1962 27.6174 34.2119 27.5651L35.9824 28.6605L35.9791 29.2235C35.9127 29.527 35.8248 29.8283 35.7105 30.114C35.5721 30.4603 35.3951 30.7837 35.1715 31.06L34.2285 31.759ZM34.0625 29.7109C33.8808 29.7109 33.6491 29.7839 33.4676 30.0862C33.4676 30.0862 33.8781 29.7747 34.3513 29.7747C34.3535 29.7747 34.3558 29.7747 34.3581 29.7747C34.3581 29.7747 34.2321 29.7109 34.0625 29.7109Z" fill="#F5D7BC"/>
<path d="M33.3816 28.5039C33.3816 28.5039 33.4082 28.4721 33.4476 28.4179C33.4548 28.4266 33.462 28.4352 33.4693 28.444C33.441 28.4639 33.4118 28.4839 33.3816 28.5039ZM34.1491 27.7246L33.9863 27.6144L33.9454 27.6347C33.9519 27.6099 33.958 27.5845 33.9635 27.5584L34.0933 27.4923L34.2118 27.5656C34.1962 27.6179 34.1754 27.6709 34.1491 27.7246Z" fill="#F6CDAF"/>
<path d="M33.3613 28.4667C33.3613 28.4667 33.3839 28.4347 33.4161 28.3802C33.425 28.3908 33.4339 28.4016 33.443 28.4123C33.3933 28.4496 33.3613 28.4667 33.3613 28.4667ZM33.6306 27.7914C33.6328 27.7697 33.6342 27.7479 33.6347 27.7261L33.9636 27.5585C33.9581 27.5846 33.952 27.61 33.9455 27.6348L33.6306 27.7914Z" fill="#ECAFA1"/>
<path d="M32.7191 30.0557C32.8496 29.88 33.3583 29.2436 33.9948 29.0754L34.1398 29.2513C33.6852 29.3547 33.1793 29.6319 32.7191 30.0557Z" fill="#F6CDAF"/>
<path d="M33.4675 30.0862C33.6491 29.7841 33.8808 29.7112 34.0624 29.7112C34.2321 29.7112 34.358 29.7749 34.358 29.7749C34.3557 29.7749 34.3535 29.7749 34.3512 29.7749C33.8781 29.7749 33.4675 30.0862 33.4675 30.0862Z" fill="#ECAFA1"/>
<path d="M32.6865 30.1008C32.7054 29.4969 33.3216 29.0592 33.8266 28.8725C33.9176 28.9818 33.9801 29.0569 33.9801 29.0569L33.9948 29.0748C33.3583 29.2431 32.8495 29.8799 32.7191 30.0557C32.6977 30.0844 32.6865 30.1008 32.6865 30.1008Z" fill="#F8AEA8"/>
<path d="M34.8998 30.8673L34.989 30.2813L34.1398 29.2507C34.272 29.2206 34.3999 29.2052 34.521 29.2052C34.5498 29.2052 34.5781 29.2061 34.6061 29.2079L34.6866 29.3901L34.6972 29.3955C34.7013 29.3944 34.7037 29.3901 34.7028 29.3855L34.5644 28.6456C34.5622 28.634 34.5537 28.6244 34.5429 28.6214C34.5405 28.6207 34.5381 28.6204 34.5358 28.6204C34.5275 28.6204 34.5197 28.6246 34.515 28.6318L34.4634 28.7112C34.4446 28.7401 34.3759 28.7744 34.3387 28.7744C34.337 28.7744 34.3355 28.7743 34.3339 28.7742C34.3192 28.7728 34.3036 28.7721 34.287 28.7721C34.1678 28.7721 34.004 28.8068 33.8266 28.8724C33.727 28.7528 33.5933 28.5922 33.4694 28.444C33.8238 28.1944 34.0371 27.953 34.1492 27.7241L35.5356 28.6632L35.8016 29.5438L35.4461 30.6584L34.8998 30.8673ZM33.4476 28.4179C33.4461 28.416 33.4445 28.4141 33.4429 28.4122C33.4492 28.4075 33.4558 28.4024 33.4626 28.397C33.4575 28.4043 33.4525 28.4113 33.4476 28.4179ZM33.4161 28.3801C33.2678 28.2028 33.1445 28.056 33.1294 28.0403L33.6305 27.7909C33.6065 28.0276 33.4876 28.2592 33.4161 28.3801Z" fill="#F2E4D4"/>
<path d="M33.4694 28.444C33.4621 28.4352 33.4549 28.4266 33.4476 28.4179C33.4524 28.4113 33.4575 28.4043 33.4626 28.3971C33.5987 28.2901 33.836 28.0523 33.9455 27.6347L33.9863 27.6144L34.1492 27.7246C34.0371 27.9533 33.8238 28.1946 33.4694 28.444Z" fill="#F3DFCE"/>
<path d="M33.443 28.4122C33.4339 28.4014 33.425 28.3907 33.4161 28.3801C33.4876 28.2593 33.6065 28.0279 33.6306 27.7913L33.9455 27.6347C33.836 28.0523 33.5988 28.2901 33.4627 28.397C33.4558 28.4025 33.4492 28.4075 33.443 28.4122Z" fill="#EECEC6"/>
<path d="M34.1398 29.2507L33.9948 29.0749C34.0938 29.0487 34.1959 29.0339 34.3002 29.0339C34.3493 29.0339 34.3989 29.0372 34.4488 29.0441C34.5045 29.0518 34.5543 29.0908 34.5786 29.1458L34.6061 29.2079C34.5781 29.2061 34.5497 29.2053 34.521 29.2053C34.3999 29.2053 34.272 29.2206 34.1398 29.2507Z" fill="#F3DFCE"/>
<path d="M34.6971 29.3955L34.6866 29.39L34.6061 29.2079L34.5786 29.1458C34.5542 29.0909 34.5045 29.0519 34.4488 29.0442C34.3989 29.0372 34.3493 29.0339 34.3002 29.0339C34.1959 29.0339 34.0938 29.0487 33.9947 29.0749L33.98 29.0571C33.98 29.0571 33.9176 28.9821 33.8265 28.8728C34.004 28.8071 34.1677 28.7725 34.287 28.7725C34.3035 28.7725 34.3192 28.7732 34.3339 28.7745C34.3354 28.7747 34.337 28.7747 34.3387 28.7747C34.3759 28.7747 34.4446 28.7405 34.4634 28.7116L34.5149 28.6323C34.5197 28.625 34.5275 28.6209 34.5358 28.6209C34.5381 28.6209 34.5405 28.6212 34.5429 28.6219C34.5537 28.6249 34.5622 28.6345 34.5644 28.6461L34.7028 29.3855C34.7037 29.3901 34.7012 29.3944 34.6971 29.3955Z" fill="#F3CDCA"/>
<path d="M31.9422 29.3888L25.4716 27.8394L25.8671 28.2257L31.9923 29.6353C31.9923 29.6353 32.1455 29.4172 31.9422 29.3888Z" fill="#DFE0DC"/>
<path d="M33.353 31.4047L26.8439 29.8388L27.2907 30.1957L33.5832 31.6627C33.5832 31.6627 33.5606 31.4094 33.353 31.4047Z" fill="#DFE0DC"/>
<path d="M34.9835 24.394L34.3911 27.6961C34.3857 27.7265 34.4004 27.7568 34.4277 27.7716L34.4763 27.7979C34.4963 27.8087 34.5203 27.8095 34.541 27.8002C34.5618 27.7908 34.5768 27.7723 34.5817 27.7503L35.2679 24.7729L34.9835 24.394Z" fill="#DFE0DC"/>
<path d="M35.9829 29.6162L36.1682 28.2127L36.1497 27.2587L35.9357 29.0954L35.9829 29.6162Z" fill="#DFE0DC"/>
<path d="M42.6452 46.279L54.9769 46.634L54.3829 43.8015C54.2175 43.0127 53.635 42.4232 52.9336 42.3345L42.9689 41.0748C42.8864 41.0643 42.8038 41.095 42.7422 41.1584C42.6806 41.222 42.6452 41.313 42.6452 41.4083V46.279ZM55.3653 47.8937C55.3588 47.8937 55.3523 47.8936 55.3458 47.8934L42.3216 47.5185C41.8942 47.5062 41.5594 47.1116 41.5594 46.6199V41.4083C41.5594 40.9587 41.7264 40.5287 42.0177 40.2287C42.2707 39.9679 42.5972 39.8244 42.937 39.8244C42.9871 39.8244 43.0377 39.8275 43.0876 39.8339L53.0523 41.0936C54.2071 41.2396 55.166 42.2102 55.4384 43.5089L56.1253 46.7841C56.1819 47.0538 56.1251 47.3438 55.9734 47.5597C55.8243 47.7719 55.6026 47.8937 55.3653 47.8937Z" fill="#DFE0DC"/>
<path d="M45.7408 46.9202H44.9264V40.7458H45.7408V46.9202Z" fill="#DFE0DC"/>
<path d="M50.2146 46.9202H49.4003V40.7458H50.2146V46.9202Z" fill="#DFE0DC"/>
<path d="M55.0328 44.795L45.3147 44.2755L45.3525 43.3402L55.0706 43.8598L55.0328 44.795Z" fill="#DFE0DC"/>
<path d="M24.0797 38.5164L32.9567 46.4042L34.1994 44.0779C34.5455 43.43 34.4661 42.6615 34.0018 42.1654L27.406 35.119C27.3514 35.0607 27.2723 35.0307 27.1893 35.0364C27.1062 35.0421 27.0261 35.0831 26.9695 35.1489L24.0797 38.5164ZM32.4955 47.5158C32.4907 47.5118 32.486 47.5077 32.4813 47.5035L23.1059 39.1728C22.7982 38.8994 22.7857 38.4191 23.0773 38.0792L26.1695 34.4761C26.4362 34.1652 26.8144 33.9715 27.207 33.9445C27.5481 33.9211 27.8739 34.0241 28.1243 34.2347C28.1612 34.2658 28.1967 34.2994 28.2296 34.3347L34.8255 41.381C35.5899 42.1977 35.7207 43.4631 35.1509 44.5296L33.7139 47.2197C33.5955 47.4413 33.3817 47.6066 33.1418 47.6618C32.9059 47.7161 32.6704 47.6629 32.4955 47.5158Z" fill="#DFE0DC"/>
<path d="M25.9806 40.8781L25.3805 40.3734L29.0438 36.1046L29.6439 36.6093L25.9806 40.8781Z" fill="#DFE0DC"/>
<path d="M29.2774 43.6506L28.6774 43.146L32.3407 38.8772L32.9407 39.3819L29.2774 43.6506Z" fill="#DFE0DC"/>
<path d="M34.0889 45.1674L27.2357 38.7855L27.8185 38.1623L34.6717 44.5442L34.0889 45.1674Z" fill="#DFE0DC"/>
</g>
<g filter="url(#filter0_d_177_2)">
<path d="M21.2347 10.9621L19.3417 8.865C28.8757 2.39822 33.6118 3.20551 42.3966 6.51009C42.5826 6.58005 42.9149 6.90174 42.7346 7.16946C42.5543 7.43717 42.3966 7.63797 42.3966 7.63797L41.8332 8.55266C32.6148 4.98175 28.0625 5.34672 21.2347 10.9621Z" fill="url(#paint0_angular_177_2)" shape-rendering="crispEdges"/>
<path d="M50.7126 18.0566C48.1141 13.4913 46.2686 11.3134 41.8332 8.55266L42.3966 7.63797C46.7044 10.3736 48.8556 12.7754 52.3883 18.0566C51.8824 18.4725 51.517 18.4692 50.7126 18.0566Z" fill="white" fill-opacity="0.2" shape-rendering="crispEdges"/>
<path d="M53.0564 18.8597C52.368 19.4679 51.0281 19.1706 50.8929 19.0367C50.7577 18.9029 50.7085 18.752 50.7126 18.6798V18.0566C51.517 18.4692 51.8824 18.4725 52.3883 18.0566L53.0564 18.8597Z" fill="white" fill-opacity="0.2" shape-rendering="crispEdges"/>
<path fill-rule="evenodd" clip-rule="evenodd" d="M7.89312 55.8939L9.33546 55.0015L18.6205 39.0277V38.4923C19.4503 38.6292 20.1586 38.1052 20.3333 37.2732C20.3551 37.1694 20.3686 37.0607 20.373 36.948L20.6038 35.0566C20.3376 34.604 20.0813 34.2503 19.8155 33.9857C18.9172 33.0913 17.911 33.2162 16.0514 33.9857L14.4962 36.4398L6.94658 48.3532L6.00005 55.0015L7.89312 55.8939Z" fill="#C2D0CD" shape-rendering="crispEdges"/>
<path d="M16.0514 33.9857C15.0186 26.9311 15.6006 21.4045 16.4119 18.8597C17.2232 16.315 19.0712 16.2257 19.9727 18.8597C20.8741 21.4938 21.7373 27.7537 19.8155 33.9857C18.9172 33.0913 17.911 33.2162 16.0514 33.9857Z" fill="#C2D0CD" shape-rendering="crispEdges"/>
<path d="M19.6572 13.3716C23.104 22.0071 23.7512 27.1308 20.3333 37.2732C20.3551 37.1694 20.3686 37.0607 20.373 36.948L20.6038 35.0566C20.3376 34.604 20.0813 34.2503 19.8155 33.9857C21.7373 27.7537 20.8741 21.4938 19.9727 18.8597C19.0712 16.2257 17.2232 16.315 16.4119 18.8597C15.6006 21.4045 15.0186 26.9311 16.0514 33.9857L14.4962 36.4398C12.7325 29.8282 13.4584 21.4448 14.7692 16.8073C15.3676 14.9394 15.1832 14.0441 16.5472 13.3716C17.9111 12.699 18.6097 12.999 18.9531 13.0953C19.2966 13.1916 19.355 13.2819 19.6572 13.3716Z" fill="#C2D0CD" shape-rendering="crispEdges"/>
<path d="M16.5472 13.3716C15.1832 14.0441 15.3676 14.9394 14.7692 16.8073C14.8225 16.6232 14.3836 16.0026 14.2934 15.7795C14.2033 15.5564 14.2484 14.9318 14.3385 14.7087C15.4247 12.0206 16.715 11.1513 19.3417 8.865L21.2347 10.9621C19.8308 12.2143 19.561 12.712 19.6572 13.3716C19.355 13.2819 19.2966 13.1916 18.9531 13.0953C18.6097 12.999 17.9111 12.699 16.5472 13.3716Z" fill="#C2D0CD" shape-rendering="crispEdges"/>
<path d="M6.45078 55.0015L7.89312 55.8939M6.45078 55.0015L17.4486 37.5999M6.45078 55.0015H6.00005M7.89312 55.8939L9.33546 55.0015L18.6205 39.0277V38.4923M7.89312 55.8939L6.00005 55.0015M18.6205 38.4923L17.4486 37.5999M18.6205 38.4923V38.0461L17.8543 35.592M18.6205 38.4923C19.4503 38.6292 20.1586 38.1052 20.3333 37.2732M17.4486 37.5999L16.5472 33.9857M17.8543 35.592L16.5472 33.9857M17.8543 35.592C19.0522 35.2029 19.6224 35.3026 20.3333 36.4398C20.3668 36.6163 20.3793 36.7864 20.373 36.948M16.5472 33.9857H16.0514M16.0514 33.9857L14.4962 36.4398M16.0514 33.9857C15.0186 26.9311 15.6006 21.4045 16.4119 18.8597C17.2232 16.315 19.0712 16.2257 19.9727 18.8597C20.8741 21.4938 21.7373 27.7537 19.8155 33.9857M16.0514 33.9857C17.911 33.2162 18.9172 33.0913 19.8155 33.9857M6.00005 55.0015L6.94658 48.3532L14.4962 36.4398M20.3333 37.2732C23.7512 27.1308 23.104 22.0071 19.6572 13.3716M20.3333 37.2732C20.3551 37.1694 20.3686 37.0607 20.373 36.948M20.3333 37.2732L20.373 36.948M19.6572 13.3716C19.561 12.712 19.8308 12.2143 21.2347 10.9621M19.6572 13.3716C19.355 13.2819 19.2966 13.1916 18.9531 13.0953C18.6097 12.999 17.9111 12.699 16.5472 13.3716C15.1832 14.0441 15.3676 14.9394 14.7692 16.8073M14.4962 36.4398C12.7325 29.8282 13.4584 21.4448 14.7692 16.8073M14.7692 16.8073C14.8225 16.6232 14.3836 16.0026 14.2934 15.7795C14.2033 15.5564 14.2484 14.9318 14.3385 14.7087C15.4247 12.0206 16.715 11.1513 19.3417 8.865M19.3417 8.865L21.2347 10.9621M19.3417 8.865C28.8757 2.39822 33.6118 3.20551 42.3966 6.51009C42.5826 6.58005 42.9149 6.90174 42.7346 7.16946C42.5543 7.43717 42.3966 7.63797 42.3966 7.63797M21.2347 10.9621C28.0625 5.34672 32.6148 4.98175 41.8332 8.55266M41.8332 8.55266C46.2686 11.3134 48.1141 13.4913 50.7126 18.0566M41.8332 8.55266L42.3966 7.63797M50.7126 18.0566V18.6798C50.7085 18.752 50.7577 18.9029 50.8929 19.0367C51.0281 19.1706 52.368 19.4679 53.0564 18.8597L52.3883 18.0566M50.7126 18.0566C51.517 18.4692 51.8824 18.4725 52.3883 18.0566M52.3883 18.0566C48.8556 12.7754 46.7044 10.3736 42.3966 7.63797M20.373 36.948L20.6038 35.0566C20.3376 34.604 20.0813 34.2503 19.8155 33.9857" stroke="black" stroke-width="0.1" shape-rendering="crispEdges"/>
</g>
<path d="M150.95 53.6C148.783 53.6 146.816 53.05 145.05 51.95C143.283 50.85 141.866 49.3 140.8 47.3C139.766 45.2667 139.25 42.8833 139.25 40.15C139.25 37.55 139.766 35.2167 140.8 33.15C141.866 31.0833 143.316 29.45 145.15 28.25C147.016 27.0167 149.15 26.4 151.55 26.4C153.05 26.4 154.4 26.6667 155.6 27.2C156.833 27.7 157.9 28.3333 158.8 29.1V27H162.9V46.7C162.9 47.9667 163.2 48.8 163.8 49.2C164.433 49.5667 165.116 49.75 165.85 49.75L164.9 53.25C161.7 53.25 159.766 51.95 159.1 49.35C158.333 50.4167 157.283 51.4 155.95 52.3C154.65 53.1667 152.983 53.6 150.95 53.6ZM151.95 49.6C153.216 49.6 154.416 49.3 155.55 48.7C156.683 48.0667 157.633 47.2833 158.4 46.35V32.4C157.5 31.7667 156.5 31.2667 155.4 30.9C154.333 30.5 153.2 30.3 152 30.3C150.4 30.3 148.983 30.7167 147.75 31.55C146.55 32.35 145.6 33.4833 144.9 34.95C144.2 36.3833 143.85 38.0667 143.85 40C143.85 41.8667 144.2 43.5333 144.9 45C145.6 46.4333 146.566 47.5667 147.8 48.4C149.033 49.2 150.416 49.6 151.95 49.6ZM172.077 64V33.65C172.077 32.5167 171.793 31.7167 171.227 31.25C170.693 30.75 169.993 30.5 169.127 30.5L170.077 27C173.143 27 175.06 28.2167 175.827 30.65C176.16 30.15 176.693 29.5667 177.427 28.9C178.193 28.2333 179.127 27.65 180.227 27.15C181.36 26.65 182.643 26.4 184.077 26.4C186.077 26.4 187.943 26.9333 189.677 28C191.443 29.0333 192.86 30.55 193.927 32.55C194.993 34.5167 195.527 36.9167 195.527 39.75C195.527 42.5167 194.993 44.95 193.927 47.05C192.86 49.1167 191.46 50.7333 189.727 51.9C188.027 53.0333 186.177 53.6 184.177 53.6C182.643 53.6 181.21 53.3 179.877 52.7C178.543 52.0667 177.443 51.35 176.577 50.55V64H172.077ZM183.277 49.6C185.543 49.6 187.377 48.7167 188.777 46.95C190.21 45.15 190.927 42.8 190.927 39.9C190.927 37.9 190.56 36.1833 189.827 34.75C189.127 33.3167 188.177 32.2167 186.977 31.45C185.81 30.6833 184.51 30.3 183.077 30.3C181.643 30.3 180.343 30.6667 179.177 31.4C178.043 32.1 177.177 32.8667 176.577 33.7V46.5C177.443 47.4 178.443 48.15 179.577 48.75C180.71 49.3167 181.943 49.6 183.277 49.6ZM201.764 64V33.65C201.764 32.5167 201.481 31.7167 200.914 31.25C200.381 30.75 199.681 30.5 198.814 30.5L199.764 27C202.831 27 204.747 28.2167 205.514 30.65C205.847 30.15 206.381 29.5667 207.114 28.9C207.881 28.2333 208.814 27.65 209.914 27.15C211.047 26.65 212.331 26.4 213.764 26.4C215.764 26.4 217.631 26.9333 219.364 28C221.131 29.0333 222.547 30.55 223.614 32.55C224.681 34.5167 225.214 36.9167 225.214 39.75C225.214 42.5167 224.681 44.95 223.614 47.05C222.547 49.1167 221.147 50.7333 219.414 51.9C217.714 53.0333 215.864 53.6 213.864 53.6C212.331 53.6 210.897 53.3 209.564 52.7C208.231 52.0667 207.131 51.35 206.264 50.55V64H201.764ZM212.964 49.6C215.231 49.6 217.064 48.7167 218.464 46.95C219.897 45.15 220.614 42.8 220.614 39.9C220.614 37.9 220.247 36.1833 219.514 34.75C218.814 33.3167 217.864 32.2167 216.664 31.45C215.497 30.6833 214.197 30.3 212.764 30.3C211.331 30.3 210.031 30.6667 208.864 31.4C207.731 32.1 206.864 32.8667 206.264 33.7V46.5C207.131 47.4 208.131 48.15 209.264 48.75C210.397 49.3167 211.631 49.6 212.964 49.6Z" fill="#01584B"/>
<path d="M145.05 51.95L145.578 51.1011L145.578 51.1011L145.05 51.95ZM140.8 47.3L139.908 47.753L139.913 47.7619L139.917 47.7706L140.8 47.3ZM140.8 33.15L139.911 32.6913L139.905 32.7028L140.8 33.15ZM145.15 28.25L145.697 29.0867L145.701 29.0843L145.15 28.25ZM155.6 27.2L155.193 28.1138L155.209 28.1205L155.224 28.1267L155.6 27.2ZM158.8 29.1L158.151 29.8612L159.8 31.2655V29.1H158.8ZM158.8 27V26H157.8V27H158.8ZM162.9 27H163.9V26H162.9V27ZM163.8 49.2L163.245 50.0321L163.271 50.0496L163.299 50.0654L163.8 49.2ZM165.85 49.75L166.815 50.012L167.157 48.75H165.85V49.75ZM164.9 53.25V54.25H165.664L165.865 53.512L164.9 53.25ZM159.1 49.35L160.068 49.1016L159.537 47.0285L158.288 48.7664L159.1 49.35ZM155.95 52.3L156.504 53.1321L156.509 53.1288L155.95 52.3ZM155.55 48.7L156.018 49.5838L156.028 49.5785L156.037 49.5729L155.55 48.7ZM158.4 46.35L159.172 46.9847L159.4 46.7081V46.35H158.4ZM158.4 32.4H159.4V31.8809L158.975 31.5822L158.4 32.4ZM155.4 30.9L155.049 31.8363L155.066 31.8428L155.083 31.8487L155.4 30.9ZM147.75 31.55L148.304 32.3821L148.309 32.3786L147.75 31.55ZM144.9 34.95L145.798 35.3889L145.802 35.3807L144.9 34.95ZM144.9 45L143.997 45.4307L144.001 45.4388L144.9 45ZM147.8 48.4L147.24 49.2286L147.248 49.2338L147.255 49.239L147.8 48.4ZM150.95 52.6C148.962 52.6 147.18 52.0982 145.578 51.1011L144.521 52.7989C146.453 54.0018 148.604 54.6 150.95 54.6V52.6ZM145.578 51.1011C143.974 50.1021 142.674 48.6887 141.682 46.8294L139.917 47.7706C141.059 49.9113 142.592 51.5979 144.521 52.7989L145.578 51.1011ZM141.691 46.8469C140.742 44.9792 140.25 42.7568 140.25 40.15H138.25C138.25 43.0098 138.791 45.5541 139.908 47.753L141.691 46.8469ZM140.25 40.15C140.25 37.6856 140.738 35.5085 141.694 33.5972L139.905 32.7028C138.794 34.9249 138.25 37.4144 138.25 40.15H140.25ZM141.688 33.6086C142.681 31.6855 144.017 30.1864 145.697 29.0867L144.602 27.4133C142.615 28.7136 141.052 30.4811 139.911 32.6914L141.688 33.6086ZM145.701 29.0843C147.392 27.967 149.331 27.4 151.55 27.4V25.4C148.969 25.4 146.641 26.0663 144.598 27.4157L145.701 29.0843ZM151.55 27.4C152.93 27.4 154.138 27.6448 155.193 28.1138L156.006 26.2862C154.661 25.6885 153.17 25.4 151.55 25.4V27.4ZM155.224 28.1267C156.37 28.5915 157.342 29.1721 158.151 29.8612L159.448 28.3388C158.457 27.4946 157.296 26.8085 155.975 26.2733L155.224 28.1267ZM159.8 29.1V27H157.8V29.1H159.8ZM158.8 28H162.9V26H158.8V28ZM161.9 27V46.7H163.9V27H161.9ZM161.9 46.7C161.9 48.0513 162.209 49.3413 163.245 50.0321L164.354 48.3679C164.19 48.2587 163.9 47.8821 163.9 46.7H161.9ZM163.299 50.0654C164.085 50.5204 164.941 50.75 165.85 50.75V48.75C165.292 48.75 164.781 48.6129 164.301 48.3346L163.299 50.0654ZM164.885 49.488L163.935 52.988L165.865 53.512L166.815 50.012L164.885 49.488ZM164.9 52.25C163.426 52.25 162.358 51.9499 161.608 51.4452C160.875 50.9527 160.351 50.2025 160.068 49.1016L158.131 49.5984C158.515 51.0975 159.291 52.2973 160.492 53.1048C161.674 53.9001 163.173 54.25 164.9 54.25V52.25ZM158.288 48.7664C157.604 49.7182 156.647 50.6229 155.39 51.4712L156.509 53.1288C157.919 52.1771 159.062 51.1152 159.912 49.9336L158.288 48.7664ZM155.395 51.4679C154.302 52.1965 152.844 52.6 150.95 52.6V54.6C153.122 54.6 154.997 54.1368 156.504 53.1321L155.395 51.4679ZM151.95 50.6C153.382 50.6 154.742 50.2591 156.018 49.5838L155.082 47.8162C154.091 48.3409 153.051 48.6 151.95 48.6V50.6ZM156.037 49.5729C157.272 48.8833 158.321 48.0216 159.172 46.9847L157.627 45.7153C156.945 46.5451 156.094 47.25 155.062 47.8271L156.037 49.5729ZM159.4 46.35V32.4H157.4V46.35H159.4ZM158.975 31.5822C157.991 30.8899 156.903 30.3471 155.716 29.9513L155.083 31.8487C156.096 32.1862 157.008 32.6434 157.824 33.2178L158.975 31.5822ZM155.751 29.9637C154.566 29.5194 153.313 29.3 152 29.3V31.3C153.086 31.3 154.1 31.4806 155.049 31.8363L155.751 29.9637ZM152 29.3C150.216 29.3 148.601 29.7679 147.19 30.7214L148.309 32.3786C149.365 31.6654 150.583 31.3 152 31.3V29.3ZM147.195 30.7179C145.827 31.6302 144.765 32.911 143.997 34.5193L145.802 35.3807C146.435 34.0556 147.273 33.0698 148.304 32.382L147.195 30.7179ZM144.001 34.5112C143.222 36.1071 142.85 37.9463 142.85 40H144.85C144.85 38.187 145.178 36.6596 145.798 35.3888L144.001 34.5112ZM142.85 40C142.85 41.9936 143.224 43.8109 143.997 45.4307L145.802 44.5693C145.175 43.2558 144.85 41.7398 144.85 40H142.85ZM144.001 45.4388C144.772 47.0178 145.851 48.2902 147.24 49.2286L148.359 47.5714C147.282 46.8431 146.427 45.8488 145.798 44.5612L144.001 45.4388ZM147.255 49.239C148.658 50.1487 150.232 50.6 151.95 50.6V48.6C150.601 48.6 149.408 48.2513 148.344 47.561L147.255 49.239ZM172.077 64H171.077V65H172.077V64ZM171.227 31.25L170.543 31.9795L170.566 32.0015L170.591 32.0219L171.227 31.25ZM169.127 30.5L168.162 30.238L167.819 31.5H169.127V30.5ZM170.077 27V26H169.312L169.112 26.738L170.077 27ZM175.827 30.65L174.873 30.9505L175.5 32.9422L176.659 31.2047L175.827 30.65ZM177.427 28.9L176.77 28.1454L176.762 28.1526L176.754 28.1601L177.427 28.9ZM180.227 27.15L179.823 26.235L179.813 26.2396L180.227 27.15ZM189.677 28L189.152 28.8517L189.162 28.8575L189.172 28.8632L189.677 28ZM193.927 32.55L193.044 33.0206L193.048 33.0268L193.927 32.55ZM193.927 47.05L194.815 47.5087L194.818 47.5029L193.927 47.05ZM189.727 51.9L190.281 52.7321L190.285 52.7296L189.727 51.9ZM179.877 52.7L179.448 53.6033L179.457 53.6077L179.466 53.6119L179.877 52.7ZM176.577 50.55L177.255 49.8152L175.577 48.266V50.55H176.577ZM176.577 64V65H177.577V64H176.577ZM188.777 46.95L187.994 46.3271L187.993 46.3289L188.777 46.95ZM189.827 34.75L188.928 35.1888L188.932 35.1972L188.936 35.2055L189.827 34.75ZM186.977 31.45L186.427 32.2858L186.438 32.2927L186.977 31.45ZM179.177 31.4L179.702 32.2508L179.709 32.2466L179.177 31.4ZM176.577 33.7L175.765 33.1157L175.577 33.3775V33.7H176.577ZM176.577 46.5H175.577V46.9032L175.856 47.1936L176.577 46.5ZM179.577 48.75L179.109 49.6338L179.119 49.6392L179.129 49.6444L179.577 48.75ZM173.077 64V33.65H171.077V64H173.077ZM173.077 33.65C173.077 32.3816 172.762 31.2187 171.862 30.4781L170.591 32.0219C170.825 32.2146 171.077 32.6517 171.077 33.65H173.077ZM171.911 30.5205C171.158 29.8152 170.197 29.5 169.127 29.5V31.5C169.789 31.5 170.228 31.6848 170.543 31.9795L171.911 30.5205ZM170.092 30.7619L171.042 27.2619L169.112 26.738L168.162 30.238L170.092 30.7619ZM170.077 28C171.485 28 172.527 28.28 173.278 28.7568C174.013 29.2231 174.551 29.929 174.873 30.9505L176.78 30.3495C176.336 28.9376 175.532 27.8186 174.35 27.0682C173.184 26.3283 171.735 26 170.077 26V28ZM176.659 31.2047C176.927 30.8023 177.393 30.2822 178.099 29.6399L176.754 28.1601C175.994 28.8511 175.393 29.4977 174.995 30.0953L176.659 31.2047ZM178.083 29.6546C178.764 29.0619 179.612 28.5277 180.64 28.0604L179.813 26.2396C178.641 26.7723 177.622 27.4047 176.77 28.1454L178.083 29.6546ZM180.63 28.0649C181.618 27.6292 182.761 27.4 184.077 27.4V25.4C182.526 25.4 181.102 25.6708 179.823 26.2351L180.63 28.0649ZM184.077 27.4C185.888 27.4 187.574 27.8802 189.152 28.8517L190.201 27.1483C188.313 25.9865 186.265 25.4 184.077 25.4V27.4ZM189.172 28.8632C190.762 29.7933 192.055 31.1658 193.044 33.0206L194.809 32.0794C193.665 29.9342 192.125 28.2734 190.181 27.1368L189.172 28.8632ZM193.048 33.0268C194.016 34.8131 194.527 37.0398 194.527 39.75H196.527C196.527 36.7936 195.97 34.2202 194.806 32.0732L193.048 33.0268ZM194.527 39.75C194.527 42.3867 194.019 44.66 193.035 46.5971L194.818 47.5029C195.968 45.24 196.527 42.6466 196.527 39.75H194.527ZM193.038 46.5914C192.04 48.5258 190.747 50.0079 189.168 51.0704L190.285 52.7296C192.173 51.4587 193.68 49.7075 194.815 47.5086L193.038 46.5914ZM189.172 51.0679C187.632 52.0943 185.975 52.6 184.177 52.6V54.6C186.378 54.6 188.421 53.9724 190.281 52.7321L189.172 51.0679ZM184.177 52.6C182.778 52.6 181.485 52.3272 180.287 51.7881L179.466 53.6119C180.935 54.2728 182.509 54.6 184.177 54.6V52.6ZM180.306 51.7967C179.042 51.1963 178.032 50.5321 177.255 49.8152L175.898 51.2848C176.855 52.1679 178.045 52.9371 179.448 53.6033L180.306 51.7967ZM175.577 50.55V64H177.577V50.55H175.577ZM176.577 63H172.077V65H176.577V63ZM183.277 50.6C185.847 50.6 187.969 49.5787 189.56 47.5711L187.993 46.3289C186.784 47.8547 185.24 48.6 183.277 48.6V50.6ZM189.559 47.5729C191.167 45.554 191.927 42.9662 191.927 39.9H189.927C189.927 42.6338 189.253 44.746 187.994 46.3271L189.559 47.5729ZM191.927 39.9C191.927 37.7792 191.538 35.8989 190.717 34.2945L188.936 35.2055C189.582 36.4678 189.927 38.0208 189.927 39.9H191.927ZM190.725 34.3112C189.954 32.7331 188.888 31.4845 187.515 30.6073L186.438 32.2927C187.465 32.9489 188.299 33.9003 188.928 35.1888L190.725 34.3112ZM187.526 30.6143C186.191 29.7374 184.7 29.3 183.077 29.3V31.3C184.32 31.3 185.428 31.6292 186.427 32.2857L187.526 30.6143ZM183.077 29.3C181.463 29.3 179.977 29.7157 178.644 30.5534L179.709 32.2466C180.709 31.6177 181.824 31.3 183.077 31.3V29.3ZM178.651 30.5492C177.438 31.2987 176.461 32.149 175.765 33.1157L177.388 34.2843C177.892 33.5844 178.649 32.9013 179.702 32.2508L178.651 30.5492ZM175.577 33.7V46.5H177.577V33.7H175.577ZM175.856 47.1936C176.798 48.172 177.884 48.9855 179.109 49.6338L180.044 47.8662C179.002 47.3145 178.088 46.628 177.297 45.8064L175.856 47.1936ZM179.129 49.6444C180.409 50.2842 181.796 50.6 183.277 50.6V48.6C182.09 48.6 181.011 48.3492 180.024 47.8556L179.129 49.6444ZM201.764 64H200.764V65H201.764V64ZM200.914 31.25L200.23 31.9795L200.254 32.0015L200.278 32.0219L200.914 31.25ZM198.814 30.5L197.849 30.238L197.506 31.5H198.814V30.5ZM199.764 27V26H198.999L198.799 26.738L199.764 27ZM205.514 30.65L204.56 30.9505L205.188 32.9422L206.346 31.2047L205.514 30.65ZM207.114 28.9L206.458 28.1454L206.45 28.1526L206.441 28.1601L207.114 28.9ZM209.914 27.15L209.51 26.235L209.5 26.2396L209.914 27.15ZM219.364 28L218.84 28.8517L218.85 28.8575L218.859 28.8632L219.364 28ZM223.614 32.55L222.732 33.0206L222.735 33.0268L223.614 32.55ZM223.614 47.05L224.503 47.5087L224.506 47.5029L223.614 47.05ZM219.414 51.9L219.969 52.7321L219.972 52.7296L219.414 51.9ZM209.564 52.7L209.135 53.6033L209.144 53.6077L209.154 53.6119L209.564 52.7ZM206.264 50.55L206.942 49.8152L205.264 48.266V50.55H206.264ZM206.264 64V65H207.264V64H206.264ZM218.464 46.95L217.682 46.3271L217.68 46.3289L218.464 46.95ZM219.514 34.75L218.616 35.1888L218.62 35.1972L218.624 35.2055L219.514 34.75ZM216.664 31.45L216.115 32.2858L216.126 32.2927L216.664 31.45ZM208.864 31.4L209.39 32.2508L209.396 32.2466L208.864 31.4ZM206.264 33.7L205.453 33.1157L205.264 33.3775V33.7H206.264ZM206.264 46.5H205.264V46.9032L205.544 47.1936L206.264 46.5ZM209.264 48.75L208.796 49.6338L208.806 49.6392L208.817 49.6444L209.264 48.75ZM202.764 64V33.65H200.764V64H202.764ZM202.764 33.65C202.764 32.3816 202.449 31.2187 201.55 30.4781L200.278 32.0219C200.512 32.2146 200.764 32.6517 200.764 33.65H202.764ZM201.598 30.5205C200.846 29.8152 199.885 29.5 198.814 29.5V31.5C199.477 31.5 199.916 31.6848 200.23 31.9795L201.598 30.5205ZM199.779 30.7619L200.729 27.2619L198.799 26.738L197.849 30.238L199.779 30.7619ZM199.764 28C201.172 28 202.215 28.28 202.966 28.7568C203.7 29.2231 204.238 29.929 204.56 30.9505L206.468 30.3495C206.023 28.9376 205.22 27.8186 204.038 27.0682C202.872 26.3283 201.423 26 199.764 26V28ZM206.346 31.2047C206.614 30.8023 207.08 30.2822 207.787 29.6399L206.441 28.1601C205.681 28.8511 205.08 29.4977 204.682 30.0953L206.346 31.2047ZM207.77 29.6546C208.452 29.0619 209.3 28.5277 210.328 28.0604L209.5 26.2396C208.329 26.7723 207.31 27.4047 206.458 28.1454L207.77 29.6546ZM210.318 28.0649C211.305 27.6292 212.448 27.4 213.764 27.4V25.4C212.213 25.4 210.789 25.6708 209.51 26.2351L210.318 28.0649ZM213.764 27.4C215.576 27.4 217.261 27.8802 218.84 28.8517L219.888 27.1483C218 25.9865 215.953 25.4 213.764 25.4V27.4ZM218.859 28.8632C220.449 29.7933 221.742 31.1658 222.732 33.0206L224.496 32.0794C223.352 29.9342 221.812 28.2734 219.869 27.1368L218.859 28.8632ZM222.735 33.0268C223.704 34.8131 224.214 37.0398 224.214 39.75H226.214C226.214 36.7936 225.658 34.2202 224.493 32.0732L222.735 33.0268ZM224.214 39.75C224.214 42.3867 223.706 44.66 222.723 46.5971L224.506 47.5029C225.655 45.24 226.214 42.6466 226.214 39.75H224.214ZM222.725 46.5914C221.727 48.5258 220.434 50.0079 218.856 51.0704L219.972 52.7296C221.861 51.4587 223.368 49.7075 224.503 47.5086L222.725 46.5914ZM218.859 51.0679C217.32 52.0943 215.662 52.6 213.864 52.6V54.6C216.066 54.6 218.108 53.9724 219.969 52.7321L218.859 51.0679ZM213.864 52.6C212.465 52.6 211.172 52.3272 209.974 51.7881L209.154 53.6119C210.622 54.2728 212.196 54.6 213.864 54.6V52.6ZM209.993 51.7967C208.729 51.1963 207.719 50.5321 206.942 49.8152L205.586 51.2848C206.542 52.1679 207.732 52.9371 209.135 53.6033L209.993 51.7967ZM205.264 50.55V64H207.264V50.55H205.264ZM206.264 63H201.764V65H206.264V63ZM212.964 50.6C215.534 50.6 217.657 49.5787 219.248 47.5711L217.68 46.3289C216.471 47.8547 214.927 48.6 212.964 48.6V50.6ZM219.246 47.5729C220.854 45.554 221.614 42.9662 221.614 39.9H219.614C219.614 42.6338 218.941 44.746 217.682 46.3271L219.246 47.5729ZM221.614 39.9C221.614 37.7792 221.225 35.8989 220.404 34.2945L218.624 35.2055C219.27 36.4678 219.614 38.0208 219.614 39.9H221.614ZM220.413 34.3112C219.642 32.7331 218.575 31.4845 217.202 30.6073L216.126 32.2927C217.153 32.9489 217.986 33.9003 218.616 35.1888L220.413 34.3112ZM217.213 30.6143C215.879 29.7374 214.387 29.3 212.764 29.3V31.3C214.008 31.3 215.116 31.6292 216.115 32.2857L217.213 30.6143ZM212.764 29.3C211.15 29.3 209.665 29.7157 208.332 30.5534L209.396 32.2466C210.397 31.6177 211.511 31.3 212.764 31.3V29.3ZM208.339 30.5492C207.125 31.2987 206.149 32.149 205.453 33.1157L207.076 34.2843C207.58 33.5844 208.336 32.9013 209.39 32.2508L208.339 30.5492ZM205.264 33.7V46.5H207.264V33.7H205.264ZM205.544 47.1936C206.486 48.172 207.572 48.9855 208.796 49.6338L209.732 47.8662C208.69 47.3145 207.776 46.628 206.984 45.8064L205.544 47.1936ZM208.817 49.6444C210.096 50.2842 211.484 50.6 212.964 50.6V48.6C211.778 48.6 210.699 48.3492 209.711 47.8556L208.817 49.6444Z" fill="#01967F"/>
<path d="M88.8995 53.6L84.5495 44.1C83.4495 41.7333 82.0662 40.05 80.3995 39.05C78.7328 38.05 76.5995 37.55 73.9995 37.55H73.2495V53H68.4995V18.1C70.2662 17.9333 71.9495 17.8167 73.5495 17.75C75.1828 17.65 76.9162 17.6 78.7495 17.6C83.0162 17.6 86.2162 18.4667 88.3495 20.2C90.5162 21.9333 91.5995 24.1667 91.5995 26.9C91.5995 29.3333 90.8662 31.3 89.3995 32.8C87.9662 34.2667 85.8828 35.3667 83.1495 36.1C84.0495 36.5 84.8495 36.9833 85.5495 37.55C86.2495 38.0833 86.9162 38.8167 87.5495 39.75C88.2162 40.65 88.8828 41.8333 89.5495 43.3L93.3495 51.5L88.8995 53.6ZM73.2495 33.55H78.7495C81.1495 33.55 83.0995 33.0167 84.5995 31.95C86.0995 30.8833 86.8495 29.35 86.8495 27.35C86.8495 25.6833 86.1495 24.3167 84.7495 23.25C83.3495 22.15 81.3495 21.6 78.7495 21.6C77.6162 21.6 76.5995 21.6167 75.6995 21.65C74.7995 21.6833 73.9828 21.7333 73.2495 21.8V33.55ZM108.059 53.6C105.626 53.6 103.409 53.2833 101.409 52.65C99.4089 51.9833 97.7256 51.1167 96.3589 50.05L98.7589 46.05C99.9589 47.05 101.309 47.8667 102.809 48.5C104.309 49.1333 106.059 49.45 108.059 49.45C110.459 49.45 112.359 48.95 113.759 47.95C115.159 46.95 115.859 45.6 115.859 43.9C115.859 42.9333 115.659 42.0833 115.259 41.35C114.859 40.5833 114.076 39.85 112.909 39.15C111.776 38.4167 110.092 37.6333 107.859 36.8C105.459 35.8667 103.542 34.9333 102.109 34C100.676 33.0333 99.6422 31.95 99.0089 30.75C98.4089 29.5167 98.1089 28.0667 98.1089 26.4C98.1089 24.7333 98.5589 23.2333 99.4589 21.9C100.392 20.5333 101.742 19.45 103.509 18.65C105.309 17.8167 107.476 17.4 110.009 17.4C112.076 17.4 113.926 17.6167 115.559 18.05C117.226 18.45 118.842 19.0333 120.409 19.8L118.659 23.85C117.526 23.1833 116.192 22.6333 114.659 22.2C113.159 21.7333 111.576 21.5 109.909 21.5C107.709 21.5 105.976 21.9333 104.709 22.8C103.442 23.6667 102.809 24.7833 102.809 26.15C102.809 27.0167 102.992 27.7833 103.359 28.45C103.726 29.1167 104.442 29.7667 105.509 30.4C106.609 31.0333 108.242 31.75 110.409 32.55C113.009 33.5167 115.059 34.5333 116.559 35.6C118.092 36.6667 119.176 37.8333 119.809 39.1C120.442 40.3333 120.759 41.75 120.759 43.35C120.759 45.5167 120.209 47.3667 119.109 48.9C118.042 50.4333 116.542 51.6 114.609 52.4C112.709 53.2 110.526 53.6 108.059 53.6ZM127.777 53V18H132.527V53H127.777Z" fill="#62C8B8"/>
<path d="M88.8995 53.6L87.9903 54.0163L88.4114 54.9361L89.3263 54.5044L88.8995 53.6ZM84.5495 44.1L85.4587 43.6837L85.4563 43.6785L84.5495 44.1ZM80.3995 39.05L79.885 39.9075L79.885 39.9075L80.3995 39.05ZM73.2495 37.55V36.55H72.2495V37.55H73.2495ZM73.2495 53V54H74.2495V53H73.2495ZM68.4995 53H67.4995V54H68.4995V53ZM68.4995 18.1L68.4056 17.1044L67.4995 17.1899V18.1H68.4995ZM73.5495 17.75L73.5911 18.7491L73.6009 18.7487L73.6106 18.7481L73.5495 17.75ZM88.3495 20.2L87.7189 20.9761L87.7248 20.9809L88.3495 20.2ZM89.3995 32.8L88.6845 32.1009L88.6843 32.1011L89.3995 32.8ZM83.1495 36.1L82.8904 35.1342L80.1615 35.8663L82.7434 37.0138L83.1495 36.1ZM85.5495 37.55L84.9203 38.3272L84.9318 38.3365L84.9435 38.3454L85.5495 37.55ZM87.5495 39.75L86.722 40.3115L86.7336 40.3286L86.746 40.3452L87.5495 39.75ZM89.5495 43.3L88.6391 43.7138L88.6422 43.7205L89.5495 43.3ZM93.3495 51.5L93.7763 52.4044L94.6744 51.9805L94.2568 51.0795L93.3495 51.5ZM73.2495 33.55H72.2495V34.55H73.2495V33.55ZM84.5995 31.95L84.02 31.135L84.02 31.135L84.5995 31.95ZM84.7495 23.25L84.1317 24.0363L84.1375 24.0409L84.1435 24.0454L84.7495 23.25ZM73.2495 21.8L73.159 20.8041L72.2495 20.8868V21.8H73.2495ZM89.8087 53.1837L85.4587 43.6837L83.6403 44.5163L87.9903 54.0163L89.8087 53.1837ZM85.4563 43.6785C84.3004 41.1914 82.8018 39.3252 80.914 38.1925L79.885 39.9075C81.3306 40.7748 82.5987 42.2753 83.6427 44.5215L85.4563 43.6785ZM80.914 38.1925C79.0479 37.0729 76.7214 36.55 73.9995 36.55V38.55C76.4776 38.55 78.4178 39.0271 79.885 39.9075L80.914 38.1925ZM73.9995 36.55H73.2495V38.55H73.9995V36.55ZM72.2495 37.55V53H74.2495V37.55H72.2495ZM73.2495 52H68.4995V54H73.2495V52ZM69.4995 53V18.1H67.4995V53H69.4995ZM68.5934 19.0956C70.3445 18.9304 72.0103 18.815 73.5911 18.7491L73.5079 16.7509C71.8887 16.8183 70.1878 16.9363 68.4056 17.1044L68.5934 19.0956ZM73.6106 18.7481C75.2214 18.6495 76.9342 18.6 78.7495 18.6V16.6C76.8982 16.6 75.1443 16.6505 73.4884 16.7519L73.6106 18.7481ZM78.7495 18.6C82.9066 18.6 85.8389 19.4486 87.7189 20.9761L88.9801 19.4239C86.5935 17.4848 83.1258 16.6 78.7495 16.6V18.6ZM87.7248 20.9809C89.6585 22.5278 90.5995 24.4758 90.5995 26.9H92.5995C92.5995 23.8576 91.3739 21.3389 88.9742 19.4191L87.7248 20.9809ZM90.5995 26.9C90.5995 29.117 89.9392 30.8176 88.6845 32.1009L90.1145 33.4991C91.7931 31.7824 92.5995 29.5496 92.5995 26.9H90.5995ZM88.6843 32.1011C87.4152 33.3997 85.5135 34.4304 82.8904 35.1342L83.4086 37.0658C86.2522 36.3029 88.5172 35.1336 90.1147 33.4989L88.6843 32.1011ZM82.7434 37.0138C83.5708 37.3815 84.2944 37.8205 84.9203 38.3272L86.1787 36.7728C85.4046 36.1461 84.5283 35.6185 83.5557 35.1862L82.7434 37.0138ZM84.9435 38.3454C85.5372 38.7978 86.1332 39.4437 86.722 40.3115L88.377 39.1885C87.6992 38.1896 86.9618 37.3689 86.1556 36.7546L84.9435 38.3454ZM86.746 40.3452C87.3569 41.17 87.9901 42.2859 88.6391 43.7138L90.4599 42.8862C89.7756 41.3808 89.0754 40.13 88.3531 39.1548L86.746 40.3452ZM88.6422 43.7205L92.4422 51.9205L94.2568 51.0795L90.4568 42.8795L88.6422 43.7205ZM92.9227 50.5956L88.4727 52.6956L89.3263 54.5044L93.7763 52.4044L92.9227 50.5956ZM73.2495 34.55H78.7495V32.55H73.2495V34.55ZM78.7495 34.55C81.2944 34.55 83.4649 33.9839 85.179 32.765L84.02 31.135C82.7341 32.0495 81.0046 32.55 78.7495 32.55V34.55ZM85.179 32.765C86.9685 31.4925 87.8495 29.6409 87.8495 27.35H85.8495C85.8495 29.0591 85.2306 30.2742 84.02 31.135L85.179 32.765ZM87.8495 27.35C87.8495 25.3514 86.9876 23.698 85.3556 22.4546L84.1435 24.0454C85.3114 24.9353 85.8495 26.0152 85.8495 27.35H87.8495ZM85.3673 22.4637C83.7262 21.1742 81.474 20.6 78.7495 20.6V22.6C81.2251 22.6 82.9728 23.1258 84.1317 24.0363L85.3673 22.4637ZM78.7495 20.6C77.6068 20.6 76.5775 20.6168 75.6625 20.6507L75.7365 22.6493C76.6215 22.6165 77.6255 22.6 78.7495 22.6V20.6ZM75.6625 20.6507C74.7484 20.6845 73.9135 20.7355 73.159 20.8041L73.34 22.7959C74.0522 22.7312 74.8506 22.6821 75.7365 22.6493L75.6625 20.6507ZM72.2495 21.8V33.55H74.2495V21.8H72.2495ZM101.409 52.65L101.093 53.5987L101.1 53.6011L101.107 53.6033L101.409 52.65ZM96.3589 50.05L95.5014 49.5355L95.0463 50.294L95.7436 50.8383L96.3589 50.05ZM98.7589 46.05L99.3991 45.2818L98.5021 44.5343L97.9014 45.5355L98.7589 46.05ZM102.809 48.5L102.42 49.4212L102.809 48.5ZM113.759 47.95L114.34 48.7637L114.34 48.7637L113.759 47.95ZM115.259 41.35L114.372 41.8126L114.377 41.8207L114.381 41.8289L115.259 41.35ZM112.909 39.15L112.366 39.9896L112.38 39.9988L112.394 40.0075L112.909 39.15ZM107.859 36.8L107.496 37.7321L107.509 37.7369L107.859 36.8ZM102.109 34L101.55 34.8291L101.556 34.8336L101.563 34.838L102.109 34ZM99.0089 30.75L98.1097 31.1875L98.1168 31.2022L98.1245 31.2168L99.0089 30.75ZM99.4589 21.9L98.6331 21.336L98.63 21.3405L99.4589 21.9ZM103.509 18.65L103.921 19.561L103.929 19.5575L103.509 18.65ZM115.559 18.05L115.302 19.0166L115.314 19.0196L115.326 19.0224L115.559 18.05ZM120.409 19.8L121.327 20.1967L121.705 19.321L120.848 18.9018L120.409 19.8ZM118.659 23.85L118.152 24.7119L119.128 25.286L119.577 24.2467L118.659 23.85ZM114.659 22.2L114.362 23.1549L114.374 23.1587L114.387 23.1623L114.659 22.2ZM103.359 28.45L102.483 28.9319L102.483 28.9319L103.359 28.45ZM105.509 30.4L104.998 31.2599L105.01 31.2666L105.509 30.4ZM110.409 32.55L110.757 31.6127L110.755 31.6119L110.409 32.55ZM116.559 35.6L115.979 36.415L115.988 36.4209L116.559 35.6ZM119.809 39.1L118.914 39.5472L118.919 39.5568L119.809 39.1ZM119.109 48.9L118.296 48.3171L118.292 48.323L118.288 48.3289L119.109 48.9ZM114.609 52.4L114.227 51.476L114.221 51.4784L114.609 52.4ZM108.059 52.6C105.712 52.6 103.599 52.2946 101.711 51.6967L101.107 53.6033C103.219 54.2721 105.539 54.6 108.059 54.6V52.6ZM101.725 51.7013C99.8106 51.0632 98.234 50.245 96.9742 49.2617L95.7436 50.8383C97.2171 51.9884 99.0072 52.9035 101.093 53.5987L101.725 51.7013ZM97.2164 50.5645L99.6164 46.5645L97.9014 45.5355L95.5014 49.5355L97.2164 50.5645ZM98.1187 46.8182C99.3976 47.884 100.833 48.7512 102.42 49.4212L103.198 47.5788C101.785 46.9821 100.52 46.216 99.3991 45.2818L98.1187 46.8182ZM102.42 49.4212C104.068 50.117 105.955 50.45 108.059 50.45V48.45C106.163 48.45 104.55 48.1497 103.198 47.5788L102.42 49.4212ZM108.059 50.45C110.587 50.45 112.715 49.9243 114.34 48.7637L113.178 47.1363C112.002 47.9757 110.33 48.45 108.059 48.45V50.45ZM114.34 48.7637C115.999 47.5787 116.859 45.9276 116.859 43.9H114.859C114.859 45.2724 114.319 46.3213 113.178 47.1363L114.34 48.7637ZM116.859 43.9C116.859 42.7925 116.629 41.773 116.137 40.8711L114.381 41.8289C114.689 42.3937 114.859 43.0742 114.859 43.9H116.859ZM116.145 40.8874C115.625 39.8889 114.665 39.0377 113.423 38.2925L112.394 40.0075C113.486 40.6623 114.093 41.2777 114.372 41.8126L116.145 40.8874ZM113.452 38.3104C112.229 37.5188 110.467 36.7057 108.208 35.8631L107.509 37.7369C109.718 38.561 111.322 39.3145 112.366 39.9896L113.452 38.3104ZM108.221 35.868C105.857 34.9484 104.009 34.044 102.655 33.162L101.563 34.838C103.075 35.8226 105.061 36.7849 107.496 37.732L108.221 35.868ZM102.668 33.1709C101.335 32.2717 100.431 31.303 99.8933 30.2832L98.1245 31.2168C98.853 32.597 100.016 33.7949 101.55 34.8291L102.668 33.1709ZM99.9081 30.3125C99.3872 29.2417 99.1089 27.9472 99.1089 26.4H97.1089C97.1089 28.1861 97.4306 29.7916 98.1097 31.1875L99.9081 30.3125ZM99.1089 26.4C99.1089 24.9251 99.5035 23.6213 100.288 22.4595L98.63 21.3405C97.6143 22.8453 97.1089 24.5416 97.1089 26.4H99.1089ZM100.285 22.464C101.098 21.273 102.293 20.2985 103.921 19.561L103.096 17.739C101.192 18.6015 99.6864 19.7937 98.6331 21.336L100.285 22.464ZM103.929 19.5575C105.566 18.7995 107.582 18.4 110.009 18.4V16.4C107.369 16.4 105.052 16.8338 103.089 17.7425L103.929 19.5575ZM110.009 18.4C112.007 18.4 113.769 18.6097 115.302 19.0166L115.815 17.0834C114.082 16.6236 112.144 16.4 110.009 16.4V18.4ZM115.326 19.0224C116.92 19.405 118.467 19.9632 119.969 20.6982L120.848 18.9018C119.217 18.1035 117.531 17.495 115.792 17.0776L115.326 19.0224ZM119.491 19.4033L117.741 23.4533L119.577 24.2467L121.327 20.1967L119.491 19.4033ZM119.166 22.9881C117.945 22.27 116.53 21.6896 114.931 21.2377L114.387 23.1623C115.855 23.5771 117.106 24.0966 118.152 24.7119L119.166 22.9881ZM114.956 21.2451C113.354 20.7468 111.67 20.5 109.909 20.5V22.5C111.481 22.5 112.964 22.7199 114.362 23.1549L114.956 21.2451ZM109.909 20.5C107.591 20.5 105.635 20.9547 104.144 21.9747L105.274 23.6253C106.316 22.9119 107.827 22.5 109.909 22.5V20.5ZM104.144 21.9747C102.644 23.001 101.809 24.4085 101.809 26.15H103.809C103.809 25.1581 104.24 24.3323 105.274 23.6253L104.144 21.9747ZM101.809 26.15C101.809 27.1614 102.024 28.0981 102.483 28.9319L104.235 27.9681C103.96 27.4685 103.809 26.8719 103.809 26.15H101.809ZM102.483 28.9319C102.974 29.8244 103.865 30.5869 104.998 31.2599L106.019 29.5401C105.019 28.9464 104.478 28.4089 104.235 27.9681L102.483 28.9319ZM105.01 31.2666C106.183 31.9421 107.878 32.6816 110.063 33.4881L110.755 31.6119C108.606 30.8183 107.035 30.1246 106.008 29.5334L105.01 31.2666ZM110.06 33.4873C112.615 34.4372 114.577 35.4177 115.979 36.415L117.138 34.785C115.541 33.649 113.402 32.5961 110.757 31.6127L110.06 33.4873ZM115.988 36.4209C117.426 37.4215 118.376 38.4704 118.914 39.5472L120.703 38.6528C119.975 37.1963 118.758 35.9119 117.13 34.7791L115.988 36.4209ZM118.919 39.5568C119.47 40.6285 119.759 41.8843 119.759 43.35H121.759C121.759 41.6157 121.415 40.0382 120.698 38.6432L118.919 39.5568ZM119.759 43.35C119.759 45.3397 119.257 46.978 118.296 48.3171L119.921 49.4829C121.161 47.7553 121.759 45.6937 121.759 43.35H119.759ZM118.288 48.3289C117.344 49.6866 116.005 50.7401 114.227 51.476L114.991 53.324C117.08 52.4599 118.741 51.18 119.93 49.4711L118.288 48.3289ZM114.221 51.4784C112.465 52.2175 110.418 52.6 108.059 52.6V54.6C110.633 54.6 112.952 54.1825 114.997 53.3216L114.221 51.4784ZM127.777 53H126.777V54H127.777V53ZM127.777 18V17H126.777V18H127.777ZM132.527 18H133.527V17H132.527V18ZM132.527 53V54H133.527V53H132.527ZM128.777 53V18H126.777V53H128.777ZM127.777 19H132.527V17H127.777V19ZM131.527 18V53H133.527V18H131.527ZM132.527 52H127.777V54H132.527V52Z" fill="#01967F"/>
<defs>
<filter id="filter0_d_177_2" x="1.94531" y="3.94995" width="55.1805" height="60.0007" filterUnits="userSpaceOnUse" color-interpolation-filters="sRGB">
<feFlood flood-opacity="0" result="BackgroundImageFix"/>
<feColorMatrix in="SourceAlpha" type="matrix" values="0 0 0 0 0 0 0 0 0 0 0 0 0 0 0 0 0 0 127 0" result="hardAlpha"/>
<feOffset dy="4"/>
<feGaussianBlur stdDeviation="2"/>
<feComposite in2="hardAlpha" operator="out"/>
<feColorMatrix type="matrix" values="0 0 0 0 0 0 0 0 0 0 0 0 0 0 0 0 0 0 0.25 0"/>
<feBlend mode="normal" in2="BackgroundImageFix" result="effect1_dropShadow_177_2"/>
<feBlend mode="normal" in="SourceGraphic" in2="effect1_dropShadow_177_2" result="shape"/>
</filter>
<radialGradient id="paint0_angular_177_2" cx="0" cy="0" r="1" gradientUnits="userSpaceOnUse" gradientTransform="translate(29.5282 29.9469) rotate(90) scale(25.9469 23.5282)">
<stop offset="0.416667" stop-color="#666666"/>
<stop offset="0.456117" stop-color="#888888"/>
<stop offset="0.490073" stop-color="#C6C6C6"/>
<stop offset="0.514136" stop-color="#888888"/>
<stop offset="0.547638" stop-color="#666666"/>
</radialGradient>
<clipPath id="clip0_177_2">
<rect width="60.8488" height="60.2362" fill="white" transform="translate(14.335 7.76379)"/>
</clipPath>
</defs>
</svg>
