<svg width="256" height="258" viewBox="0 0 256 258" fill="none" xmlns="http://www.w3.org/2000/svg">
<path d="M255.5 126.711C255.5 196.411 198.421 252.923 128 252.923C57.5789 252.923 0.5 196.411 0.5 126.711C0.5 57.0115 57.5789 0.5 128 0.5C198.421 0.5 255.5 57.0115 255.5 126.711Z" fill="#90C7BE" stroke="#01967F"/>
<g clip-path="url(#clip0_177_2)">
<path d="M112.002 57.7209L113.543 64.1451L114.349 63.8277L113.543 57.4377L112.002 57.7209Z" fill="#D0D2CE"/>
<path d="M119.977 56.7458L121.518 64.1451L122.324 63.7783L121.518 56.4189L119.977 56.7458Z" fill="#D0D2CE"/>
<path d="M95.8353 196.37H90.6072V57.4377H96.5217L95.8353 196.37Z" fill="#DFE0DC"/>
<path d="M95.8353 189.653L90.6072 132.02V196.37H95.8353V189.653Z" fill="#D0D2CE"/>
<path d="M119.316 196.37H74.4883V190.817H119.316V196.37Z" fill="#DFE0DC"/>
<path d="M130.175 56.3524L69.9535 63.1606L66.5425 58.9259L129.862 53.0434L130.175 56.3524Z" fill="#DFE0DC"/>
<path d="M116.8 142.483L116.466 82.9401L119.657 82.9126L119.991 142.455L116.8 142.483Z" fill="#B1E5E8"/>
<path d="M117.537 141.323L117.307 84.0879L118.642 84.0719L118.873 141.307L117.537 141.323Z" fill="#51AD94"/>
<path d="M127.666 81.4532L109.014 89.0693L110.317 65.1638H126.452L127.666 81.4532Z" fill="#B1E5E8"/>
<path d="M126.09 79.8723L110.452 86.2736L110.982 78.068L111.189 74.8714L125.025 72.602L126.09 79.8723Z" fill="#60C8AA"/>
<path d="M126.09 79.8723L110.452 86.2736L110.982 78.068L126.09 79.8723Z" fill="#51AD94"/>
<path d="M123.905 82.989L121.773 81.6392L122.614 81.2953L123.905 82.989ZM111.185 74.9334L109.831 74.0762L110.317 65.164L116.992 73.9198L111.189 74.8714L111.185 74.9334Z" fill="#C2EAEA"/>
<path d="M121.072 79.2729L117.332 78.8263L111.185 74.9333L111.189 74.8714L116.992 73.9197L121.072 79.2729Z" fill="#80D3BB"/>
<path d="M121.773 81.6392L117.332 78.8282L121.072 79.2746L122.614 81.2955L121.773 81.6392Z" fill="#76C2AB"/>
<path d="M123.142 78.8159L113.543 79.8724V69.395L123.142 69.6843V78.8159Z" fill="#DFE0DC"/>
<path d="M113.263 66.0648L112.499 62.8776L115.119 62.2299L115.61 65.7932L113.263 66.0648Z" fill="#B1E5E8"/>
<path d="M120.905 66.0648L119.977 62.2299H122.651L123.47 66.0648H120.905Z" fill="#B1E5E8"/>
<path d="M121.669 72.6019H115.61L114.873 71.792H121.669V72.6019Z" fill="#A9ABAB"/>
<path d="M121.669 74.8866H115.61L114.873 74.0767H121.669V74.8866Z" fill="#A9ABAB"/>
<path d="M115.564 85.7224L115.939 88.7302H119.991L120.184 84.0721L115.564 85.7224Z" fill="#B1E5E8"/>
<path d="M193.513 200.002L192.405 142.083L196.58 136.395L199.918 145.883V201.247H193.513V200.002Z" fill="#D0D2CE"/>
<path d="M198.865 201.247L192.484 146.217L193.513 201.247H198.865Z" fill="#BBBBBA"/>
<path d="M199.918 145.883L193.517 126.766L188.914 134.188L187.726 153.599L188.914 173.732L190.56 147.206V140.34L192.799 148.927L199.918 145.883Z" fill="#D0D2CE"/>
<path d="M63.3234 114.336L96.9353 144.203L101.641 135.394C102.951 132.941 102.651 130.031 100.893 128.153L75.918 101.472C75.7113 101.251 75.4117 101.138 75.0976 101.159C74.7828 101.181 74.4794 101.336 74.2655 101.586L63.3234 114.336ZM95.1891 148.412C95.171 148.397 95.1532 148.381 95.1353 148.365L59.6359 116.822C58.471 115.786 58.4234 113.968 59.5278 112.681L71.2359 99.0377C72.2459 97.8608 73.678 97.1271 75.1644 97.0251C76.4562 96.9363 77.6898 97.3265 78.6379 98.1238C78.7777 98.2415 78.9119 98.3687 79.0367 98.5023L104.011 125.183C106.906 128.275 107.401 133.066 105.244 137.105L99.8023 147.291C99.3543 148.13 98.5445 148.755 97.6363 148.965C96.7433 149.17 95.8513 148.969 95.1891 148.412Z" fill="#DFE0DC"/>
<path d="M70.5206 123.278L68.2483 121.368L82.1191 105.204L84.3915 107.115L70.5206 123.278Z" fill="#DFE0DC"/>
<path d="M83.004 133.777L80.7317 131.866L94.6025 115.703L96.8749 117.613L83.004 133.777Z" fill="#DFE0DC"/>
<path d="M101.222 139.52L75.2732 115.355L77.4799 112.996L103.429 137.16L101.222 139.52Z" fill="#DFE0DC"/>
<path d="M123.602 148.466L164.57 149.646L162.596 140.236C162.047 137.615 160.112 135.657 157.782 135.362L124.677 131.177C124.404 131.142 124.129 131.244 123.924 131.455C123.72 131.666 123.602 131.969 123.602 132.285V148.466ZM165.86 153.831C165.839 153.831 165.817 153.83 165.795 153.83L122.527 152.584C121.107 152.543 119.995 151.232 119.995 149.599V132.285C119.995 130.791 120.55 129.363 121.517 128.366C122.358 127.5 123.443 127.023 124.571 127.023C124.738 127.023 124.906 127.034 125.072 127.055L158.176 131.24C162.012 131.725 165.198 134.949 166.103 139.263L168.385 150.144C168.573 151.04 168.384 152.004 167.88 152.721C167.385 153.426 166.649 153.831 165.86 153.831Z" fill="#DFE0DC"/>
<path d="M133.886 150.596H131.18V130.084H133.886V150.596Z" fill="#DFE0DC"/>
<path d="M148.748 150.596H146.043V130.084H148.748V150.596Z" fill="#DFE0DC"/>
<path d="M164.755 143.536L132.47 141.81L132.596 138.703L164.881 140.429L164.755 143.536Z" fill="#DFE0DC"/>
<path d="M41.1231 139.798L52.2435 113.528L35.066 141.852L72.473 183.554L192.405 187.847L190.2 177.66L86.3701 170.86L41.1231 139.798Z" fill="#A9ABAB"/>
<path d="M190.2 163.128V177.66L78.9466 174.568L41.123 139.798L40.3445 138.494L39.9296 138.278L50.3957 127.5L51.0099 126.868L86.163 159.317L190.2 163.128Z" fill="#5975B4"/>
<path d="M190.2 173.767V177.66L78.9466 174.568L41.123 139.798L39.9296 138.278L50.3957 127.5L86.3696 166.845L190.2 173.767Z" fill="#4C649E"/>
<path d="M79.3656 183.801V192.042H184.056L182.127 187.479L79.3656 183.801Z" fill="#898C8C"/>
<path d="M66.2278 187.091L68.9085 201.247H199.918L197.677 191.935L66.2278 187.091Z" fill="#A9ABAB"/>
<path d="M66.2278 187.091L184.056 196.55L67.508 194.169L66.2278 187.091Z" fill="#D0D2CE"/>
<path d="M73.4839 197.741L69.6744 211.164H77.6021L83.332 197.741H73.4839Z" fill="#898C8C"/>
<path d="M72.2025 208.131H75.545V216.167H72.68L72.2025 208.131Z" fill="#575B5C"/>
<path d="M79.8995 216.713C79.8995 220.008 77.2016 222.678 73.8736 222.678C70.5457 222.678 67.8479 220.008 67.8479 216.713C67.8479 213.418 70.5457 210.748 73.8736 210.748C77.2016 210.748 79.8995 213.418 79.8995 216.713Z" fill="#626567"/>
<path d="M77.3585 216.713C77.3585 218.618 75.7983 220.162 73.8737 220.162C71.9493 220.162 70.3889 218.618 70.3889 216.713C70.3889 214.807 71.9493 213.263 73.8737 213.263C75.7983 213.263 77.3585 214.807 77.3585 216.713Z" fill="#515455"/>
<path d="M75.523 216.714C75.523 217.615 74.7845 218.345 73.8737 218.345C72.9629 218.345 72.2246 217.615 72.2246 216.714C72.2246 215.813 72.9629 215.082 73.8737 215.082C74.7845 215.082 75.523 215.813 75.523 216.714Z" fill="#717577"/>
<path d="M192.666 197.741L196.475 211.164H188.548L182.818 197.741H192.666Z" fill="#898C8C"/>
<path d="M193.947 208.131H190.605V216.167H193.47L193.947 208.131Z" fill="#575B5C"/>
<path d="M186.25 216.713C186.25 220.008 188.948 222.678 192.276 222.678C195.604 222.678 198.302 220.008 198.302 216.713C198.302 213.418 195.604 210.748 192.276 210.748C188.948 210.748 186.25 213.418 186.25 216.713Z" fill="#626567"/>
<path d="M188.791 216.713C188.791 218.618 190.351 220.162 192.276 220.162C194.201 220.162 195.761 218.618 195.761 216.713C195.761 214.807 194.201 213.263 192.276 213.263C190.351 213.263 188.791 214.807 188.791 216.713Z" fill="#515455"/>
<path d="M190.627 216.714C190.627 217.615 191.365 218.345 192.276 218.345C193.187 218.345 193.925 217.615 193.925 216.714C193.925 215.813 193.187 215.082 192.276 215.082C191.365 215.082 190.627 215.813 190.627 216.714Z" fill="#717577"/>
<path d="M51.0099 126.868L62.6147 102.036L91.149 144.499L186.636 149.398L190.2 163.128L166.278 164.105L84.8937 160.44L51.0099 126.868Z" fill="#5975B4"/>
<path d="M39.9296 138.279L53.3386 111.25L65.3469 102.608L52.0968 129.361L39.9296 138.279Z" fill="#4C649E"/>
<path d="M125.045 148.947C125.045 148.947 126.956 150.401 127.757 151.962C128.558 153.523 130.319 156.781 128.986 158.534C128.986 158.534 129.021 159.652 127.881 159.249C127.881 159.249 127.675 159.953 126.916 160.05C126.172 160.145 126.632 156.297 124.431 154.512C124.395 154.483 124.346 154.472 124.301 154.484C124.256 154.496 124.219 154.528 124.202 154.572C124.122 154.776 124.03 155.16 124.144 155.708C124.319 156.56 124.401 156.7 124.182 156.829C123.637 157.154 123.226 156.968 122.802 155.423C122.379 153.878 122.28 153.392 122.445 152.675C122.61 151.958 122.639 151.399 122.384 150.706L125.045 148.947Z" fill="#FBC290"/>
<path d="M126.489 154.315C126.489 154.315 128.088 157.745 127.881 159.249L128.252 159.333C128.252 159.333 128.596 157.164 126.489 154.315Z" fill="#F9AC7B"/>
<path d="M128.986 158.535C128.986 158.535 128.882 156.241 127.342 153.891C127.342 153.891 129.095 155.934 129.245 158.088L128.986 158.535Z" fill="#F9AC7B"/>
<path d="M124.113 146.888L125.356 148.757C125.468 148.927 125.422 149.155 125.253 149.268L122.712 150.968C122.618 151.031 122.503 151.053 122.392 151.028C122.282 151.004 122.187 150.936 122.128 150.84L120.891 148.8L124.113 146.888Z" fill="#50C1C8"/>
<path d="M124.04 147.127L124.995 148.591C125.082 148.724 125.068 148.888 124.963 148.961L123.398 150.039C123.34 150.079 123.265 150.087 123.19 150.062C123.115 150.036 123.047 149.98 123.001 149.905L122.038 148.316L124.04 147.127Z" fill="#50C1C8"/>
<path d="M111.37 127.72C116.386 135.836 122.517 143.572 124.157 146.025C124.433 146.438 124.335 146.993 123.932 147.288L121.58 149.009C121.167 149.312 120.587 149.23 120.274 148.827C117.767 145.592 107.557 132.518 103.627 129.055C97.6446 125.369 99.5452 121.603 98.5151 118.754C99.8899 118.957 105.299 117.896 111.37 127.72Z" fill="#5FCACE"/>
<path d="M123.322 147.552C123.322 147.552 121.608 143.28 118.993 141.607C118.993 141.607 121.776 145.505 122.789 147.869L123.322 147.552Z" fill="#5FCACE"/>
<path d="M119.872 144.066C120.141 144.509 120.742 144.64 121.215 144.359C121.689 144.078 121.855 143.491 121.586 143.049C121.318 142.606 120.717 142.476 120.243 142.757C119.77 143.038 119.604 143.624 119.872 144.066Z" fill="#5FCACE"/>
<path d="M113.865 163.173L112.246 152.362L132.041 151.516C133.656 151.447 135.313 151.472 136.875 151.588C142.063 151.973 153.127 152.877 155.559 153.803L155.34 157.027C155.34 157.027 125.543 154.659 113.865 163.173Z" fill="#F9AC7B"/>
<path d="M154.924 157C154.924 157 156.852 158.729 158.206 156.736C159.54 154.772 161.024 150.877 159.435 150.877C157.81 150.876 157.237 153.132 155.188 153.666C154.643 153.808 154.924 157 154.924 157Z" fill="#F9AC7B"/>
<path d="M156.165 157.64C156.165 157.64 158.444 157.079 158.896 154.963C159.347 152.851 160.544 151.865 159.761 150.952C160.584 150.732 161.44 150.984 161.34 152.335C161.241 153.684 160.554 155.175 160.236 155.749C159.916 156.324 157.754 156.909 158.48 157.097C159.198 157.283 160.401 156.55 160.519 156.947C160.636 157.343 157.993 158.094 157.352 158.069C156.705 158.043 156.168 158.179 156.165 157.64Z" fill="#3C1A18"/>
<path d="M159.866 153.521C159.866 153.521 157.368 152.316 157.417 151.971C157.73 151.608 158.032 151.372 158.032 151.372C158.032 151.372 159.799 152.552 160.08 152.613C160.073 153.325 159.866 153.521 159.866 153.521Z" fill="#3C1A18"/>
<path d="M158.68 155.832C158.68 155.832 155.705 153.696 155.824 153.197C156.281 152.712 156.702 152.412 156.702 152.412C156.702 152.412 158.75 154.405 159.095 154.536C158.973 155.575 158.68 155.832 158.68 155.832Z" fill="#3C1A18"/>
<path d="M158.01 156.826C158.01 156.826 154.934 156.653 154.871 157.07C155.012 157.138 155.289 157.352 155.289 157.352C155.289 157.352 157.056 157.117 157.739 157.179C158.016 156.898 158.01 156.826 158.01 156.826Z" fill="#3C1A18"/>
<path d="M153.545 157.074C153.545 157.074 154.411 153.559 154.249 153.369C154.922 153.534 155.221 153.559 155.221 153.559C155.221 153.559 154.621 156.706 154.454 157.114C154.071 157.06 153.545 157.074 153.545 157.074Z" fill="#3C1A18"/>
<path d="M151.977 156.996C151.977 156.996 152.83 153.148 152.663 152.938C153.353 153.124 153.659 153.154 153.659 153.154C153.659 153.154 153.074 156.6 152.906 157.046C152.515 156.984 151.977 156.996 151.977 156.996Z" fill="#3C1A18"/>
<path d="M112.827 156.044L112.908 145.092L131.003 144.387C132.619 144.318 134.276 144.343 135.837 144.459C141.026 144.844 152.09 145.747 154.522 146.674L154.303 149.898C154.303 149.898 124.506 147.53 112.827 156.044Z" fill="#F9AC7B"/>
<path d="M153.886 149.871C153.886 149.871 155.814 151.6 157.168 149.607C158.502 147.642 159.987 143.748 158.398 143.748C156.773 143.747 156.2 146.003 154.15 146.537C153.606 146.679 153.886 149.871 153.886 149.871Z" fill="#F9AC7B"/>
<path d="M155.128 150.511C155.128 150.511 157.407 149.95 157.859 147.833C158.31 145.721 159.507 144.736 158.724 143.823C159.546 143.603 160.403 143.855 160.303 145.206C160.204 146.555 159.517 148.046 159.198 148.619C158.879 149.195 156.717 149.779 157.443 149.967C158.161 150.154 159.363 149.421 159.481 149.818C159.599 150.214 156.956 150.965 156.315 150.939C155.668 150.914 155.131 151.05 155.128 150.511Z" fill="#3C1A18"/>
<path d="M158.828 146.392C158.828 146.392 156.33 145.187 156.38 144.842C156.693 144.479 156.994 144.242 156.994 144.242C156.994 144.242 158.762 145.423 159.043 145.484C159.036 146.196 158.828 146.392 158.828 146.392Z" fill="#3C1A18"/>
<path d="M157.643 148.703C157.643 148.703 154.668 146.566 154.786 146.068C155.243 145.583 155.665 145.283 155.665 145.283C155.665 145.283 157.713 147.276 158.058 147.406C157.936 148.446 157.643 148.703 157.643 148.703Z" fill="#3C1A18"/>
<path d="M156.973 149.697C156.973 149.697 153.896 149.524 153.834 149.941C153.975 150.008 154.251 150.223 154.251 150.223C154.251 150.223 156.019 149.987 156.702 150.05C156.979 149.769 156.973 149.697 156.973 149.697Z" fill="#3C1A18"/>
<path d="M152.507 149.945C152.507 149.945 153.373 146.43 153.212 146.24C153.884 146.405 154.184 146.43 154.184 146.43C154.184 146.43 153.584 149.577 153.416 149.985C153.034 149.931 152.507 149.945 152.507 149.945Z" fill="#3C1A18"/>
<path d="M150.94 149.867C150.94 149.867 151.793 146.019 151.626 145.809C152.315 145.995 152.622 146.025 152.622 146.025C152.622 146.025 152.036 149.471 151.869 149.917C151.478 149.855 150.94 149.867 150.94 149.867Z" fill="#3C1A18"/>
<path d="M109.299 161.818C109.299 161.818 114.4 159.32 114.81 158.578C114.249 159.697 111.592 161.301 109.626 162.095L108.372 162.373L109.299 161.818Z" fill="#343537"/>
<path d="M75.0852 118.233L80.0334 124.913L78.6051 130.212L81.3795 130.336L93.1063 129.196L94.679 118.89C94.679 118.89 90.0345 119.967 89.3685 119.174C88.7024 118.381 83.7601 113.195 83.7601 113.195L75.0852 118.233Z" fill="#F8A06E"/>
<path d="M109.881 132.585L109.873 132.599L109.883 132.589L109.881 132.585Z" fill="#ACC750"/>
<path d="M130.22 143.389L130.875 156.927C130.875 156.927 122.048 160.527 110.218 166.001C109.764 166.21 109.325 166.383 108.897 166.526C103.923 165.346 99.4325 163.683 97.7654 160.796C97.6613 160.616 97.5696 160.43 97.4882 160.239C97.3551 159.927 97.253 159.604 97.1861 159.265C97.1737 159.213 97.1644 159.159 97.155 159.104C96.3344 156.958 95.6427 154.767 95.2299 153.376L95.2274 153.366C94.9428 152.405 94.3753 151.543 93.6019 150.893L75.8348 138.224C75.5487 137.307 75.403 136.708 75.3713 136.573L75.3707 136.571L75.3801 136.533C75.7755 134.789 76.7226 131.535 78.6157 129.419C82.6713 128.961 86.9247 127.302 88.8053 125.726C89.1857 125.405 89.8216 124.836 90.1313 124.511C92.2435 122.296 94.0364 118.439 94.0364 118.439L101.382 118.955L102.362 125.051C102.362 125.051 111.406 126.568 108.688 132.926L108.678 132.939C108.533 133.283 108.351 133.638 108.13 134.008L108.827 135.036L110.463 137.739C111.093 138.783 111.865 139.734 112.755 140.565C113.093 140.882 113.447 141.182 113.818 141.463L116.786 143.715C116.786 143.715 121.227 143.359 126.289 143.269C127.574 143.246 128.91 143.17 130.22 143.389Z" fill="#50C1C8"/>
<path d="M92.1858 144.27C94.7887 144.95 98.8582 142.338 101.568 139.085C104.626 137.842 107.537 135.931 108.826 135.035L108.13 134.009C108.351 133.637 108.532 133.283 108.679 132.938C108.54 133.2 106.565 136.807 100.667 137.908C100.667 137.908 100.364 141.22 92.1858 144.27Z" fill="#43A0A2"/>
<path d="M129.684 143.885L129.509 145.349L127.774 159.88C127.774 159.88 118.469 161.99 105.889 165.46C105.409 165.592 104.945 165.693 104.499 165.764C98.6547 166.695 95.8344 162.509 94.4743 158.297C94.4104 158.097 94.3495 157.901 94.2934 157.701C93.2576 154.156 93.2088 150.761 93.2073 150.565L93.2069 150.555C98.193 153.258 112.625 140.786 112.625 140.786L129.684 143.885Z" fill="#E4B833"/>
<path d="M170.122 148.694C170.122 148.694 168.554 140.763 147.976 141.88C127.398 142.997 122.382 141.479 122.382 141.479L111.056 134.22L90.4414 159.642L94.6583 162.529C98.689 165.289 103.554 166.855 108.584 167.028C123.064 167.527 152.839 168.569 153.288 168.72C153.88 168.92 172.459 168.191 172.459 168.191L170.122 148.694Z" fill="#E7EDEC"/>
<path d="M170.405 151.054L93.8383 159.917L93.859 159.938C98.3307 164.308 104.509 166.887 111.047 167.113C126.184 167.637 152.863 168.577 153.288 168.72C153.88 168.92 172.459 168.191 172.459 168.191L170.405 151.054Z" fill="#E7EDEC"/>
<path d="M115.274 159.097C115.274 159.097 118.505 159.658 120.823 159.019C123.141 158.38 128.062 157.134 128.613 154.198C128.613 154.198 129.778 153.206 128.321 152.444C128.321 152.444 128.846 151.592 128.246 150.749C127.66 149.923 124.182 153.917 120.35 153.372C120.287 153.362 120.232 153.324 120.202 153.268C120.173 153.212 120.172 153.146 120.2 153.089C120.334 152.822 120.638 152.378 121.298 151.986C122.322 151.378 122.539 151.33 122.47 150.995C122.297 150.154 121.731 149.917 119.776 150.917C117.821 151.917 117.237 152.265 116.663 153.088C116.088 153.91 115.548 154.453 114.611 154.837L115.274 159.097Z" fill="#FBC290"/>
<path d="M122.042 155.597C122.042 155.597 126.988 154.033 128.321 152.446L128.748 152.737C128.748 152.737 126.866 155.07 122.042 155.597Z" fill="#F9AC7B"/>
<path d="M128.613 154.2C128.613 154.2 126.193 156.204 122.396 156.833C122.396 156.833 126.078 156.697 128.399 154.868L128.613 154.2Z" fill="#F9AC7B"/>
<path d="M112.327 160.066L115.366 159.581C115.641 159.537 115.83 159.282 115.79 159.008L115.178 154.922C115.156 154.771 115.072 154.636 114.945 154.549C114.82 154.462 114.663 154.429 114.512 154.46L111.306 155.107L112.327 160.066Z" fill="#50C1C8"/>
<path d="M112.504 159.773L114.867 159.376C115.081 159.34 115.235 159.174 115.212 159.004L114.867 156.459C114.854 156.365 114.793 156.283 114.699 156.232C114.604 156.181 114.484 156.165 114.366 156.189L111.869 156.693L112.504 159.773Z" fill="#50C1C8"/>
<path d="M111.821 154.059L111.983 154.971L112.271 156.61L112.819 159.719L112.866 159.98L112.926 160.323C112.926 160.323 106.28 162.054 97.186 159.265C94.3427 158.393 91.2586 157.08 88.0655 155.134C80.3874 150.455 76.979 141.849 75.8347 138.224C75.5486 137.307 75.4029 136.708 75.3712 136.572L75.3706 136.571C75.3674 136.552 75.3649 136.543 75.3649 136.543L75.38 136.533C75.5957 136.385 78.1905 134.635 80.0925 134.619L80.0963 134.618C83.4031 134.59 86.4087 136.52 87.731 139.52C90.194 145.113 96.6993 154.927 111.821 154.059Z" fill="#5FCACE"/>
<path d="M54.1954 105.878C55.1182 107.556 55.9323 108.935 56.424 109.746C58.4465 113.057 57.0508 110.029 66.0906 117.784C66.1824 117.862 66.2691 117.931 66.3609 118.009C66.4055 118.046 66.4475 118.078 66.4947 118.12C67.222 118.677 68.6513 119.454 70.1942 120.236L70.2113 120.245C71.4222 120.756 72.7129 121.201 74.0772 121.532C78.5694 122.642 83.8099 122.563 89.2679 119.648C93.4433 116.989 94.9048 110.977 95.1911 106.157C95.3207 103.97 95.2151 102.036 95.0125 100.767C94.7356 98.9917 92.8235 95.4334 90.6314 91.8005C88.7049 88.6201 86.571 85.3745 85.1268 83.2345C84.2651 81.9481 83.6505 81.0695 83.4908 80.8332C83.4677 80.791 83.4501 80.7701 83.4501 80.7701C82.4192 79.0279 82.625 78.675 80.249 75.8504C76.3278 71.1947 65.0814 78.2259 65.0814 78.2259C65.0814 78.2259 50.1861 86.5784 48.6466 90.1022C47.5591 92.5896 50.8821 99.7196 53.6411 104.851C53.8308 105.199 54.0134 105.544 54.1954 105.878Z" fill="#FBC290"/>
<path d="M54.1954 105.878C55.118 107.556 55.9322 108.935 56.4239 109.746C58.4465 113.057 57.0508 110.029 66.0906 117.784C66.1823 117.862 66.2691 117.931 66.3609 118.009C66.4055 118.046 66.4475 118.078 66.4947 118.12C67.222 118.677 68.6513 119.454 70.1942 120.236L70.2113 120.245C71.4222 120.756 72.7128 121.201 74.0772 121.532C67.2815 115.587 58.5006 105.376 55.9443 99.2015C53.4981 93.2954 55.2906 86.6991 56.4641 83.5042C52.8806 85.8888 49.3831 88.5431 48.6979 90.1961C47.6789 92.6408 50.8487 99.5797 53.6411 104.851C53.8308 105.199 54.0134 105.544 54.1954 105.878Z" fill="#F9AC7B"/>
<path d="M84.7486 107.928C84.7486 107.928 87.0155 105.206 85.9971 103.66C84.9786 102.114 80.222 98.4358 79.4246 97.0715C78.6272 95.707 79.5978 92.1645 82.0502 90.1C84.5026 88.0357 87.619 87.8612 88.7201 90.2471C89.8212 92.633 86.8469 94.2645 84.9576 95.3599C83.0688 96.4551 82.6692 96.7358 84.3127 98.1436C85.9562 99.5515 91.5519 103.405 84.7486 107.928Z" fill="#F9AC7B"/>
<path d="M69.4661 95.9719C69.4661 95.9719 72.6775 95.301 74.3518 98.439C76.026 101.577 72.1701 101.863 70.2297 103.152C68.2898 104.44 65.8425 106.03 64.7176 104.897C63.5925 103.764 61.9985 101.224 64.5001 98.8701C67.0014 96.5159 68.2556 96.0077 69.4661 95.9719Z" fill="#F9AC7B"/>
<path d="M79.1541 96.213C79.1541 96.213 79.9518 97.7955 81.3885 98.7155C82.8253 99.6352 87.32 102.584 86.9571 104.321C86.4301 106.846 84.6714 107.787 84.6714 107.787C84.6714 107.787 86.5808 105.08 85.2145 103.505C83.8486 101.931 79.3745 98.3159 79.1541 96.213Z" fill="#ED7B61"/>
<path d="M66.858 96.2861C69.0269 95.1162 71.2055 94.9149 72.4376 95.4536C73.6696 95.992 72.4619 96.7187 70.6445 96.7732C68.8272 96.8276 66.9796 97.5511 65.601 99.4149C64.2224 101.279 63.1826 101.877 62.385 101.57C62.385 101.57 62.6909 98.5338 66.858 96.2861Z" fill="#784C30"/>
<path d="M87.4951 88.9267C87.4951 88.9267 85.3792 88.3861 83.6393 89.5739C81.8993 90.7618 80.485 92.6577 79.668 92.5594C78.8513 92.4612 80.1004 89.0803 84.069 87.8454C87.9793 86.6284 88.0141 88.1839 87.4951 88.9267Z" fill="#784C30"/>
<path d="M61.9564 83.5257C61.9564 83.5257 67.0448 88.4772 74.8169 86.7107C82.5891 84.9442 84.4024 81.6264 88.5025 88.7284L92.4425 94.7695C92.4425 94.7695 92.84 92.4836 93.1537 89.4838C93.4676 86.4839 94.4223 84.3172 90.6664 80.1621C90.6664 80.1621 91.5593 80.478 92.2052 81.5758C91.8164 78.0978 92.01 68.4945 85.2118 66.4279C78.4137 64.36 74.0872 66.4906 74.0872 66.4906C74.0872 66.4906 80.2936 65.9299 81.4795 62.9953C75.2121 63.7727 61.1579 61.0357 51.5066 75.1694C42.8444 79.1145 38.1726 85.9845 40.2093 92.4382C43.3852 102.502 48.6714 104.702 48.6714 104.702C48.6714 104.702 52.3372 103.5 54.5548 105.902C56.7724 108.304 57.3019 108.667 57.3019 108.667C57.3019 108.667 53.8031 103.565 55.0333 101.298C56.2632 99.0305 59.4439 88.496 57.5174 84.4664C55.591 80.4368 63.9697 92.1006 69.3138 88.7811C63.2086 87.5793 61.9564 83.5257 61.9564 83.5257Z" fill="#583A25"/>
<path d="M57.4836 108.195C57.4836 108.195 55.4957 105.804 53.5442 104.387C51.5925 102.971 50.165 103.293 48.7659 104.49C47.367 105.687 48.9682 108.742 51.5923 110.578C54.2164 112.413 54.8889 118.024 58.3278 117.369C61.7666 116.714 60.5535 112.961 57.4836 108.195Z" fill="#F9AC7B"/>
<path d="M57.5231 112.146C57.5231 112.146 55.7857 107.364 54.1445 108.069C52.5035 108.773 53.1025 110.037 54.8743 110.415C54.8743 110.415 53.4911 108.765 54.4275 108.586C55.3637 108.407 57.5231 112.146 57.5231 112.146Z" fill="#ED7B61"/>
<path d="M86.9625 92.268C87.3378 92.8877 86.071 94.9415 84.7522 95.2656C83.4335 95.5898 82.4165 95.5788 82.4165 95.5788L82.7239 95.9C82.7239 95.9 86.1496 97.3441 87.8568 92.9354C88.347 92.5764 88.7771 92.3977 88.7771 92.3977C88.7771 92.3977 86.865 92.1238 86.9625 92.268Z" fill="#554442"/>
<path d="M71.1392 102.606C70.1024 103.781 67.2276 103.717 66.8741 103.072C66.7975 102.912 65.9717 104.939 65.9717 104.939C65.9717 104.939 66.3764 104.588 66.9793 104.256C72.6888 105.201 72.9831 100.662 72.9831 100.662L72.7239 100.334C72.7239 100.334 72.1762 101.432 71.1392 102.606Z" fill="#554442"/>
<path d="M82.2396 113.804C82.2396 113.804 82.6409 111.851 85.015 110.414C87.3891 108.976 89.1643 109.538 89.4945 110.604C87.3937 110.426 84.6506 111.584 82.2396 113.804Z" fill="#F9AC7B"/>
<path d="M88.4454 112.741C88.4454 112.741 86.4035 111.706 85.0737 113.919C85.0737 113.919 86.6429 112.729 88.4454 112.741Z" fill="#ED7B61"/>
<path d="M89.227 108.465L89.7511 111.266C89.7544 111.284 89.7452 111.3 89.7296 111.304L89.6897 111.284L89.2807 110.358C89.1886 110.15 89.0002 110.002 88.7894 109.973C85.194 109.473 82.1165 113.975 82.1165 113.975C82.2165 110.773 86.7496 108.806 88.3543 108.952C88.4897 108.964 88.7702 108.828 88.8445 108.713L89.0398 108.413C89.0626 108.377 89.1045 108.362 89.1456 108.373C89.1865 108.385 89.2187 108.421 89.227 108.465Z" fill="#F57770"/>
<path d="M93.8549 114.333L93.5665 114.025C93.9991 112.943 94.3322 111.803 94.5835 110.655L94.5741 112.299L93.8549 114.333Z" fill="#E8E8E5"/>
<path d="M91.5256 117.606C92.3724 116.561 93.0424 115.337 93.5666 114.027L93.855 114.335L93.114 116.43L91.5256 117.606Z" fill="#E8E8E5"/>
<path d="M87.9552 120.253L85.5118 119.889L79.9733 114.749L78.3563 108.728L85.7065 104.981C85.7045 105.064 85.6992 105.146 85.6909 105.228L83.7934 106.173C83.8506 106.232 84.3175 106.788 84.8789 107.46C84.757 107.666 84.6714 107.787 84.6714 107.787C84.6714 107.787 84.7924 107.722 84.9805 107.581C84.9865 107.588 84.9924 107.595 84.9984 107.603C84.8492 107.808 84.7486 107.928 84.7486 107.928C84.8628 107.853 84.9736 107.777 85.0807 107.701C85.5498 108.263 86.0563 108.871 86.4332 109.324C84.5211 110.031 82.1879 111.688 82.1165 113.975C82.1165 113.975 82.1589 113.913 82.2397 113.804C83.9821 112.198 85.8977 111.148 87.6192 110.756L90.8348 114.658L90.4969 116.877L92.5655 116.086L93.9116 111.866L92.9042 108.531L87.6547 104.976C87.7543 104.772 87.8329 104.571 87.8922 104.373L94.5959 108.521L94.5836 110.653C94.3323 111.802 93.9991 112.943 93.5666 114.025C93.0424 115.336 92.3723 116.56 91.5256 117.606L87.9552 120.253ZM87.3264 112.498C86.6386 112.498 85.7612 112.775 85.0738 113.919C85.0738 113.919 86.6283 112.74 88.4198 112.74C88.4284 112.74 88.4369 112.74 88.4455 112.74C88.4455 112.74 87.9688 112.498 87.3264 112.498Z" fill="#F5D7BC"/>
<path d="M84.7485 107.928C84.7485 107.928 84.8491 107.808 84.9983 107.603C85.0258 107.636 85.053 107.668 85.0807 107.701C84.9736 107.777 84.8628 107.853 84.7485 107.928ZM87.6546 104.978L87.0381 104.56L86.8834 104.637C86.908 104.543 86.931 104.447 86.9519 104.348L87.4433 104.098L87.8921 104.376C87.8328 104.574 87.7543 104.774 87.6546 104.978Z" fill="#F6CDAF"/>
<path d="M84.6714 107.787C84.6714 107.787 84.757 107.666 84.8789 107.46C84.9123 107.5 84.9463 107.54 84.9805 107.581C84.7923 107.722 84.6714 107.787 84.6714 107.787ZM85.6909 105.23C85.6992 105.148 85.7045 105.065 85.7065 104.983L86.952 104.348C86.931 104.447 86.908 104.543 86.8834 104.637L85.6909 105.23Z" fill="#ECAFA1"/>
<path d="M82.2396 113.804C82.7336 113.139 84.66 110.729 87.07 110.092L87.6191 110.758C85.8976 111.15 83.982 112.199 82.2396 113.804Z" fill="#F6CDAF"/>
<path d="M85.0737 113.919C85.7611 112.775 86.6385 112.499 87.3263 112.499C87.9687 112.499 88.4454 112.741 88.4454 112.741C88.4368 112.741 88.4284 112.741 88.4197 112.741C86.6282 112.741 85.0737 113.919 85.0737 113.919Z" fill="#ECAFA1"/>
<path d="M82.1165 113.975C82.1879 111.688 84.5211 110.031 86.4332 109.324C86.778 109.738 87.0144 110.022 87.0144 110.022L87.0701 110.09C84.6601 110.727 82.7337 113.138 82.2397 113.804C82.1589 113.913 82.1165 113.975 82.1165 113.975Z" fill="#F8AEA8"/>
<path d="M90.4968 116.877L90.8347 114.658L87.6191 110.756C88.1197 110.642 88.6039 110.584 89.0626 110.584C89.1714 110.584 89.2788 110.587 89.3848 110.594L89.6897 111.284L89.7296 111.304C89.7451 111.3 89.7544 111.284 89.7511 111.266L89.2269 108.465C89.2187 108.421 89.1864 108.385 89.1455 108.373C89.1365 108.371 89.1275 108.37 89.1186 108.37C89.0872 108.37 89.0576 108.385 89.0397 108.413L88.8445 108.713C88.7732 108.823 88.5131 108.952 88.3723 108.952C88.366 108.952 88.3601 108.952 88.3543 108.952C88.2984 108.946 88.2393 108.944 88.1767 108.944C87.7251 108.944 87.1051 109.075 86.4331 109.324C86.0562 108.871 85.5498 108.263 85.0807 107.701C86.4228 106.756 87.2303 105.842 87.6546 104.976L92.9041 108.532L93.9115 111.866L92.5654 116.086L90.4968 116.877ZM84.9983 107.603C84.9924 107.595 84.9864 107.588 84.9805 107.581C85.0043 107.563 85.0292 107.544 85.0552 107.524C85.0356 107.551 85.0166 107.578 84.9983 107.603ZM84.8789 107.46C84.3175 106.788 83.8506 106.232 83.7933 106.173L85.6909 105.229C85.5999 106.125 85.1496 107.002 84.8789 107.46Z" fill="#F2E4D4"/>
<path d="M85.0807 107.701C85.053 107.668 85.0257 107.635 84.9983 107.603C85.0165 107.578 85.0355 107.551 85.0551 107.524C85.5705 107.119 86.4688 106.218 86.8833 104.637L87.0381 104.56L87.6546 104.977C87.2303 105.843 86.4227 106.757 85.0807 107.701Z" fill="#F3DFCE"/>
<path d="M84.9805 107.581C84.9463 107.54 84.9123 107.5 84.8789 107.46C85.1496 107.002 85.5999 106.126 85.6909 105.23L86.8834 104.637C86.4689 106.218 85.5705 107.119 85.0552 107.524C85.0292 107.544 85.0043 107.563 84.9805 107.581Z" fill="#EECEC6"/>
<path d="M87.6192 110.756L87.0701 110.09C87.4452 109.991 87.8317 109.935 88.2267 109.935C88.4125 109.935 88.6003 109.948 88.7894 109.974C89.0002 110.003 89.1886 110.151 89.2808 110.359L89.3848 110.594C89.2788 110.587 89.1715 110.584 89.0626 110.584C88.604 110.584 88.1197 110.642 87.6192 110.756Z" fill="#F3DFCE"/>
<path d="M89.7296 111.304L89.6896 111.284L89.3847 110.594L89.2807 110.359C89.1885 110.151 89.0001 110.003 88.7893 109.974C88.6002 109.948 88.4124 109.935 88.2266 109.935C87.8316 109.935 87.4451 109.991 87.07 110.091L87.0143 110.023C87.0143 110.023 86.7779 109.739 86.4331 109.325C87.1051 109.077 87.7251 108.946 88.1767 108.946C88.2392 108.946 88.2984 108.948 88.3543 108.953C88.36 108.954 88.366 108.954 88.3723 108.954C88.513 108.954 88.7732 108.824 88.8444 108.715L89.0397 108.415C89.0576 108.387 89.0871 108.372 89.1186 108.372C89.1274 108.372 89.1365 108.373 89.1455 108.375C89.1864 108.387 89.2186 108.423 89.2269 108.467L89.7511 111.266C89.7543 111.284 89.7451 111.3 89.7296 111.304Z" fill="#F3CDCA"/>
<path d="M79.2985 111.279L54.7977 105.412L56.2953 106.875L79.488 112.212C79.488 112.212 80.068 111.386 79.2985 111.279Z" fill="#DFE0DC"/>
<path d="M84.6401 118.912L59.9937 112.983L61.6854 114.334L85.5118 119.889C85.5118 119.889 85.426 118.93 84.6401 118.912Z" fill="#DFE0DC"/>
<path d="M90.8141 92.3666L88.5711 104.87C88.5506 104.985 88.6063 105.1 88.7096 105.155L88.8935 105.255C88.9693 105.296 89.0601 105.299 89.1387 105.264C89.2172 105.228 89.2742 105.158 89.2927 105.075L91.891 93.8011L90.8141 92.3666Z" fill="#DFE0DC"/>
<path d="M94.5981 112.14L95.2995 106.826L95.2296 103.213L94.4192 110.168L94.5981 112.14Z" fill="#DFE0DC"/>
<path d="M119.824 175.233L166.518 176.577L164.268 165.852C163.642 162.865 161.437 160.633 158.781 160.297L121.05 155.527C120.738 155.488 120.425 155.604 120.192 155.844C119.958 156.084 119.824 156.429 119.824 156.79V175.233ZM167.988 181.346C167.964 181.346 167.939 181.346 167.915 181.345L118.599 179.926C116.981 179.879 115.713 178.385 115.713 176.523V156.79C115.713 155.088 116.346 153.459 117.448 152.323C118.407 151.336 119.643 150.793 120.929 150.793C121.119 150.793 121.311 150.805 121.499 150.829L159.23 155.598C163.603 156.151 167.234 159.826 168.265 164.744L170.866 177.145C171.08 178.166 170.865 179.264 170.291 180.082C169.726 180.886 168.887 181.346 167.988 181.346Z" fill="#DFE0DC"/>
<path d="M131.545 177.66H128.462V154.281H131.545V177.66Z" fill="#DFE0DC"/>
<path d="M148.485 177.66H145.402V154.281H148.485V177.66Z" fill="#DFE0DC"/>
<path d="M166.729 169.613L129.932 167.646L130.075 164.105L166.872 166.072L166.729 169.613Z" fill="#DFE0DC"/>
<path d="M49.5275 145.84L83.1396 175.706L87.8452 166.898C89.1556 164.445 88.8549 161.535 87.0969 159.656L62.1222 132.976C61.9156 132.755 61.616 132.641 61.3019 132.663C60.987 132.684 60.6837 132.84 60.4696 133.089L49.5275 145.84ZM81.3934 179.916C81.3753 179.9 81.3573 179.885 81.3394 179.869L45.8402 148.325C44.6751 147.29 44.6277 145.471 45.7321 144.184L57.4402 130.541C58.4501 129.364 59.8821 128.631 61.3687 128.529C62.6605 128.44 63.8939 128.83 64.842 129.627C64.9818 129.745 65.1162 129.872 65.241 130.006L90.2158 156.686C93.1102 159.779 93.6054 164.57 91.4478 168.608L86.0066 178.794C85.5584 179.633 84.7488 180.259 83.8404 180.468C82.9474 180.674 82.0556 180.472 81.3934 179.916Z" fill="#DFE0DC"/>
<path d="M56.7248 154.782L54.4525 152.871L68.3234 136.708L70.5955 138.619L56.7248 154.782Z" fill="#DFE0DC"/>
<path d="M69.208 165.28L66.9359 163.369L80.8068 147.206L83.0789 149.117L69.208 165.28Z" fill="#DFE0DC"/>
<path d="M87.4263 171.023L61.4772 146.859L63.6838 144.499L89.633 168.664L87.4263 171.023Z" fill="#DFE0DC"/>
</g>
<g filter="url(#filter0_d_177_2)">
<path d="M162.133 41.5669L169.301 33.6263C133.201 9.14028 115.268 12.197 82.0051 24.7096C81.3009 24.9745 80.0425 26.1926 80.7251 27.2063C81.4078 28.22 82.0051 28.9802 82.0051 28.9802L84.1384 32.4437C119.043 18.9226 136.28 20.3046 162.133 41.5669Z" fill="url(#paint0_angular_177_2)" shape-rendering="crispEdges"/>
<path d="M50.5171 68.4297C60.3563 51.1437 67.3439 42.897 84.1384 32.4437L82.0051 28.9802C65.6938 39.3384 57.5486 48.433 44.1723 68.4297C46.0876 70.0045 47.4714 69.9921 50.5171 68.4297Z" fill="white" fill-opacity="0.2" shape-rendering="crispEdges"/>
<path d="M41.6425 71.4708C44.2491 73.7736 49.3225 72.6478 49.8345 72.141C50.3465 71.6341 50.5325 71.0629 50.5171 70.7894V68.4297C47.4714 69.9921 46.0876 70.0045 44.1723 68.4297L41.6425 71.4708Z" fill="white" fill-opacity="0.2" shape-rendering="crispEdges"/>
<path fill-rule="evenodd" clip-rule="evenodd" d="M212.65 211.698L207.189 208.319L172.032 147.836V145.808C168.89 146.327 166.208 144.343 165.546 141.192C165.464 140.799 165.413 140.388 165.396 139.961L164.522 132.799C165.53 131.085 166.501 129.746 167.507 128.744C170.908 125.358 174.718 125.83 181.76 128.744L187.648 138.036L216.234 183.146L219.818 208.319L212.65 211.698Z" fill="#C2D0CD" shape-rendering="crispEdges"/>
<path d="M181.76 128.744C185.67 102.032 183.466 81.1064 180.394 71.4708C177.322 61.8351 170.325 61.4972 166.912 71.4708C163.498 81.4443 160.23 105.147 167.507 128.744C170.908 125.358 174.718 125.83 181.76 128.744Z" fill="#C2D0CD" shape-rendering="crispEdges"/>
<path d="M168.106 50.6901C155.055 83.3881 152.605 102.789 165.546 141.192C165.464 140.799 165.413 140.388 165.396 139.961L164.522 132.799C165.53 131.085 166.501 129.746 167.507 128.744C160.23 105.147 163.498 81.4443 166.912 71.4708C170.325 61.4972 177.322 61.8351 180.394 71.4708C183.466 81.1064 185.67 102.032 181.76 128.744L187.648 138.036C194.326 113.002 191.578 81.2588 186.614 63.6991C184.349 56.6268 185.047 53.2366 179.882 50.6901C174.718 48.1436 172.073 49.2793 170.772 49.644C169.472 50.0087 169.25 50.3507 168.106 50.6901Z" fill="#C2D0CD" shape-rendering="crispEdges"/>
<path d="M179.882 50.6901C185.047 53.2366 184.349 56.6268 186.614 63.6991C186.413 63.0023 188.074 60.6525 188.416 59.8077C188.757 58.963 188.586 56.5977 188.245 55.753C184.132 45.5749 179.247 42.2834 169.301 33.6263L162.133 41.5669C167.449 46.3084 168.471 48.1928 168.106 50.6901C169.25 50.3507 169.472 50.0087 170.772 49.644C172.073 49.2793 174.718 48.1436 179.882 50.6901Z" fill="#C2D0CD" shape-rendering="crispEdges"/>
<path d="M218.112 208.319L212.65 211.698M218.112 208.319L176.469 142.429M218.112 208.319H219.818M212.65 211.698L207.189 208.319L172.032 147.836V145.808M212.65 211.698L219.818 208.319M172.032 145.808L176.469 142.429M172.032 145.808V144.119L174.933 134.826M172.032 145.808C168.89 146.327 166.208 144.343 165.546 141.192M176.469 142.429L179.882 128.744M174.933 134.826L179.882 128.744M174.933 134.826C170.397 133.353 168.238 133.73 165.546 138.036C165.419 138.705 165.372 139.349 165.396 139.961M179.882 128.744H181.76M181.76 128.744L187.648 138.036M181.76 128.744C185.67 102.032 183.466 81.1064 180.394 71.4708C177.322 61.8351 170.325 61.4972 166.912 71.4708C163.498 81.4443 160.23 105.147 167.507 128.744M181.76 128.744C174.718 125.83 170.908 125.358 167.507 128.744M219.818 208.319L216.234 183.146L187.648 138.036M165.546 141.192C152.605 102.789 155.055 83.3881 168.106 50.6901M165.546 141.192C165.464 140.799 165.413 140.388 165.396 139.961M165.546 141.192L165.396 139.961M168.106 50.6901C168.471 48.1928 167.449 46.3084 162.133 41.5669M168.106 50.6901C169.25 50.3507 169.472 50.0087 170.772 49.644C172.073 49.2793 174.718 48.1436 179.882 50.6901C185.047 53.2366 184.349 56.6268 186.614 63.6991M187.648 138.036C194.326 113.002 191.578 81.2588 186.614 63.6991M186.614 63.6991C186.413 63.0023 188.074 60.6525 188.416 59.8077C188.757 58.963 188.586 56.5977 188.245 55.753C184.132 45.5749 179.247 42.2834 169.301 33.6263M169.301 33.6263L162.133 41.5669M169.301 33.6263C133.201 9.14028 115.268 12.197 82.0051 24.7096C81.3009 24.9745 80.0425 26.1926 80.7251 27.2063C81.4078 28.22 82.0051 28.9802 82.0051 28.9802M162.133 41.5669C136.28 20.3046 119.043 18.9226 84.1384 32.4437M84.1384 32.4437C67.3439 42.897 60.3563 51.1437 50.5171 68.4297M84.1384 32.4437L82.0051 28.9802M50.5171 68.4297V70.7894C50.5325 71.0629 50.3465 71.6341 49.8345 72.141C49.3225 72.6478 44.2491 73.7736 41.6425 71.4708L44.1723 68.4297M50.5171 68.4297C47.4714 69.9921 46.0876 70.0045 44.1723 68.4297M44.1723 68.4297C57.5486 48.433 65.6938 39.3384 82.0051 28.9802M165.396 139.961L164.522 132.799C165.53 131.085 166.501 129.746 167.507 128.744" stroke="black" stroke-width="0.1" shape-rendering="crispEdges"/>
</g>
<defs>
<filter id="filter0_d_177_2" x="37.573" y="15.1553" width="186.3" height="204.599" filterUnits="userSpaceOnUse" color-interpolation-filters="sRGB">
<feFlood flood-opacity="0" result="BackgroundImageFix"/>
<feColorMatrix in="SourceAlpha" type="matrix" values="0 0 0 0 0 0 0 0 0 0 0 0 0 0 0 0 0 0 127 0" result="hardAlpha"/>
<feOffset dy="4"/>
<feGaussianBlur stdDeviation="2"/>
<feComposite in2="hardAlpha" operator="out"/>
<feColorMatrix type="matrix" values="0 0 0 0 0 0 0 0 0 0 0 0 0 0 0 0 0 0 0.25 0"/>
<feBlend mode="normal" in2="BackgroundImageFix" result="effect1_dropShadow_177_2"/>
<feBlend mode="normal" in="SourceGraphic" in2="effect1_dropShadow_177_2" result="shape"/>
</filter>
<radialGradient id="paint0_angular_177_2" cx="0" cy="0" r="1" gradientUnits="userSpaceOnUse" gradientTransform="translate(130.73 113.452) rotate(90) scale(98.2463 89.0879)">
<stop offset="0.416667" stop-color="#666666"/>
<stop offset="0.456117" stop-color="#888888"/>
<stop offset="0.490073" stop-color="#C6C6C6"/>
<stop offset="0.514136" stop-color="#888888"/>
<stop offset="0.547638" stop-color="#666666"/>
</radialGradient>
<clipPath id="clip0_177_2">
<rect width="230.4" height="228.08" fill="white" transform="translate(12.6295 29.3971)"/>
</clipPath>
</defs>
</svg>
