<svg width="132" height="68" viewBox="0 0 132 68" fill="none" xmlns="http://www.w3.org/2000/svg">
<path d="M67.1098 33.4646C67.1098 51.6656 52.2035 66.4291 33.8049 66.4291C15.4063 66.4291 0.5 51.6656 0.5 33.4646C0.5 15.2635 15.4063 0.5 33.8049 0.5C52.2035 0.5 67.1098 15.2635 67.1098 33.4646Z" fill="#90C7BE" stroke="#01967F"/>
<g clip-path="url(#clip0_177_2)">
<path d="M29.5797 15.2441L29.9867 16.9408L30.1996 16.857L29.9867 15.1693L29.5797 15.2441Z" fill="#D0D2CE"/>
<path d="M31.6859 14.9866L32.0929 16.9408L32.3058 16.8439L32.0929 14.9003L31.6859 14.9866Z" fill="#D0D2CE"/>
<path d="M25.3102 51.8615H23.9294V15.1694H25.4915L25.3102 51.8615Z" fill="#DFE0DC"/>
<path d="M25.3102 50.0876L23.9294 34.8665V51.8615H25.3102V50.0876Z" fill="#D0D2CE"/>
<path d="M31.5114 51.8615H19.6724V50.3951H31.5114V51.8615Z" fill="#DFE0DC"/>
<path d="M34.3794 14.8827L18.4748 16.6808L17.574 15.5624L34.2966 14.0088L34.3794 14.8827Z" fill="#DFE0DC"/>
<path d="M30.8471 37.6298L30.7588 21.9045L31.6016 21.8972L31.6898 37.6224L30.8471 37.6298Z" fill="#B1E5E8"/>
<path d="M31.0416 37.3236L30.9807 22.2077L31.3334 22.2035L31.3943 37.3193L31.0416 37.3236Z" fill="#51AD94"/>
<path d="M33.7166 21.5119L28.7905 23.5233L29.1347 17.2099H33.396L33.7166 21.5119Z" fill="#B1E5E8"/>
<path d="M33.3004 21.0943L29.1704 22.7849L29.3105 20.6178L29.365 19.7736L33.0193 19.1742L33.3004 21.0943Z" fill="#60C8AA"/>
<path d="M33.3004 21.0943L29.1704 22.7849L29.3105 20.6178L33.3004 21.0943Z" fill="#51AD94"/>
<path d="M32.7233 21.9175L32.1604 21.561L32.3824 21.4702L32.7233 21.9175ZM29.364 19.79L29.0065 19.5636L29.1348 17.2099L30.8976 19.5223L29.3651 19.7736L29.364 19.79Z" fill="#C2EAEA"/>
<path d="M31.9752 20.936L30.9874 20.8181L29.364 19.7899L29.3651 19.7736L30.8976 19.5222L31.9752 20.936Z" fill="#80D3BB"/>
<path d="M32.1604 21.5609L30.9874 20.8185L31.9753 20.9364L32.3824 21.4702L32.1604 21.5609Z" fill="#76C2AB"/>
<path d="M32.522 20.8153L29.9867 21.0944V18.3273L32.522 18.4037V20.8153Z" fill="#DFE0DC"/>
<path d="M29.9129 17.4478L29.7111 16.606L30.403 16.435L30.5327 17.376L29.9129 17.4478Z" fill="#B1E5E8"/>
<path d="M31.931 17.4478L31.6859 16.435H32.3923L32.6084 17.4478H31.931Z" fill="#B1E5E8"/>
<path d="M32.1327 19.1742H30.5326L30.338 18.9603H32.1327V19.1742Z" fill="#A9ABAB"/>
<path d="M32.1327 19.7776H30.5326L30.338 19.5637H32.1327V19.7776Z" fill="#A9ABAB"/>
<path d="M30.5205 22.6394L30.6194 23.4337H31.6898L31.7407 22.2035L30.5205 22.6394Z" fill="#B1E5E8"/>
<path d="M51.1071 52.8206L50.8145 37.5243L51.917 36.0219L52.7985 38.5278V53.1494H51.1071V52.8206Z" fill="#D0D2CE"/>
<path d="M52.5205 53.1494L50.8353 38.616L51.1071 53.1494H52.5205Z" fill="#BBBBBA"/>
<path d="M52.7985 38.5278L51.1081 33.4789L49.8923 35.4392L49.5786 40.5655L49.8923 45.8827L50.327 38.8772V37.0639L50.9183 39.3316L52.7985 38.5278Z" fill="#D0D2CE"/>
<path d="M16.7238 30.1962L25.6007 38.084L26.8434 35.7577C27.1896 35.1098 27.1101 34.3413 26.6458 33.8452L20.05 26.7988C19.9954 26.7405 19.9163 26.7105 19.8334 26.7162C19.7502 26.7219 19.6701 26.7629 19.6136 26.8288L16.7238 30.1962ZM25.1395 39.1957C25.1348 39.1916 25.13 39.1876 25.1253 39.1834L15.7499 30.8526C15.4423 30.5792 15.4297 30.0989 15.7214 29.759L18.8135 26.1559C19.0802 25.845 19.4584 25.6513 19.851 25.6243C20.1922 25.6009 20.518 25.7039 20.7684 25.9145C20.8053 25.9456 20.8407 25.9792 20.8737 26.0145L27.4695 33.0608C28.2339 33.8775 28.3647 35.1429 27.7949 36.2095L26.3579 38.8995C26.2396 39.1211 26.0257 39.2864 25.7858 39.3416C25.55 39.3959 25.3144 39.3427 25.1395 39.1957Z" fill="#DFE0DC"/>
<path d="M18.6245 32.5579L18.0244 32.0532L21.6877 27.7845L22.2878 28.2891L18.6245 32.5579Z" fill="#DFE0DC"/>
<path d="M21.9214 35.3306L21.3213 34.8259L24.9846 30.5571L25.5847 31.0618L21.9214 35.3306Z" fill="#DFE0DC"/>
<path d="M26.7328 36.8473L19.8796 30.4654L20.4624 29.8423L27.3156 36.2241L26.7328 36.8473Z" fill="#DFE0DC"/>
<path d="M32.6434 39.21L43.463 39.5215L42.9418 37.0363C42.7967 36.3443 42.2857 35.827 41.6703 35.7492L32.9274 34.6439C32.8551 34.6348 32.7825 34.6617 32.7286 34.7173C32.6745 34.7731 32.6434 34.853 32.6434 34.9365V39.21ZM43.8038 40.6267C43.7981 40.6267 43.7924 40.6266 43.7867 40.6265L32.3595 40.2975C31.9845 40.2868 31.6908 39.9405 31.6908 39.5092V34.9365C31.6908 34.542 31.8373 34.1648 32.0929 33.9016C32.3149 33.6728 32.6013 33.5468 32.8994 33.5468C32.9433 33.5468 32.9878 33.5497 33.0315 33.5552L41.7744 34.6604C42.7876 34.7885 43.629 35.6401 43.868 36.7795L44.4706 39.6532C44.5203 39.8898 44.4705 40.1443 44.3374 40.3337C44.2065 40.5199 44.0121 40.6267 43.8038 40.6267Z" fill="#DFE0DC"/>
<path d="M35.3594 39.7726H34.6449V34.3553H35.3594V39.7726Z" fill="#DFE0DC"/>
<path d="M39.2845 39.7726H38.5701V34.3553H39.2845V39.7726Z" fill="#DFE0DC"/>
<path d="M43.512 37.908L34.9855 37.4521L35.0187 36.6316L43.5452 37.0874L43.512 37.908Z" fill="#DFE0DC"/>
<path d="M10.8607 36.9208L13.7976 29.9828L9.26099 37.4633L19.1402 48.4767L50.8144 49.6105L50.2319 46.9202L22.8104 45.1242L10.8607 36.9208Z" fill="#A9ABAB"/>
<path d="M50.2319 43.0823V46.9202L20.8499 46.1034L10.8606 36.9208L10.655 36.5765L10.5454 36.5194L13.3095 33.6728L13.4717 33.5058L22.7557 42.0758L50.2319 43.0823Z" fill="#5975B4"/>
<path d="M50.2319 45.8921V46.9202L20.8499 46.1034L10.8606 36.9208L10.5454 36.5194L13.3095 33.6728L22.8102 44.0638L50.2319 45.8921Z" fill="#4C649E"/>
<path d="M20.9604 48.5419V50.7184H48.6092L48.0999 49.5133L20.9604 48.5419Z" fill="#898C8C"/>
<path d="M17.4908 49.4109L18.1988 53.1494H52.7985L52.2066 50.6901L17.4908 49.4109Z" fill="#A9ABAB"/>
<path d="M17.4908 49.4109L48.6093 51.9091L17.829 51.2801L17.4908 49.4109Z" fill="#D0D2CE"/>
<path d="M19.4071 52.2235L18.401 55.7687H20.4947L22.008 52.2235H19.4071Z" fill="#898C8C"/>
<path d="M19.0687 54.9677H19.9515V57.09H19.1948L19.0687 54.9677Z" fill="#575B5C"/>
<path d="M21.1015 57.234C21.1015 58.1042 20.389 58.8094 19.5101 58.8094C18.6312 58.8094 17.9187 58.1042 17.9187 57.234C17.9187 56.3639 18.6312 55.6586 19.5101 55.6586C20.389 55.6586 21.1015 56.3639 21.1015 57.234Z" fill="#626567"/>
<path d="M20.4304 57.234C20.4304 57.7372 20.0183 58.1449 19.5101 58.1449C19.0018 58.1449 18.5897 57.7372 18.5897 57.234C18.5897 56.7309 19.0018 56.323 19.5101 56.323C20.0183 56.323 20.4304 56.7309 20.4304 57.234Z" fill="#515455"/>
<path d="M19.9457 57.2343C19.9457 57.4722 19.7507 57.6652 19.5101 57.6652C19.2696 57.6652 19.0746 57.4722 19.0746 57.2343C19.0746 56.9963 19.2696 56.8034 19.5101 56.8034C19.7507 56.8034 19.9457 56.9963 19.9457 57.2343Z" fill="#717577"/>
<path d="M50.8831 52.2235L51.8892 55.7687H49.7955L48.2822 52.2235H50.8831Z" fill="#898C8C"/>
<path d="M51.2216 54.9677H50.3389V57.09H51.0955L51.2216 54.9677Z" fill="#575B5C"/>
<path d="M49.1887 57.234C49.1887 58.1042 49.9013 58.8094 50.7802 58.8094C51.6591 58.8094 52.3716 58.1042 52.3716 57.234C52.3716 56.3639 51.6591 55.6586 50.7802 55.6586C49.9013 55.6586 49.1887 56.3639 49.1887 57.234Z" fill="#626567"/>
<path d="M49.8599 57.234C49.8599 57.7372 50.2719 58.1449 50.7802 58.1449C51.2885 58.1449 51.7005 57.7372 51.7005 57.234C51.7005 56.7309 51.2885 56.323 50.7802 56.323C50.2719 56.323 49.8599 56.7309 49.8599 57.234Z" fill="#515455"/>
<path d="M50.3446 57.2343C50.3446 57.4722 50.5396 57.6652 50.7802 57.6652C51.0207 57.6652 51.2158 57.4722 51.2158 57.2343C51.2158 56.9963 51.0207 56.8034 50.7802 56.8034C50.5396 56.8034 50.3446 56.9963 50.3446 57.2343Z" fill="#717577"/>
<path d="M13.4718 33.5058L16.5367 26.9477L24.0726 38.1624L49.2907 39.4562L50.2319 43.0823L43.9143 43.3402L22.4205 42.3723L13.4718 33.5058Z" fill="#5975B4"/>
<path d="M10.5454 36.5194L14.0868 29.3811L17.2581 27.0987L13.7588 34.1642L10.5454 36.5194Z" fill="#4C649E"/>
<path d="M33.0245 39.3369C33.0245 39.3369 33.5292 39.7211 33.7407 40.1333C33.9522 40.5455 34.4174 41.4061 34.0652 41.8691C34.0652 41.8691 34.0747 42.1642 33.7735 42.0577C33.7735 42.0577 33.7189 42.2437 33.5185 42.2694C33.3222 42.2946 33.4437 41.2782 32.8623 40.8068C32.8528 40.799 32.84 40.7963 32.8281 40.7994C32.8161 40.8025 32.8064 40.8111 32.8019 40.8226C32.7808 40.8765 32.7565 40.978 32.7864 41.1227C32.8328 41.3476 32.8543 41.3846 32.7966 41.4188C32.6525 41.5044 32.544 41.4553 32.4322 41.0473C32.3204 40.6393 32.2943 40.5109 32.3378 40.3216C32.3814 40.1324 32.3891 39.9847 32.3217 39.8016L33.0245 39.3369Z" fill="#FBC290"/>
<path d="M33.4059 40.7547C33.4059 40.7547 33.8282 41.6605 33.7735 42.0576L33.8714 42.08C33.8714 42.08 33.9622 41.5071 33.4059 40.7547Z" fill="#F9AC7B"/>
<path d="M34.0652 41.8691C34.0652 41.8691 34.0379 41.2634 33.6311 40.6428C33.6311 40.6428 34.0942 41.1824 34.1339 41.7511L34.0652 41.8691Z" fill="#F9AC7B"/>
<path d="M32.7783 38.7932L33.1066 39.2869C33.1363 39.3317 33.1242 39.3919 33.0793 39.4219L32.4084 39.8708C32.3836 39.8874 32.3531 39.8931 32.324 39.8867C32.2948 39.8803 32.2696 39.8624 32.2542 39.8371L31.9274 39.2983L32.7783 38.7932Z" fill="#50C1C8"/>
<path d="M32.759 38.8565L33.0113 39.243C33.0342 39.278 33.0304 39.3216 33.0028 39.3407L32.5893 39.6255C32.5741 39.636 32.5542 39.6381 32.5345 39.6314C32.5147 39.6247 32.4967 39.6097 32.4847 39.59L32.2302 39.1704L32.759 38.8565Z" fill="#50C1C8"/>
<path d="M29.4131 33.7309C30.7377 35.8744 32.357 37.9175 32.79 38.5653C32.863 38.6745 32.837 38.8211 32.7307 38.8989L32.1095 39.3535C32.0004 39.4333 31.8471 39.4119 31.7646 39.3053C31.1024 38.4509 28.406 34.998 27.368 34.0835C25.788 33.11 26.29 32.1154 26.0179 31.363C26.381 31.4167 27.8097 31.1366 29.4131 33.7309Z" fill="#5FCACE"/>
<path d="M32.5695 38.9685C32.5695 38.9685 32.1167 37.8404 31.426 37.3985C31.426 37.3985 32.1611 38.4279 32.4285 39.0522L32.5695 38.9685Z" fill="#5FCACE"/>
<path d="M31.6584 38.048C31.7293 38.1649 31.888 38.1994 32.0131 38.1252C32.1381 38.051 32.182 37.8961 32.1111 37.7793C32.0402 37.6625 31.8814 37.6279 31.7564 37.7021C31.6314 37.7763 31.5875 37.9312 31.6584 38.048Z" fill="#5FCACE"/>
<path d="M30.0717 43.0942L29.6443 40.2388L34.872 40.0155C35.2987 39.9972 35.7362 40.0038 36.1487 40.0344C37.5189 40.1362 40.4409 40.3748 41.0833 40.6194L41.0254 41.471C41.0254 41.471 33.156 40.8456 30.0717 43.0942Z" fill="#F9AC7B"/>
<path d="M40.9155 41.4638C40.9155 41.4638 41.4247 41.9205 41.7823 41.394C42.1346 40.8753 42.5266 39.8468 42.107 39.8467C41.6779 39.8465 41.5264 40.4423 40.9852 40.5834C40.8413 40.6209 40.9155 41.4638 40.9155 41.4638Z" fill="#F9AC7B"/>
<path d="M41.2433 41.633C41.2433 41.633 41.8451 41.4847 41.9645 40.9257C42.0837 40.3679 42.3998 40.1077 42.1929 39.8665C42.4102 39.8085 42.6363 39.8751 42.6101 40.2319C42.5838 40.5882 42.4024 40.9818 42.3183 41.1333C42.234 41.2853 41.663 41.4397 41.8546 41.4893C42.0442 41.5385 42.3619 41.3451 42.393 41.4499C42.4241 41.5544 41.726 41.7527 41.5567 41.7461C41.3859 41.7393 41.2441 41.7752 41.2433 41.633Z" fill="#3C1A18"/>
<path d="M42.2206 40.5452C42.2206 40.5452 41.561 40.2268 41.574 40.1357C41.6567 40.0398 41.7363 39.9774 41.7363 39.9774C41.7363 39.9774 42.203 40.2892 42.2773 40.3052C42.2754 40.4932 42.2206 40.5452 42.2206 40.5452Z" fill="#3C1A18"/>
<path d="M41.9075 41.1554C41.9075 41.1554 41.1218 40.5911 41.1531 40.4596C41.2738 40.3315 41.385 40.2523 41.385 40.2523C41.385 40.2523 41.926 40.7786 42.0171 40.813C41.9849 41.0874 41.9075 41.1554 41.9075 41.1554Z" fill="#3C1A18"/>
<path d="M41.7306 41.4179C41.7306 41.4179 40.9181 41.3722 40.9015 41.4823C40.9388 41.5002 41.0119 41.5568 41.0119 41.5568C41.0119 41.5568 41.4786 41.4946 41.659 41.5112C41.7321 41.4369 41.7306 41.4179 41.7306 41.4179Z" fill="#3C1A18"/>
<path d="M40.5513 41.4834C40.5513 41.4834 40.7799 40.5551 40.7372 40.5049C40.9149 40.5483 40.994 40.555 40.994 40.555C40.994 40.555 40.8355 41.386 40.7913 41.4939C40.6903 41.4797 40.5513 41.4834 40.5513 41.4834Z" fill="#3C1A18"/>
<path d="M40.1372 41.4626C40.1372 41.4626 40.3626 40.4465 40.3185 40.3911C40.5005 40.4401 40.5815 40.4481 40.5815 40.4481C40.5815 40.4481 40.4268 41.3581 40.3826 41.476C40.2793 41.4596 40.1372 41.4626 40.1372 41.4626Z" fill="#3C1A18"/>
<path d="M29.7977 41.2114L29.819 38.3189L34.598 38.1327C35.0247 38.1144 35.4622 38.121 35.8747 38.1516C37.245 38.2533 40.167 38.492 40.8093 38.7366L40.7515 39.5882C40.7515 39.5882 32.882 38.9628 29.7977 41.2114Z" fill="#F9AC7B"/>
<path d="M40.6414 39.581C40.6414 39.581 41.1506 40.0377 41.5082 39.5112C41.8605 38.9925 42.2526 37.964 41.833 37.9639C41.4039 37.9637 41.2524 38.5595 40.7112 38.7006C40.5673 38.7381 40.6414 39.581 40.6414 39.581Z" fill="#F9AC7B"/>
<path d="M40.9694 39.7501C40.9694 39.7501 41.5712 39.6019 41.6906 39.0429C41.8097 38.4851 42.1259 38.2249 41.919 37.9837C42.1363 37.9257 42.3624 37.9923 42.3361 38.3491C42.3099 38.7053 42.1284 39.099 42.0444 39.2505C41.96 39.4025 41.3891 39.5569 41.5807 39.6065C41.7703 39.6557 42.088 39.4623 42.1191 39.5671C42.1501 39.6716 41.4521 39.8699 41.2828 39.8632C41.112 39.8565 40.9702 39.8924 40.9694 39.7501Z" fill="#3C1A18"/>
<path d="M41.9467 38.6624C41.9467 38.6624 41.287 38.344 41.3001 38.253C41.3828 38.157 41.4624 38.0946 41.4624 38.0946C41.4624 38.0946 41.9291 38.4064 42.0033 38.4224C42.0015 38.6104 41.9467 38.6624 41.9467 38.6624Z" fill="#3C1A18"/>
<path d="M41.6336 39.2726C41.6336 39.2726 40.8479 38.7083 40.8792 38.5768C40.9999 38.4487 41.1111 38.3694 41.1111 38.3694C41.1111 38.3694 41.6521 38.8958 41.7432 38.9302C41.7111 39.2046 41.6336 39.2726 41.6336 39.2726Z" fill="#3C1A18"/>
<path d="M41.4567 39.5351C41.4567 39.5351 40.644 39.4894 40.6276 39.5995C40.6648 39.6174 40.7379 39.674 40.7379 39.674C40.7379 39.674 41.2046 39.6118 41.385 39.6284C41.4582 39.5541 41.4567 39.5351 41.4567 39.5351Z" fill="#3C1A18"/>
<path d="M40.2773 39.6005C40.2773 39.6005 40.506 38.6723 40.4633 38.6221C40.641 38.6655 40.7201 38.6722 40.7201 38.6722C40.7201 38.6722 40.5616 39.5032 40.5173 39.6111C40.4164 39.5968 40.2773 39.6005 40.2773 39.6005Z" fill="#3C1A18"/>
<path d="M39.8633 39.5798C39.8633 39.5798 40.0887 38.5637 40.0446 38.5083C40.2266 38.5573 40.3076 38.5653 40.3076 38.5653C40.3076 38.5653 40.1529 39.4753 40.1087 39.5931C40.0054 39.5768 39.8633 39.5798 39.8633 39.5798Z" fill="#3C1A18"/>
<path d="M28.866 42.7363C28.866 42.7363 30.2132 42.0766 30.3214 41.8806C30.1731 42.1761 29.4717 42.5997 28.9522 42.8095L28.6211 42.8829L28.866 42.7363Z" fill="#343537"/>
<path d="M19.8301 31.2253L21.1369 32.9895L20.7597 34.389L21.4924 34.4219L24.5895 34.1207L25.0048 31.3988C25.0048 31.3988 23.7782 31.6832 23.6023 31.4739C23.4264 31.2645 22.1211 29.8948 22.1211 29.8948L19.8301 31.2253Z" fill="#F8A06E"/>
<path d="M29.0198 35.0157L29.0176 35.0194L29.0203 35.0167L29.0198 35.0157Z" fill="#ACC750"/>
<path d="M34.3911 37.869L34.564 41.4445C34.564 41.4445 32.2328 42.3953 29.1085 43.8408C28.9888 43.896 28.8727 43.9419 28.7596 43.9796C27.4461 43.6679 26.2601 43.2286 25.8198 42.4664C25.7924 42.4187 25.7681 42.3696 25.7466 42.3193C25.7115 42.2367 25.6845 42.1513 25.6669 42.0619C25.6636 42.0482 25.6611 42.0338 25.6586 42.0194C25.4419 41.4527 25.2592 40.8741 25.1502 40.5065L25.1495 40.5041C25.0744 40.2502 24.9245 40.0225 24.7203 39.8509L20.028 36.5051C19.9524 36.2628 19.9139 36.1045 19.9055 36.0688L19.9054 36.0683L19.9079 36.0583C20.0123 35.5979 20.2624 34.7383 20.7624 34.1796C21.8335 34.0587 22.9568 33.6204 23.4535 33.2042C23.5539 33.1194 23.7219 32.9693 23.8037 32.8834C24.3615 32.2983 24.835 31.2797 24.835 31.2797L26.775 31.4161L27.0338 33.026C27.0338 33.026 29.4222 33.4266 28.7046 35.1059L28.7018 35.1093C28.6635 35.2 28.6155 35.2938 28.5571 35.3916L28.7413 35.663L29.1733 36.377C29.3398 36.6527 29.5436 36.9037 29.7785 37.1232C29.8678 37.2071 29.9614 37.2862 30.0594 37.3604L30.8433 37.9551C30.8433 37.9551 32.016 37.8612 33.353 37.8373C33.6923 37.8314 34.045 37.8112 34.3911 37.869Z" fill="#50C1C8"/>
<path d="M24.3463 38.1019C25.0338 38.2814 26.1085 37.5917 26.8241 36.7324C27.6319 36.4042 28.4005 35.8995 28.741 35.6628L28.5572 35.3919C28.6155 35.2936 28.6633 35.2001 28.7021 35.1091C28.6655 35.1783 28.1439 36.1308 26.5862 36.4216C26.5862 36.4216 26.5061 37.2962 24.3463 38.1019Z" fill="#43A0A2"/>
<path d="M34.2495 38.0003L34.2035 38.3868L33.7451 42.2245C33.7451 42.2245 31.2877 42.7818 27.9654 43.6982C27.8384 43.7331 27.716 43.7597 27.5983 43.7783C26.0547 44.0243 25.3099 42.9189 24.9507 41.8063C24.9338 41.7536 24.9177 41.7017 24.9029 41.649C24.6294 40.7127 24.6165 39.816 24.6161 39.7643L24.616 39.7618C25.9328 40.4756 29.7442 37.1817 29.7442 37.1817L34.2495 38.0003Z" fill="#E4B833"/>
<path d="M44.9294 39.2703C44.9294 39.2703 44.5152 37.1756 39.0805 37.4706C33.6458 37.7656 32.3212 37.3646 32.3212 37.3646L29.3299 35.4477L23.8856 42.1617L24.9993 42.9241C26.0638 43.6529 27.3486 44.0666 28.677 44.1123C32.5013 44.244 40.3649 44.5192 40.4833 44.5591C40.6398 44.6118 45.5464 44.4193 45.5464 44.4193L44.9294 39.2703Z" fill="#E7EDEC"/>
<path d="M45.004 39.8936L24.7827 42.2343L24.7882 42.2397C25.9692 43.3939 27.6009 44.075 29.3276 44.1348C33.3252 44.273 40.3713 44.5213 40.4833 44.5591C40.6398 44.6118 45.5464 44.4193 45.5464 44.4193L45.004 39.8936Z" fill="#E7EDEC"/>
<path d="M30.4439 42.0175C30.4439 42.0175 31.2972 42.1656 31.9093 41.9969C32.5216 41.8281 33.8212 41.4991 33.9668 40.7237C33.9668 40.7237 34.2745 40.4618 33.8898 40.2606C33.8898 40.2606 34.0282 40.0355 33.87 39.8128C33.7151 39.5946 32.7966 40.6496 31.7845 40.5055C31.7679 40.5031 31.7534 40.4929 31.7455 40.4782C31.7377 40.4635 31.7375 40.4459 31.7449 40.4309C31.7802 40.3604 31.8607 40.2431 32.0349 40.1396C32.3054 39.979 32.3627 39.9664 32.3444 39.8777C32.2987 39.6558 32.1492 39.5932 31.6329 39.8572C31.1166 40.1212 30.9625 40.2132 30.8107 40.4305C30.6589 40.6477 30.5164 40.7911 30.2688 40.8925L30.4439 42.0175Z" fill="#FBC290"/>
<path d="M32.2313 41.0931C32.2313 41.0931 33.5375 40.6802 33.8898 40.2611L34.0024 40.3378C34.0024 40.3378 33.5053 40.9541 32.2313 41.0931Z" fill="#F9AC7B"/>
<path d="M33.9667 40.7242C33.9667 40.7242 33.3277 41.2536 32.3248 41.4198C32.3248 41.4198 33.2973 41.3837 33.9102 40.9007L33.9667 40.7242Z" fill="#F9AC7B"/>
<path d="M29.6657 42.2736L30.4682 42.1455C30.541 42.1338 30.5908 42.0664 30.5801 41.9942L30.4186 40.915C30.4127 40.8752 30.3905 40.8395 30.3572 40.8164C30.3239 40.7934 30.2825 40.7849 30.2427 40.7929L29.3959 40.9639L29.6657 42.2736Z" fill="#50C1C8"/>
<path d="M29.7125 42.196L30.3364 42.0913C30.3931 42.0817 30.4336 42.0379 30.4276 41.993L30.3364 41.3208C30.3331 41.2961 30.317 41.2744 30.292 41.261C30.267 41.2475 30.2353 41.2434 30.2043 41.2496L29.5448 41.3827L29.7125 42.196Z" fill="#50C1C8"/>
<path d="M29.5321 40.6869L29.5747 40.9279L29.6509 41.3606L29.7957 42.1819L29.8081 42.2509L29.824 42.3413C29.824 42.3413 28.0687 42.7985 25.6669 42.0619C24.916 41.8316 24.1015 41.4848 23.2582 40.971C21.2304 39.7351 20.3302 37.4624 20.028 36.5051C19.9525 36.2628 19.914 36.1045 19.9056 36.0688L19.9055 36.0683C19.9046 36.0634 19.9039 36.0609 19.9039 36.0609L19.9079 36.0583C19.9649 36.0192 20.6502 35.5571 21.1525 35.553L21.1535 35.5527C22.0268 35.5453 22.8206 36.055 23.1698 36.8474C23.8203 38.3244 25.5384 40.9164 29.5321 40.6869Z" fill="#5FCACE"/>
<path d="M14.3131 27.9623C14.5568 28.4057 14.7718 28.7698 14.9016 28.984C15.4358 29.8585 15.0672 29.0588 17.4546 31.1068C17.4788 31.1274 17.5017 31.1457 17.526 31.1664C17.5377 31.1761 17.5489 31.1845 17.5613 31.1955C17.7534 31.3427 18.1309 31.5478 18.5384 31.7545L18.5429 31.7569C18.8627 31.8918 19.2035 32.0092 19.5639 32.0968C20.7503 32.3899 22.1343 32.3689 23.5757 31.5992C24.6785 30.897 25.0644 29.309 25.14 28.0362C25.1743 27.4586 25.1464 26.9479 25.0929 26.6126C25.0198 26.1438 24.5148 25.204 23.9358 24.2446C23.427 23.4046 22.8635 22.5474 22.4821 21.9823C22.2545 21.6426 22.0922 21.4105 22.05 21.3481C22.0439 21.337 22.0392 21.3314 22.0392 21.3314C21.767 20.8713 21.8214 20.7781 21.1938 20.0321C20.1583 18.8026 17.1881 20.6595 17.1881 20.6595C17.1881 20.6595 13.2542 22.8654 12.8476 23.796C12.5604 24.453 13.438 26.336 14.1667 27.6913C14.2168 27.7831 14.265 27.8743 14.3131 27.9623Z" fill="#FBC290"/>
<path d="M14.313 27.9623C14.5566 28.4057 14.7717 28.7698 14.9015 28.984C15.4357 29.8584 15.0671 29.0588 17.4545 31.1068C17.4788 31.1274 17.5017 31.1457 17.5259 31.1664C17.5377 31.1761 17.5488 31.1845 17.5613 31.1955C17.7533 31.3427 18.1308 31.5478 18.5383 31.7545L18.5428 31.7569C18.8626 31.8918 19.2035 32.0092 19.5638 32.0968C17.769 30.5266 15.45 27.8299 14.7749 26.1992C14.1288 24.6394 14.6022 22.8973 14.9121 22.0535C13.9657 22.6833 13.0421 23.3843 12.8611 23.8208C12.592 24.4665 13.4291 26.2991 14.1666 27.6913C14.2167 27.7831 14.2649 27.8743 14.313 27.9623Z" fill="#F9AC7B"/>
<path d="M22.3821 28.5039C22.3821 28.5039 22.9808 27.7848 22.7119 27.3765C22.4429 26.9683 21.1866 25.9969 20.9761 25.6366C20.7655 25.2762 21.0218 24.3406 21.6695 23.7954C22.3172 23.2502 23.1402 23.2041 23.431 23.8342C23.7218 24.4644 22.9363 24.8953 22.4373 25.1845C21.9385 25.4738 21.833 25.5479 22.267 25.9197C22.7011 26.2915 24.1789 27.3093 22.3821 28.5039Z" fill="#F9AC7B"/>
<path d="M18.3461 25.3462C18.3461 25.3462 19.1942 25.169 19.6364 25.9977C20.0785 26.8265 19.0602 26.9021 18.5477 27.2424C18.0354 27.5827 17.3891 28.0024 17.092 27.7032C16.7948 27.4039 16.3739 26.7333 17.0345 26.1116C17.6951 25.4898 18.0264 25.3556 18.3461 25.3462Z" fill="#F9AC7B"/>
<path d="M20.9047 25.41C20.9047 25.41 21.1154 25.8279 21.4948 26.0709C21.8742 26.3138 23.0613 27.0924 22.9655 27.5514C22.8263 28.2181 22.3618 28.4667 22.3618 28.4667C22.3618 28.4667 22.8661 27.7517 22.5052 27.3359C22.1445 26.9201 20.9629 25.9654 20.9047 25.41Z" fill="#ED7B61"/>
<path d="M17.6573 25.4292C18.2301 25.1203 18.8054 25.0671 19.1308 25.2094C19.4562 25.3516 19.1373 25.5435 18.6573 25.5579C18.1773 25.5723 17.6894 25.7634 17.3253 26.2556C16.9612 26.7479 16.6866 26.9057 16.476 26.8249C16.476 26.8249 16.5567 26.0229 17.6573 25.4292Z" fill="#784C30"/>
<path d="M23.1075 23.4855C23.1075 23.4855 22.5487 23.3428 22.0892 23.6565C21.6296 23.9702 21.2561 24.4709 21.0403 24.445C20.8246 24.419 21.1545 23.5261 22.2027 23.2C23.2354 22.8786 23.2445 23.2894 23.1075 23.4855Z" fill="#784C30"/>
<path d="M16.3627 22.0592C16.3627 22.0592 17.7065 23.3669 19.7592 22.9004C21.8118 22.4338 22.2907 21.5576 23.3735 23.4332L24.4141 25.0287C24.4141 25.0287 24.5191 24.425 24.6019 23.6327C24.6848 22.8405 24.9369 22.2682 23.945 21.1709C23.945 21.1709 24.1808 21.2543 24.3514 21.5442C24.2487 20.6257 24.2998 18.0894 22.5044 17.5437C20.7091 16.9975 19.5664 17.5602 19.5664 17.5602C19.5664 17.5602 21.2055 17.4121 21.5187 16.6371C19.8635 16.8424 16.1518 16.1196 13.6029 19.8523C11.3152 20.8942 10.0814 22.7086 10.6193 24.413C11.458 27.0708 12.8541 27.6518 12.8541 27.6518C12.8541 27.6518 13.8222 27.3345 14.4079 27.9688C14.9936 28.6031 15.1334 28.6991 15.1334 28.6991C15.1334 28.6991 14.2094 27.3515 14.5343 26.7528C14.8591 26.154 15.6991 23.3719 15.1903 22.3076C14.6816 21.2434 16.8944 24.3238 18.3058 23.4472C16.6934 23.1298 16.3627 22.0592 16.3627 22.0592Z" fill="#583A25"/>
<path d="M15.1814 28.5745C15.1814 28.5745 14.6564 27.943 14.141 27.5688C13.6255 27.1946 13.2485 27.2799 12.879 27.596C12.5096 27.9121 12.9325 28.719 13.6255 29.2038C14.3185 29.6885 14.4961 31.1703 15.4044 30.9973C16.3125 30.8242 15.9922 29.8332 15.1814 28.5745Z" fill="#F9AC7B"/>
<path d="M15.1919 29.6179C15.1919 29.6179 14.733 28.355 14.2996 28.541C13.8662 28.727 14.0244 29.0609 14.4923 29.1608C14.4923 29.1608 14.127 28.7249 14.3743 28.6778C14.6216 28.6305 15.1919 29.6179 15.1919 29.6179Z" fill="#ED7B61"/>
<path d="M22.9668 24.368C23.066 24.5317 22.7314 25.0741 22.3831 25.1597C22.0348 25.2453 21.7662 25.2424 21.7662 25.2424L21.8474 25.3272C21.8474 25.3272 22.7521 25.7086 23.203 24.5443C23.3325 24.4495 23.4461 24.4022 23.4461 24.4022C23.4461 24.4022 22.9411 24.3299 22.9668 24.368Z" fill="#554442"/>
<path d="M18.788 27.0984C18.5141 27.4085 17.7549 27.3918 17.6615 27.2214C17.6413 27.1791 17.4232 27.7146 17.4232 27.7146C17.4232 27.7146 17.5301 27.6219 17.6893 27.5341C19.1972 27.7838 19.2749 26.585 19.2749 26.585L19.2065 26.4983C19.2065 26.4983 19.0618 26.7883 18.788 27.0984Z" fill="#554442"/>
<path d="M21.7196 30.0557C21.7196 30.0557 21.8256 29.54 22.4526 29.1603C23.0796 28.7806 23.5484 28.9289 23.6356 29.2106C23.0808 29.1635 22.3563 29.4693 21.7196 30.0557Z" fill="#F9AC7B"/>
<path d="M23.3585 29.7749C23.3585 29.7749 22.8192 29.5018 22.468 30.0862C22.468 30.0862 22.8824 29.7719 23.3585 29.7749Z" fill="#ED7B61"/>
<path d="M23.5649 28.6457L23.7033 29.3855C23.7042 29.3901 23.7018 29.3944 23.6977 29.3956L23.6871 29.3901L23.5791 29.1457C23.5548 29.0907 23.505 29.0517 23.4493 29.044C22.4998 28.9119 21.687 30.1008 21.687 30.1008C21.7134 29.2552 22.9106 28.7357 23.3344 28.7742C23.3702 28.7774 23.4443 28.7414 23.4639 28.7112L23.5155 28.6319C23.5215 28.6225 23.5326 28.6184 23.5434 28.6214C23.5542 28.6244 23.5627 28.634 23.5649 28.6457Z" fill="#F57770"/>
<path d="M24.7871 30.1953L24.7109 30.114C24.8252 29.8285 24.9132 29.5274 24.9795 29.2242L24.977 29.6584L24.7871 30.1953Z" fill="#E8E8E5"/>
<path d="M24.172 31.0599C24.3956 30.7838 24.5726 30.4606 24.711 30.1146L24.7872 30.1959L24.5915 30.7491L24.172 31.0599Z" fill="#E8E8E5"/>
<path d="M23.229 31.759L22.5837 31.6627L21.121 30.3052L20.694 28.7151L22.6351 27.7256C22.6346 27.7474 22.6332 27.7692 22.631 27.791L22.1299 28.0403C22.145 28.0561 22.2683 28.2028 22.4166 28.3802C22.3844 28.4346 22.3618 28.4667 22.3618 28.4667C22.3618 28.4667 22.3937 28.4496 22.4434 28.4123C22.445 28.4142 22.4466 28.4161 22.4481 28.418C22.4087 28.4721 22.3822 28.504 22.3822 28.504C22.4123 28.484 22.4416 28.464 22.4699 28.444C22.5938 28.5923 22.7275 28.7529 22.8271 28.8725C22.3221 29.0592 21.7059 29.4969 21.687 30.1009C21.687 30.1009 21.6982 30.0845 21.7196 30.0557C22.1797 29.6317 22.6857 29.3543 23.1403 29.2508L23.9895 30.2814L23.9003 30.8674L24.4466 30.6585L24.8021 29.5439L24.5361 28.6633L23.1497 27.7242C23.176 27.6704 23.1967 27.6174 23.2124 27.5651L24.9828 28.6605L24.9796 29.2235C24.9132 29.527 24.8252 29.8283 24.711 30.114C24.5726 30.4603 24.3956 30.7837 24.172 31.06L23.229 31.759ZM23.063 29.7109C22.8813 29.7109 22.6496 29.7839 22.4681 30.0862C22.4681 30.0862 22.8786 29.7747 23.3517 29.7747C23.354 29.7747 23.3563 29.7747 23.3585 29.7747C23.3585 29.7747 23.2326 29.7109 23.063 29.7109Z" fill="#F5D7BC"/>
<path d="M22.3821 28.5039C22.3821 28.5039 22.4087 28.4721 22.4481 28.4179C22.4553 28.4266 22.4625 28.4352 22.4698 28.444C22.4415 28.4639 22.4123 28.4839 22.3821 28.5039ZM23.1496 27.7246L22.9868 27.6144L22.9459 27.6347C22.9524 27.6099 22.9585 27.5845 22.964 27.5584L23.0938 27.4923L23.2123 27.5656C23.1966 27.6179 23.1759 27.6709 23.1496 27.7246Z" fill="#F6CDAF"/>
<path d="M22.3618 28.4667C22.3618 28.4667 22.3844 28.4347 22.4166 28.3802C22.4255 28.3908 22.4344 28.4016 22.4435 28.4123C22.3938 28.4496 22.3618 28.4667 22.3618 28.4667ZM22.6311 27.7914C22.6333 27.7697 22.6347 27.7479 22.6352 27.7261L22.9641 27.5585C22.9586 27.5846 22.9525 27.61 22.946 27.6348L22.6311 27.7914Z" fill="#ECAFA1"/>
<path d="M21.7196 30.0557C21.8501 29.88 22.3588 29.2436 22.9953 29.0754L23.1403 29.2513C22.6857 29.3547 22.1798 29.6319 21.7196 30.0557Z" fill="#F6CDAF"/>
<path d="M22.468 30.0862C22.6495 29.7841 22.8813 29.7112 23.0629 29.7112C23.2326 29.7112 23.3585 29.7749 23.3585 29.7749C23.3562 29.7749 23.354 29.7749 23.3517 29.7749C22.8785 29.7749 22.468 30.0862 22.468 30.0862Z" fill="#ECAFA1"/>
<path d="M21.687 30.1008C21.7059 29.4969 22.3221 29.0592 22.8271 28.8725C22.9181 28.9818 22.9806 29.0569 22.9806 29.0569L22.9953 29.0748C22.3588 29.2431 21.85 29.8799 21.7196 30.0557C21.6982 30.0844 21.687 30.1008 21.687 30.1008Z" fill="#F8AEA8"/>
<path d="M23.9003 30.8673L23.9895 30.2813L23.1403 29.2507C23.2725 29.2206 23.4004 29.2052 23.5215 29.2052C23.5502 29.2052 23.5786 29.2061 23.6066 29.2079L23.6871 29.3901L23.6977 29.3955C23.7018 29.3944 23.7042 29.3901 23.7033 29.3855L23.5649 28.6456C23.5627 28.634 23.5542 28.6244 23.5434 28.6214C23.541 28.6207 23.5386 28.6204 23.5363 28.6204C23.528 28.6204 23.5202 28.6246 23.5155 28.6318L23.4639 28.7112C23.4451 28.7401 23.3764 28.7744 23.3392 28.7744C23.3375 28.7744 23.336 28.7743 23.3344 28.7742C23.3197 28.7728 23.3041 28.7721 23.2875 28.7721C23.1683 28.7721 23.0045 28.8068 22.8271 28.8724C22.7275 28.7528 22.5938 28.5922 22.4699 28.444C22.8243 28.1944 23.0376 27.953 23.1497 27.7241L24.536 28.6632L24.8021 29.5438L24.4466 30.6584L23.9003 30.8673ZM22.4481 28.4179C22.4466 28.416 22.445 28.4141 22.4434 28.4122C22.4497 28.4075 22.4563 28.4024 22.4631 28.397C22.458 28.4043 22.4529 28.4113 22.4481 28.4179ZM22.4166 28.3801C22.2683 28.2028 22.145 28.056 22.1299 28.0403L22.631 27.7909C22.607 28.0276 22.4881 28.2592 22.4166 28.3801Z" fill="#F2E4D4"/>
<path d="M22.4699 28.444C22.4626 28.4352 22.4554 28.4266 22.4481 28.4179C22.4529 28.4113 22.458 28.4043 22.4631 28.3971C22.5992 28.2901 22.8365 28.0523 22.946 27.6347L22.9868 27.6144L23.1497 27.7246C23.0376 27.9533 22.8243 28.1946 22.4699 28.444Z" fill="#F3DFCE"/>
<path d="M22.4435 28.4122C22.4344 28.4014 22.4254 28.3907 22.4166 28.3801C22.4881 28.2593 22.607 28.0279 22.6311 27.7913L22.946 27.6347C22.8365 28.0523 22.5993 28.2901 22.4632 28.397C22.4563 28.4025 22.4497 28.4075 22.4435 28.4122Z" fill="#EECEC6"/>
<path d="M23.1403 29.2507L22.9952 29.0749C23.0943 29.0487 23.1964 29.0339 23.3007 29.0339C23.3498 29.0339 23.3994 29.0372 23.4493 29.0441C23.505 29.0518 23.5547 29.0908 23.5791 29.1458L23.6066 29.2079C23.5786 29.2061 23.5502 29.2053 23.5215 29.2053C23.4003 29.2053 23.2725 29.2206 23.1403 29.2507Z" fill="#F3DFCE"/>
<path d="M23.6976 29.3955L23.6871 29.39L23.6066 29.2079L23.5791 29.1458C23.5547 29.0909 23.505 29.0519 23.4493 29.0442C23.3994 29.0372 23.3498 29.0339 23.3007 29.0339C23.1964 29.0339 23.0943 29.0487 22.9952 29.0749L22.9805 29.0571C22.9805 29.0571 22.9181 28.9821 22.827 28.8728C23.0045 28.8071 23.1682 28.7725 23.2875 28.7725C23.304 28.7725 23.3196 28.7732 23.3344 28.7745C23.3359 28.7747 23.3375 28.7747 23.3392 28.7747C23.3763 28.7747 23.445 28.7405 23.4639 28.7116L23.5154 28.6323C23.5201 28.625 23.528 28.6209 23.5363 28.6209C23.5386 28.6209 23.541 28.6212 23.5434 28.6219C23.5542 28.6249 23.5627 28.6345 23.5649 28.6461L23.7033 29.3855C23.7042 29.3901 23.7017 29.3944 23.6976 29.3955Z" fill="#F3CDCA"/>
<path d="M20.9427 29.3888L14.472 27.8394L14.8676 28.2257L20.9928 29.6353C20.9928 29.6353 21.1459 29.4172 20.9427 29.3888Z" fill="#DFE0DC"/>
<path d="M22.3535 31.4047L15.8444 29.8388L16.2911 30.1957L22.5837 31.6627C22.5837 31.6627 22.5611 31.4094 22.3535 31.4047Z" fill="#DFE0DC"/>
<path d="M23.984 24.394L23.3916 27.6961C23.3862 27.7265 23.4009 27.7568 23.4282 27.7716L23.4768 27.7979C23.4968 27.8087 23.5208 27.8095 23.5415 27.8002C23.5622 27.7908 23.5773 27.7723 23.5822 27.7503L24.2684 24.7729L23.984 24.394Z" fill="#DFE0DC"/>
<path d="M24.9834 29.6162L25.1687 28.2127L25.1502 27.2587L24.9362 29.0954L24.9834 29.6162Z" fill="#DFE0DC"/>
<path d="M31.6457 46.279L43.9774 46.634L43.3834 43.8015C43.218 43.0127 42.6355 42.4232 41.9341 42.3345L31.9693 41.0748C31.8869 41.0643 31.8043 41.095 31.7427 41.1584C31.6811 41.222 31.6457 41.313 31.6457 41.4083V46.279ZM44.3658 47.8937C44.3593 47.8937 44.3528 47.8936 44.3463 47.8934L31.3221 47.5185C30.8947 47.5062 30.5599 47.1116 30.5599 46.6199V41.4083C30.5599 40.9587 30.7269 40.5287 31.0182 40.2287C31.2712 39.9679 31.5977 39.8244 31.9375 39.8244C31.9875 39.8244 32.0382 39.8275 32.0881 39.8339L42.0528 41.0936C43.2076 41.2396 44.1665 42.2102 44.4389 43.5089L45.1258 46.7841C45.1824 47.0538 45.1256 47.3438 44.9739 47.5597C44.8248 47.7719 44.6031 47.8937 44.3658 47.8937Z" fill="#DFE0DC"/>
<path d="M34.7412 46.9202H33.9269V40.7458H34.7412V46.9202Z" fill="#DFE0DC"/>
<path d="M39.2151 46.9202H38.4008V40.7458H39.2151V46.9202Z" fill="#DFE0DC"/>
<path d="M44.0332 44.795L34.3152 44.2755L34.353 43.3402L44.0711 43.8598L44.0332 44.795Z" fill="#DFE0DC"/>
<path d="M13.0802 38.5164L21.9572 46.4042L23.1999 44.0779C23.546 43.43 23.4666 42.6615 23.0023 42.1654L16.4064 35.119C16.3519 35.0607 16.2728 35.0307 16.1898 35.0364C16.1067 35.0421 16.0265 35.0831 15.97 35.1489L13.0802 38.5164ZM21.496 47.5158C21.4912 47.5118 21.4865 47.5077 21.4817 47.5035L12.1064 39.1728C11.7987 38.8994 11.7861 38.4191 12.0778 38.0792L15.1699 34.4761C15.4367 34.1652 15.8148 33.9715 16.2075 33.9445C16.5486 33.9211 16.8744 34.0241 17.1248 34.2347C17.1617 34.2658 17.1972 34.2994 17.2301 34.3347L23.826 41.381C24.5904 42.1977 24.7212 43.4631 24.1514 44.5296L22.7143 47.2197C22.596 47.4413 22.3822 47.6066 22.1423 47.6618C21.9064 47.7161 21.6709 47.6629 21.496 47.5158Z" fill="#DFE0DC"/>
<path d="M14.9811 40.8781L14.381 40.3734L18.0443 36.1046L18.6444 36.6093L14.9811 40.8781Z" fill="#DFE0DC"/>
<path d="M18.2779 43.6506L17.6779 43.146L21.3412 38.8772L21.9412 39.3819L18.2779 43.6506Z" fill="#DFE0DC"/>
<path d="M23.0894 45.1674L16.2362 38.7855L16.819 38.1623L23.6722 44.5442L23.0894 45.1674Z" fill="#DFE0DC"/>
</g>
<g filter="url(#filter0_d_177_2)">
<path d="M42.8195 10.9779L44.7125 8.88075C35.1785 2.41397 30.4424 3.22126 21.6576 6.52584C21.4716 6.5958 21.1393 6.91749 21.3196 7.18521C21.4999 7.45292 21.6576 7.65371 21.6576 7.65371L22.221 8.56841C31.4394 4.99749 35.9917 5.36247 42.8195 10.9779Z" fill="url(#paint0_angular_177_2)" shape-rendering="crispEdges"/>
<path d="M13.3416 18.0723C15.9401 13.5071 17.7856 11.3291 22.221 8.56841L21.6576 7.65371C17.3498 10.3893 15.1986 12.7912 11.6659 18.0723C12.1718 18.4883 12.5372 18.485 13.3416 18.0723Z" fill="white" fill-opacity="0.2" shape-rendering="crispEdges"/>
<path d="M10.9978 18.8755C11.6862 19.4837 13.0261 19.1864 13.1613 19.0525C13.2965 18.9186 13.3457 18.7678 13.3416 18.6955V18.0723C12.5372 18.485 12.1718 18.4883 11.6659 18.0723L10.9978 18.8755Z" fill="white" fill-opacity="0.2" shape-rendering="crispEdges"/>
<path fill-rule="evenodd" clip-rule="evenodd" d="M56.1611 55.9096L54.7187 55.0172L45.4337 39.0435V38.508C44.6039 38.6449 43.8956 38.121 43.7209 37.2889C43.6991 37.1851 43.6856 37.0765 43.6812 36.9638L43.4504 35.0724C43.7166 34.6198 43.9729 34.266 44.2387 34.0015C45.137 33.1071 46.1432 33.2319 48.0028 34.0015L49.558 36.4556L57.1076 48.3689L58.0541 55.0172L56.1611 55.9096Z" fill="#C2D0CD" shape-rendering="crispEdges"/>
<path d="M48.0028 34.0015C49.0356 26.9468 48.4536 21.4203 47.6423 18.8755C46.831 16.3307 44.983 16.2415 44.0815 18.8755C43.1801 21.5095 42.3169 27.7694 44.2387 34.0015C45.137 33.1071 46.1432 33.2319 48.0028 34.0015Z" fill="#C2D0CD" shape-rendering="crispEdges"/>
<path d="M44.397 13.3873C40.9502 22.0229 40.303 27.1466 43.7209 37.2889C43.6991 37.1851 43.6856 37.0765 43.6812 36.9638L43.4504 35.0724C43.7166 34.6198 43.9729 34.266 44.2387 34.0015C42.3169 27.7694 43.1801 21.5095 44.0815 18.8755C44.983 16.2415 46.831 16.3307 47.6423 18.8755C48.4536 21.4203 49.0356 26.9468 48.0028 34.0015L49.558 36.4556C51.3217 29.844 50.5958 21.4605 49.285 16.823C48.6866 14.9552 48.871 14.0598 47.507 13.3873C46.1431 12.7148 45.4445 13.0147 45.1011 13.111C44.7576 13.2073 44.6992 13.2977 44.397 13.3873Z" fill="#C2D0CD" shape-rendering="crispEdges"/>
<path d="M47.507 13.3873C48.871 14.0598 48.6866 14.9552 49.285 16.823C49.2317 16.639 49.6706 16.0184 49.7607 15.7953C49.8509 15.5722 49.8058 14.9475 49.7157 14.7244C48.6295 12.0364 47.3392 11.1671 44.7125 8.88075L42.8195 10.9779C44.2234 12.2301 44.4932 12.7278 44.397 13.3873C44.6992 13.2977 44.7576 13.2073 45.1011 13.111C45.4445 13.0147 46.1431 12.7148 47.507 13.3873Z" fill="#C2D0CD" shape-rendering="crispEdges"/>
<path d="M57.6034 55.0172L56.1611 55.9096M57.6034 55.0172L46.6056 37.6157M57.6034 55.0172H58.0541M56.1611 55.9096L54.7187 55.0172L45.4337 39.0435V38.508M56.1611 55.9096L58.0541 55.0172M45.4337 38.508L46.6056 37.6157M45.4337 38.508V38.0619L46.1999 35.6078M45.4337 38.508C44.6039 38.6449 43.8956 38.121 43.7209 37.2889M46.6056 37.6157L47.507 34.0015M46.1999 35.6078L47.507 34.0015M46.1999 35.6078C45.002 35.2187 44.4318 35.3183 43.7209 36.4556C43.6874 36.6321 43.6749 36.8021 43.6812 36.9638M47.507 34.0015H48.0028M48.0028 34.0015L49.558 36.4556M48.0028 34.0015C49.0356 26.9468 48.4536 21.4203 47.6423 18.8755C46.831 16.3307 44.983 16.2415 44.0815 18.8755C43.1801 21.5095 42.3169 27.7694 44.2387 34.0015M48.0028 34.0015C46.1432 33.2319 45.137 33.1071 44.2387 34.0015M58.0541 55.0172L57.1076 48.3689L49.558 36.4556M43.7209 37.2889C40.303 27.1466 40.9502 22.0229 44.397 13.3873M43.7209 37.2889C43.6991 37.1851 43.6856 37.0765 43.6812 36.9638M43.7209 37.2889L43.6812 36.9638M44.397 13.3873C44.4932 12.7278 44.2234 12.2301 42.8195 10.9779M44.397 13.3873C44.6992 13.2977 44.7576 13.2073 45.1011 13.111C45.4445 13.0147 46.1431 12.7148 47.507 13.3873C48.871 14.0598 48.6866 14.9552 49.285 16.823M49.558 36.4556C51.3217 29.844 50.5958 21.4605 49.285 16.823M49.285 16.823C49.2317 16.639 49.6706 16.0184 49.7607 15.7953C49.8509 15.5722 49.8058 14.9475 49.7157 14.7244C48.6295 12.0364 47.3392 11.1671 44.7125 8.88075M44.7125 8.88075L42.8195 10.9779M44.7125 8.88075C35.1785 2.41397 30.4424 3.22126 21.6576 6.52584C21.4716 6.5958 21.1393 6.91749 21.3196 7.18521C21.4999 7.45292 21.6576 7.65371 21.6576 7.65371M42.8195 10.9779C35.9917 5.36247 31.4394 4.99749 22.221 8.56841M22.221 8.56841C17.7856 11.3291 15.9401 13.5071 13.3416 18.0723M22.221 8.56841L21.6576 7.65371M13.3416 18.0723V18.6955C13.3457 18.7678 13.2965 18.9186 13.1613 19.0525C13.0261 19.1864 11.6862 19.4837 10.9978 18.8755L11.6659 18.0723M13.3416 18.0723C12.5372 18.485 12.1718 18.4883 11.6659 18.0723M11.6659 18.0723C15.1986 12.7912 17.3498 10.3893 21.6576 7.65371M43.6812 36.9638L43.4504 35.0724C43.7166 34.6198 43.9729 34.266 44.2387 34.0015" stroke="black" stroke-width="0.1" shape-rendering="crispEdges"/>
</g>
<path d="M82.3351 50.6L77.9851 41.1C76.8851 38.7333 75.5017 37.05 73.8351 36.05C72.1684 35.05 70.0351 34.55 67.4351 34.55H66.6851V50H61.9351V15.1C63.7017 14.9333 65.3851 14.8167 66.9851 14.75C68.6184 14.65 70.3517 14.6 72.1851 14.6C76.4517 14.6 79.6517 15.4667 81.7851 17.2C83.9517 18.9333 85.0351 21.1667 85.0351 23.9C85.0351 26.3333 84.3017 28.3 82.8351 29.8C81.4017 31.2667 79.3184 32.3667 76.5851 33.1C77.4851 33.5 78.2851 33.9833 78.9851 34.55C79.6851 35.0833 80.3517 35.8167 80.9851 36.75C81.6517 37.65 82.3184 38.8333 82.9851 40.3L86.7851 48.5L82.3351 50.6ZM66.6851 30.55H72.1851C74.5851 30.55 76.5351 30.0167 78.0351 28.95C79.5351 27.8833 80.2851 26.35 80.2851 24.35C80.2851 22.6833 79.5851 21.3167 78.1851 20.25C76.7851 19.15 74.7851 18.6 72.1851 18.6C71.0517 18.6 70.0351 18.6167 69.1351 18.65C68.2351 18.6833 67.4184 18.7333 66.6851 18.8V30.55ZM101.494 50.6C99.0611 50.6 96.8444 50.2833 94.8444 49.65C92.8444 48.9833 91.1611 48.1167 89.7944 47.05L92.1944 43.05C93.3944 44.05 94.7444 44.8667 96.2444 45.5C97.7444 46.1333 99.4944 46.45 101.494 46.45C103.894 46.45 105.794 45.95 107.194 44.95C108.594 43.95 109.294 42.6 109.294 40.9C109.294 39.9333 109.094 39.0833 108.694 38.35C108.294 37.5833 107.511 36.85 106.344 36.15C105.211 35.4167 103.528 34.6333 101.294 33.8C98.8944 32.8667 96.9778 31.9333 95.5444 31C94.1111 30.0333 93.0778 28.95 92.4444 27.75C91.8444 26.5167 91.5444 25.0667 91.5444 23.4C91.5444 21.7333 91.9944 20.2333 92.8944 18.9C93.8278 17.5333 95.1778 16.45 96.9444 15.65C98.7444 14.8167 100.911 14.4 103.444 14.4C105.511 14.4 107.361 14.6167 108.994 15.05C110.661 15.45 112.278 16.0333 113.844 16.8L112.094 20.85C110.961 20.1833 109.628 19.6333 108.094 19.2C106.594 18.7333 105.011 18.5 103.344 18.5C101.144 18.5 99.4111 18.9333 98.1444 19.8C96.8778 20.6667 96.2444 21.7833 96.2444 23.15C96.2444 24.0167 96.4278 24.7833 96.7944 25.45C97.1611 26.1167 97.8778 26.7667 98.9444 27.4C100.044 28.0333 101.678 28.75 103.844 29.55C106.444 30.5167 108.494 31.5333 109.994 32.6C111.528 33.6667 112.611 34.8333 113.244 36.1C113.878 37.3333 114.194 38.75 114.194 40.35C114.194 42.5167 113.644 44.3667 112.544 45.9C111.478 47.4333 109.978 48.6 108.044 49.4C106.144 50.2 103.961 50.6 101.494 50.6ZM121.212 50V15H125.962V50H121.212Z" fill="#62C8B8"/>
<path d="M82.3351 50.6L81.4258 51.0163L81.847 51.9361L82.7618 51.5044L82.3351 50.6ZM77.9851 41.1L78.8943 40.6837L78.8919 40.6785L77.9851 41.1ZM73.8351 36.05L73.3206 36.9075L73.3206 36.9075L73.8351 36.05ZM66.6851 34.55V33.55H65.6851V34.55H66.6851ZM66.6851 50V51H67.6851V50H66.6851ZM61.9351 50H60.9351V51H61.9351V50ZM61.9351 15.1L61.8411 14.1044L60.9351 14.1899V15.1H61.9351ZM66.9851 14.75L67.0267 15.7491L67.0364 15.7487L67.0462 15.7481L66.9851 14.75ZM81.7851 17.2L81.1544 17.9761L81.1604 17.9809L81.7851 17.2ZM82.8351 29.8L82.1201 29.1009L82.1199 29.1011L82.8351 29.8ZM76.5851 33.1L76.3259 32.1342L73.597 32.8663L76.1789 34.0138L76.5851 33.1ZM78.9851 34.55L78.3559 35.3272L78.3673 35.3365L78.379 35.3454L78.9851 34.55ZM80.9851 36.75L80.1576 37.3115L80.1692 37.3286L80.1815 37.3452L80.9851 36.75ZM82.9851 40.3L82.0747 40.7138L82.0777 40.7205L82.9851 40.3ZM86.7851 48.5L87.2118 49.4044L88.1099 48.9805L87.6924 48.0795L86.7851 48.5ZM66.6851 30.55H65.6851V31.55H66.6851V30.55ZM78.0351 28.95L77.4555 28.135L77.4555 28.135L78.0351 28.95ZM78.1851 20.25L77.5672 21.0363L77.5731 21.0409L77.579 21.0454L78.1851 20.25ZM66.6851 18.8L66.5945 17.8041L65.6851 17.8868V18.8H66.6851ZM83.2443 50.1837L78.8943 40.6837L77.0758 41.5163L81.4258 51.0163L83.2443 50.1837ZM78.8919 40.6785C77.7359 38.1914 76.2373 36.3252 74.3496 35.1925L73.3206 36.9075C74.7661 37.7748 76.0342 39.2753 77.0782 41.5215L78.8919 40.6785ZM74.3496 35.1925C72.4835 34.0729 70.157 33.55 67.4351 33.55V35.55C69.9131 35.55 71.8533 36.0271 73.3206 36.9075L74.3496 35.1925ZM67.4351 33.55H66.6851V35.55H67.4351V33.55ZM65.6851 34.55V50H67.6851V34.55H65.6851ZM66.6851 49H61.9351V51H66.6851V49ZM62.9351 50V15.1H60.9351V50H62.9351ZM62.029 16.0956C63.7801 15.9304 65.4459 15.815 67.0267 15.7491L66.9434 13.7509C65.3242 13.8183 63.6234 13.9363 61.8411 14.1044L62.029 16.0956ZM67.0462 15.7481C68.6569 15.6495 70.3697 15.6 72.1851 15.6V13.6C70.3337 13.6 68.5799 13.6505 66.924 13.7519L67.0462 15.7481ZM72.1851 15.6C76.3421 15.6 79.2744 16.4486 81.1545 17.9761L82.4157 16.4239C80.029 14.4848 76.5613 13.6 72.1851 13.6V15.6ZM81.1604 17.9809C83.094 19.5278 84.0351 21.4758 84.0351 23.9H86.0351C86.0351 20.8576 84.8095 18.3389 82.4098 16.4191L81.1604 17.9809ZM84.0351 23.9C84.0351 26.117 83.3748 27.8176 82.1201 29.1009L83.5501 30.4991C85.2287 28.7824 86.0351 26.5496 86.0351 23.9H84.0351ZM82.1199 29.1011C80.8507 30.3997 78.9491 31.4304 76.3259 32.1342L76.8442 34.0658C79.6877 33.3029 81.9527 32.1336 83.5502 30.4989L82.1199 29.1011ZM76.1789 34.0138C77.0063 34.3815 77.7299 34.8205 78.3559 35.3272L79.6143 33.7728C78.8402 33.1461 77.9638 32.6185 76.9912 32.1862L76.1789 34.0138ZM78.379 35.3454C78.9727 35.7978 79.5687 36.4437 80.1576 37.3115L81.8125 36.1885C81.1347 35.1896 80.3974 34.3689 79.5911 33.7546L78.379 35.3454ZM80.1815 37.3452C80.7925 38.17 81.4256 39.2859 82.0747 40.7138L83.8954 39.8862C83.2111 38.3808 82.511 37.13 81.7886 36.1548L80.1815 37.3452ZM82.0777 40.7205L85.8777 48.9205L87.6924 48.0795L83.8924 39.8795L82.0777 40.7205ZM86.3583 47.5956L81.9083 49.6956L82.7618 51.5044L87.2118 49.4044L86.3583 47.5956ZM66.6851 31.55H72.1851V29.55H66.6851V31.55ZM72.1851 31.55C74.73 31.55 76.9005 30.9839 78.6146 29.765L77.4555 28.135C76.1696 29.0495 74.4401 29.55 72.1851 29.55V31.55ZM78.6146 29.765C80.404 28.4925 81.2851 26.6409 81.2851 24.35H79.2851C79.2851 26.0591 78.6661 27.2742 77.4555 28.135L78.6146 29.765ZM81.2851 24.35C81.2851 22.3514 80.4232 20.698 78.7911 19.4546L77.579 21.0454C78.747 21.9353 79.2851 23.0152 79.2851 24.35H81.2851ZM78.8029 19.4637C77.1618 18.1742 74.9095 17.6 72.1851 17.6V19.6C74.6606 19.6 76.4084 20.1258 77.5672 21.0363L78.8029 19.4637ZM72.1851 17.6C71.0424 17.6 70.013 17.6168 69.098 17.6507L69.1721 19.6493C70.0571 19.6165 71.0611 19.6 72.1851 19.6V17.6ZM69.098 17.6507C68.1839 17.6845 67.3491 17.7355 66.5945 17.8041L66.7756 19.7959C67.4877 19.7312 68.2862 19.6821 69.1721 19.6493L69.098 17.6507ZM65.6851 18.8V30.55H67.6851V18.8H65.6851ZM94.8444 49.65L94.5282 50.5987L94.5354 50.6011L94.5425 50.6033L94.8444 49.65ZM89.7944 47.05L88.9369 46.5355L88.4818 47.294L89.1792 47.8383L89.7944 47.05ZM92.1944 43.05L92.8346 42.2818L91.9377 41.5343L91.3369 42.5355L92.1944 43.05ZM96.2444 45.5L95.8555 46.4212L96.2444 45.5ZM107.194 44.95L107.776 45.7637L107.776 45.7637L107.194 44.95ZM108.694 38.35L107.808 38.8126L107.812 38.8207L107.817 38.8289L108.694 38.35ZM106.344 36.15L105.801 36.9896L105.815 36.9988L105.83 37.0075L106.344 36.15ZM101.294 33.8L100.932 34.7321L100.945 34.7369L101.294 33.8ZM95.5444 31L94.9853 31.8291L94.992 31.8336L94.9988 31.838L95.5444 31ZM92.4444 27.75L91.5452 28.1875L91.5524 28.2022L91.56 28.2168L92.4444 27.75ZM92.8944 18.9L92.0686 18.336L92.0656 18.3405L92.8944 18.9ZM96.9444 15.65L97.357 16.561L97.3646 16.5575L96.9444 15.65ZM108.994 15.05L108.738 16.0166L108.749 16.0196L108.761 16.0224L108.994 15.05ZM113.844 16.8L114.762 17.1967L115.141 16.321L114.284 15.9018L113.844 16.8ZM112.094 20.85L111.587 21.7119L112.563 22.286L113.012 21.2467L112.094 20.85ZM108.094 19.2L107.797 20.1549L107.81 20.1587L107.822 20.1623L108.094 19.2ZM96.7944 25.45L95.9182 25.9319L95.9182 25.9319L96.7944 25.45ZM98.9444 27.4L98.4338 28.2599L98.4455 28.2666L98.9444 27.4ZM103.844 29.55L104.193 28.6127L104.191 28.6119L103.844 29.55ZM109.994 32.6L109.415 33.415L109.423 33.4209L109.994 32.6ZM113.244 36.1L112.35 36.5472L112.355 36.5568L113.244 36.1ZM112.544 45.9L111.732 45.3171L111.728 45.323L111.724 45.3289L112.544 45.9ZM108.044 49.4L107.662 48.476L107.656 48.4784L108.044 49.4ZM101.494 49.6C99.1475 49.6 97.0345 49.2946 95.1463 48.6967L94.5425 50.6033C96.6544 51.2721 98.9747 51.6 101.494 51.6V49.6ZM95.1607 48.7013C93.2462 48.0632 91.6695 47.245 90.4097 46.2617L89.1792 47.8383C90.6527 48.9884 92.4427 49.9035 94.5282 50.5987L95.1607 48.7013ZM90.6519 47.5645L93.0519 43.5645L91.3369 42.5355L88.9369 46.5355L90.6519 47.5645ZM91.5542 43.8182C92.8331 44.884 94.2685 45.7512 95.8555 46.4212L96.6334 44.5788C95.2204 43.9821 93.9557 43.216 92.8346 42.2818L91.5542 43.8182ZM95.8555 46.4212C97.5032 47.117 99.3905 47.45 101.494 47.45V45.45C99.5984 45.45 97.9857 45.1497 96.6334 44.5788L95.8555 46.4212ZM101.494 47.45C104.023 47.45 106.151 46.9243 107.776 45.7637L106.613 44.1363C105.438 44.9757 103.766 45.45 101.494 45.45V47.45ZM107.776 45.7637C109.435 44.5787 110.294 42.9276 110.294 40.9H108.294C108.294 42.2724 107.754 43.3213 106.613 44.1363L107.776 45.7637ZM110.294 40.9C110.294 39.7925 110.064 38.773 109.572 37.8711L107.817 38.8289C108.125 39.3937 108.294 40.0742 108.294 40.9H110.294ZM109.581 37.8874C109.06 36.8889 108.101 36.0377 106.859 35.2925L105.83 37.0075C106.921 37.6623 107.529 38.2777 107.808 38.8126L109.581 37.8874ZM106.888 35.3104C105.664 34.5188 103.902 33.7057 101.644 32.8631L100.945 34.7369C103.153 35.561 104.758 36.3145 105.801 36.9896L106.888 35.3104ZM101.657 32.868C99.2923 31.9484 97.4447 31.044 96.0901 30.162L94.9988 31.838C96.5109 32.8226 98.4966 33.7849 100.932 34.732L101.657 32.868ZM96.1036 30.1709C94.7703 29.2717 93.867 28.303 93.3288 27.2832L91.56 28.2168C92.2885 29.597 93.4519 30.7949 94.9853 31.8291L96.1036 30.1709ZM93.3437 27.3125C92.8227 26.2417 92.5444 24.9472 92.5444 23.4H90.5444C90.5444 25.1861 90.8662 26.7916 91.5452 28.1875L93.3437 27.3125ZM92.5444 23.4C92.5444 21.9251 92.939 20.6213 93.7233 19.4595L92.0656 18.3405C91.0498 19.8453 90.5444 21.5416 90.5444 23.4H92.5444ZM93.7202 19.464C94.5336 18.273 95.7282 17.2985 97.3569 16.561L96.5319 14.739C94.6274 15.6015 93.122 16.7937 92.0686 18.336L93.7202 19.464ZM97.3646 16.5575C99.0017 15.7995 101.017 15.4 103.444 15.4V13.4C100.805 13.4 98.4872 13.8338 96.5243 14.7425L97.3646 16.5575ZM103.444 15.4C105.443 15.4 107.204 15.6097 108.738 16.0166L109.251 14.0834C107.518 13.6236 105.579 13.4 103.444 13.4V15.4ZM108.761 16.0224C110.355 16.405 111.903 16.9632 113.405 17.6982L114.284 15.9018C112.653 15.1035 110.967 14.495 109.228 14.0776L108.761 16.0224ZM112.926 16.4033L111.176 20.4533L113.012 21.2467L114.762 17.1967L112.926 16.4033ZM112.601 19.9881C111.381 19.27 109.965 18.6896 108.366 18.2377L107.822 20.1623C109.29 20.5771 110.541 21.0966 111.587 21.7119L112.601 19.9881ZM108.392 18.2451C106.79 17.7468 105.106 17.5 103.344 17.5V19.5C104.917 19.5 106.399 19.7199 107.797 20.1549L108.392 18.2451ZM103.344 17.5C101.027 17.5 99.0705 17.9547 97.5797 18.9747L98.7091 20.6253C99.7517 19.9119 101.262 19.5 103.344 19.5V17.5ZM97.5797 18.9747C96.0798 20.001 95.2444 21.4085 95.2444 23.15H97.2444C97.2444 22.1581 97.6758 21.3323 98.7091 20.6253L97.5797 18.9747ZM95.2444 23.15C95.2444 24.1614 95.4596 25.0981 95.9182 25.9319L97.6706 24.9681C97.3959 24.4685 97.2444 23.8719 97.2444 23.15H95.2444ZM95.9182 25.9319C96.4091 26.8244 97.3005 27.5869 98.4339 28.2599L99.455 26.5401C98.455 25.9464 97.9131 25.4089 97.6706 24.9681L95.9182 25.9319ZM98.4455 28.2666C99.6186 28.9421 101.314 29.6816 103.498 30.4881L104.191 28.6119C102.042 27.8183 100.47 27.1246 99.4434 26.5334L98.4455 28.2666ZM103.496 30.4873C106.051 31.4372 108.012 32.4177 109.415 33.415L110.574 31.785C108.976 30.649 106.838 29.5961 104.193 28.6127L103.496 30.4873ZM109.423 33.4209C110.862 34.4215 111.812 35.4704 112.35 36.5472L114.139 35.6528C113.411 34.1963 112.194 32.9119 110.565 31.7791L109.423 33.4209ZM112.355 36.5568C112.905 37.6285 113.194 38.8843 113.194 40.35H115.194C115.194 38.6157 114.85 37.0382 114.134 35.6432L112.355 36.5568ZM113.194 40.35C113.194 42.3397 112.693 43.978 111.732 45.3171L113.357 46.4829C114.596 44.7553 115.194 42.6937 115.194 40.35H113.194ZM111.724 45.3289C110.779 46.6866 109.44 47.7401 107.662 48.476L108.427 50.324C110.515 49.4599 112.176 48.18 113.365 46.4711L111.724 45.3289ZM107.656 48.4784C105.901 49.2175 103.853 49.6 101.494 49.6V51.6C104.069 51.6 106.388 51.1825 108.432 50.3216L107.656 48.4784ZM121.212 50H120.212V51H121.212V50ZM121.212 15V14H120.212V15H121.212ZM125.962 15H126.962V14H125.962V15ZM125.962 50V51H126.962V50H125.962ZM122.212 50V15H120.212V50H122.212ZM121.212 16H125.962V14H121.212V16ZM124.962 15V50H126.962V15H124.962ZM125.962 49H121.212V51H125.962V49Z" fill="#01967F"/>
<defs>
<filter id="filter0_d_177_2" x="6.92834" y="3.9657" width="55.1805" height="60.0007" filterUnits="userSpaceOnUse" color-interpolation-filters="sRGB">
<feFlood flood-opacity="0" result="BackgroundImageFix"/>
<feColorMatrix in="SourceAlpha" type="matrix" values="0 0 0 0 0 0 0 0 0 0 0 0 0 0 0 0 0 0 127 0" result="hardAlpha"/>
<feOffset dy="4"/>
<feGaussianBlur stdDeviation="2"/>
<feComposite in2="hardAlpha" operator="out"/>
<feColorMatrix type="matrix" values="0 0 0 0 0 0 0 0 0 0 0 0 0 0 0 0 0 0 0.25 0"/>
<feBlend mode="normal" in2="BackgroundImageFix" result="effect1_dropShadow_177_2"/>
<feBlend mode="normal" in="SourceGraphic" in2="effect1_dropShadow_177_2" result="shape"/>
</filter>
<radialGradient id="paint0_angular_177_2" cx="0" cy="0" r="1" gradientUnits="userSpaceOnUse" gradientTransform="translate(34.526 29.9627) rotate(90) scale(25.9469 23.5282)">
<stop offset="0.416667" stop-color="#666666"/>
<stop offset="0.456117" stop-color="#888888"/>
<stop offset="0.490073" stop-color="#C6C6C6"/>
<stop offset="0.514136" stop-color="#888888"/>
<stop offset="0.547638" stop-color="#666666"/>
</radialGradient>
<clipPath id="clip0_177_2">
<rect width="60.8488" height="60.2362" fill="white" transform="translate(3.33545 7.76379)"/>
</clipPath>
</defs>
</svg>
